#N canvas 436 36 550 620 10;
#X obj 0 0 cnv 15 550 40 empty empty shape/check 3 12 0 18 #c4dcdc #000000 0;
#X obj 400 10 shape/check;
#X text 10 50 Checks the shape and report errors in the shape structure. \; This is a more detailed check as done in isValid(). \; myShape.check(runBopCheck = False) \; if runBopCheck is True \,  a BOPCheck analysis is also performed.;
#X obj 0 130 cnv 3 550 3 empty empty inlets 8 12 0 13 #dcdcdc #000000 0;
#X obj 78 150 cnv 17 3 17 empty \$0-pddp.cnv.let.1 0 5 9 0 16 #dcdcdc #9c9c9c 0;
#X text 100 150 Shape;
#X obj 78 180 cnv 17 3 17 empty \$0-pddp.cnv.let.1 1 5 9 0 16 #dcdcdc #9c9c9c 0;
#X text 100 180 ;
#X obj 0 210 cnv 3 550 3 empty empty outlets 8 12 0 13 #dcdcdc #000000 0;
#X obj 78 240 cnv 17 3 17 empty empty 0 5 9 0 16 #dcdcdc #9c9c9c 0;
#X text 100 240 Result of the operation;
#X obj 0 300 cnv 3 550 3 empty empty arguments 8 12 0 13 #dcdcdc #000000 0;
#X obj 0 360 cnv 3 550 3 empty empty more_info 8 12 0 13 #dcdcdc #000000 0;
#X text 10 380 This object is in the ;
#X obj 140 380  helplink shape;
#X text 175 380  part of the ;
#X obj 245 380  helplink FCPD;
#X text 275 380  library.;
#X obj 0 420 cnv 15 550 15 empty empty empty 20 12 0 14 #dcdcdc #404040 0;
