#N canvas 436 36 550 620 10;
#X obj 0 0 cnv 15 550 40 empty empty shape/childShapes 3 12 0 18 #c4dcdc #000000 0;
#X obj 400 10 shape/childShapes;
#X text 10 50  \; childShapes([cumOri=True \,  cumLoc=True]) -> list \; Return a list of sub-shapes that are direct children of this shape. \;  * If cumOri is true \,  the function composes all \;    sub-shapes with the orientation of this shape. \;  * If cumLoc is true \,  the function multiplies all \;    sub-shapes by the location of this shape \,  i.e. it applies to \;    each sub-shape the transformation that is associated with this shape. \;         ;
#X obj 0 230 cnv 3 550 3 empty empty inlets 8 12 0 13 #dcdcdc #000000 0;
#X obj 78 250 cnv 17 3 17 empty \$0-pddp.cnv.let.1 0 5 9 0 16 #dcdcdc #9c9c9c 0;
#X text 100 250 Shape;
#X obj 78 280 cnv 17 3 17 empty \$0-pddp.cnv.let.1 1 5 9 0 16 #dcdcdc #9c9c9c 0;
#X text 100 280 cumOri;
#X obj 78 310 cnv 17 3 17 empty \$0-pddp.cnv.let.1 2 5 9 0 16 #dcdcdc #9c9c9c 0;
#X text 100 310  cumLoc;
#X obj 0 340 cnv 3 550 3 empty empty outlets 8 12 0 13 #dcdcdc #000000 0;
#X obj 78 370 cnv 17 3 17 empty empty 0 5 9 0 16 #dcdcdc #9c9c9c 0;
#X text 100 370 Result of the operation;
#X obj 0 430 cnv 3 550 3 empty empty arguments 8 12 0 13 #dcdcdc #000000 0;
#X obj 0 490 cnv 3 550 3 empty empty more_info 8 12 0 13 #dcdcdc #000000 0;
#X text 10 510 This object is in the ;
#X obj 140 510  helplink shape;
#X text 175 510  part of the ;
#X obj 245 510  helplink FCPD;
#X text 275 510  library.;
#X obj 0 550 cnv 15 550 15 empty empty empty 20 12 0 14 #dcdcdc #404040 0;
