#N canvas 436 36 550 620 10;
#X obj 0 0 cnv 15 550 40 empty empty shape/copy 3 12 0 18 #c4dcdc #000000 0;
#X obj 400 10 shape/copy;
#X text 10 50 Create a copy of this shape \; copy(copyGeom=True \,  copyMesh=False) -> Shape \; If copyMesh is True \,  triangulation contained in original shape will be \; copied along with geometry. \; If copyGeom is False \,  only topological objects will be copied \,  while \; geometry and triangulation will be shared with original shape. \; ;
#X obj 0 190 cnv 3 550 3 empty empty inlets 8 12 0 13 #dcdcdc #000000 0;
#X obj 78 210 cnv 17 3 17 empty \$0-pddp.cnv.let.1 0 5 9 0 16 #dcdcdc #9c9c9c 0;
#X text 100 210 Shape;
#X obj 78 240 cnv 17 3 17 empty \$0-pddp.cnv.let.1 1 5 9 0 16 #dcdcdc #9c9c9c 0;
#X text 100 240 copyGeom;
#X obj 78 270 cnv 17 3 17 empty \$0-pddp.cnv.let.1 2 5 9 0 16 #dcdcdc #9c9c9c 0;
#X text 100 270  copyMesh;
#X obj 0 300 cnv 3 550 3 empty empty outlets 8 12 0 13 #dcdcdc #000000 0;
#X obj 78 330 cnv 17 3 17 empty empty 0 5 9 0 16 #dcdcdc #9c9c9c 0;
#X text 100 330 Result of the operation;
#X obj 0 390 cnv 3 550 3 empty empty arguments 8 12 0 13 #dcdcdc #000000 0;
#X obj 0 450 cnv 3 550 3 empty empty more_info 8 12 0 13 #dcdcdc #000000 0;
#X text 10 470 This object is in the ;
#X obj 140 470  helplink shape;
#X text 175 470  part of the ;
#X obj 245 470  helplink FCPD;
#X text 275 470  library.;
#X obj 0 510 cnv 15 550 15 empty empty empty 20 12 0 14 #dcdcdc #404040 0;
