#N canvas 436 36 550 620 10;
#X obj 0 0 cnv 15 550 40 empty empty shape/distToShape 3 12 0 18 #c4dcdc #000000 0;
#X obj 400 10 shape/distToShape;
#X text 10 50 Find the minimum distance to another shape. \; distToShape(Shape s):  Returns a list of minimum distance and solution point pairs. \;  \; Returned is a tuple of three: (dist \,  vectors \,  infos). \;  \; dist is the minimum distance \,  in mm (float value). \;  \; vectors is a list of pairs of App.Vector. Each pair corresponds to solution. \; Example: [(Vector (2.0 \,  -1.0 \,  2.0) \,  Vector (2.0 \,  0.0 \,  2.0)) \,  (Vector (2.0 \,  \; -1.0 \,  2.0) \,  Vector (2.0 \,  -1.0 \,  3.0))] First vector is a point on self \,  second \; vector is a point on s. \;  \; infos contains additional info on the solutions. It is a list of tuples: \; (topo1 \,  index1 \,  params1 \,  topo2 \,  index2 \,  params2) \;  \;     topo1 \,  topo2 are strings identifying type of BREP element: 'Vertex' \,  \;     'Edge' \,  or 'Face'. \;  \;     index1 \,  index2 are indexes of the elements (zero-based). \;  \;     params1 \,  params2 are parameters of internal space of the elements. For \;     vertices \,  params is None. For edges \,  params is one float \,  u. For faces \,  \;     params is a tuple (u \, v). ;
#X obj 0 510 cnv 3 550 3 empty empty inlets 8 12 0 13 #dcdcdc #000000 0;
#X obj 78 530 cnv 17 3 17 empty \$0-pddp.cnv.let.1 0 5 9 0 16 #dcdcdc #9c9c9c 0;
#X text 100 530 Shape;
#X obj 78 560 cnv 17 3 17 empty \$0-pddp.cnv.let.1 1 5 9 0 16 #dcdcdc #9c9c9c 0;
#X text 100 560 Shape s;
#X obj 0 590 cnv 3 550 3 empty empty outlets 8 12 0 13 #dcdcdc #000000 0;
#X obj 78 620 cnv 17 3 17 empty empty 0 5 9 0 16 #dcdcdc #9c9c9c 0;
#X text 100 620 Result of the operation;
#X obj 0 680 cnv 3 550 3 empty empty arguments 8 12 0 13 #dcdcdc #000000 0;
#X obj 0 740 cnv 3 550 3 empty empty more_info 8 12 0 13 #dcdcdc #000000 0;
#X text 10 760 This object is in the ;
#X obj 140 760  helplink shape;
#X text 175 760  part of the ;
#X obj 245 760  helplink FCPD;
#X text 275 760  library.;
#X obj 0 800 cnv 15 550 15 empty empty empty 20 12 0 14 #dcdcdc #404040 0;
