#N canvas 436 36 550 620 10;
#X obj 0 0 cnv 15 550 40 empty empty shape/exportBrep 3 12 0 18 #c4dcdc #000000 0;
#X obj 400 10 shape/exportBrep;
#X text 10 50 Export the content of this shape to an BREP file. \; BREP is an OpenCasCade native format. \;         ;
#X obj 0 110 cnv 3 550 3 empty empty inlets 8 12 0 13 #dcdcdc #000000 0;
#X obj 78 130 cnv 17 3 17 empty \$0-pddp.cnv.let.0 0 5 9 0 16 #dcdcdc #9c9c9c 0;
#X text 100 130 Shape;
#X obj 78 160 cnv 17 3 17 empty \$0-pddp.cnv.let.1 1 5 9 0 16 #dcdcdc #9c9c9c 0;
#X text 100 160 filename;
#X obj 0 190 cnv 3 550 3 empty empty outlets 8 12 0 13 #dcdcdc #000000 0;
#X obj 78 220 cnv 17 3 17 empty empty 0 5 9 0 16 #dcdcdc #9c9c9c 0;
#X text 100 220 Result of the operation;
#X obj 0 280 cnv 3 550 3 empty empty arguments 8 12 0 13 #dcdcdc #000000 0;
#X obj 0 340 cnv 3 550 3 empty empty more_info 8 12 0 13 #dcdcdc #000000 0;
#X text 10 360 This object is in the ;
#X obj 140 360  helplink shape;
#X text 175 360  part of the ;
#X obj 245 360  helplink FCPD;
#X text 275 360  library.;
#X obj 0 400 cnv 15 550 15 empty empty empty 20 12 0 14 #dcdcdc #404040 0;
