#N canvas 436 36 550 620 10;
#X obj 0 0 cnv 15 550 40 empty empty shape/fixTolerance 3 12 0 18 #c4dcdc #000000 0;
#X obj 400 10 shape/fixTolerance;
#X text 10 50  \;         fixTolerance(value \,  ShapeType=Shape) \;  \;         Sets (enforces) tolerances in a shape to the given value \;         ShapeType = Vertex : only vertices are set \;         ShapeType = Edge   : only edges are set \;         ShapeType = Face   : only faces are set \;         ShapeType = Wire   : to have edges and their vertices set \;         ShapeType = other value : all (vertices \, edges \, faces) are set \;         ;
#X obj 0 250 cnv 3 550 3 empty empty inlets 8 12 0 13 #dcdcdc #000000 0;
#X obj 78 270 cnv 17 3 17 empty \$0-pddp.cnv.let.1 0 5 9 0 16 #dcdcdc #9c9c9c 0;
#X text 100 270 Shape;
#X obj 78 300 cnv 17 3 17 empty \$0-pddp.cnv.let.1 1 5 9 0 16 #dcdcdc #9c9c9c 0;
#X text 100 300 value;
#X obj 78 330 cnv 17 3 17 empty \$0-pddp.cnv.let.1 2 5 9 0 16 #dcdcdc #9c9c9c 0;
#X text 100 330  ShapeType;
#X obj 0 360 cnv 3 550 3 empty empty outlets 8 12 0 13 #dcdcdc #000000 0;
#X obj 78 390 cnv 17 3 17 empty empty 0 5 9 0 16 #dcdcdc #9c9c9c 0;
#X text 100 390 Result of the operation;
#X obj 0 450 cnv 3 550 3 empty empty arguments 8 12 0 13 #dcdcdc #000000 0;
#X obj 0 510 cnv 3 550 3 empty empty more_info 8 12 0 13 #dcdcdc #000000 0;
#X text 10 530 This object is in the ;
#X obj 140 530  helplink shape;
#X text 175 530  part of the ;
#X obj 245 530  helplink FCPD;
#X text 275 530  library.;
#X obj 0 570 cnv 15 550 15 empty empty empty 20 12 0 14 #dcdcdc #404040 0;
