#N canvas 436 36 550 620 10;
#X obj 0 0 cnv 15 550 40 empty empty shape/fuse 3 12 0 18 #c4dcdc #000000 0;
#X obj 400 10 shape/fuse;
#X text 10 50 Union of this and a given (list of) topo shape. \; fuse(tool) -> Shape \;   or \; fuse((tool1 \, tool2 \, ...) \, [tolerance=0.0]) -> Shape \;  \; Union of this and a given list of topo shapes. \;  \; Supports (OCCT 6.9.0 and above): \; - Fuzzy Boolean operations (global tolerance for a Boolean operation) \; - Support of multiple arguments for a single Boolean operation \; - Parallelization of Boolean Operations algorithm \;  \; Beginning from OCCT 6.8.1 a tolerance value can be specified.;
#X obj 0 310 cnv 3 550 3 empty empty inlets 8 12 0 13 #dcdcdc #000000 0;
#X obj 78 330 cnv 17 3 17 empty \$0-pddp.cnv.let.1 0 5 9 0 16 #dcdcdc #9c9c9c 0;
#X text 100 330 Shape;
#X obj 78 360 cnv 17 3 17 empty \$0-pddp.cnv.let.1 1 5 9 0 16 #dcdcdc #9c9c9c 0;
#X text 100 360 list of;
#X obj 0 390 cnv 3 550 3 empty empty outlets 8 12 0 13 #dcdcdc #000000 0;
#X obj 78 420 cnv 17 3 17 empty empty 0 5 9 0 16 #dcdcdc #9c9c9c 0;
#X text 100 420 Result of the operation;
#X obj 0 480 cnv 3 550 3 empty empty arguments 8 12 0 13 #dcdcdc #000000 0;
#X obj 0 540 cnv 3 550 3 empty empty more_info 8 12 0 13 #dcdcdc #000000 0;
#X text 10 560 This object is in the ;
#X obj 140 560  helplink shape;
#X text 175 560  part of the ;
#X obj 245 560  helplink FCPD;
#X text 275 560  library.;
#X obj 0 600 cnv 15 550 15 empty empty empty 20 12 0 14 #dcdcdc #404040 0;
