#N canvas 436 36 550 620 10;
#X obj 0 0 cnv 15 550 40 empty empty shape/getTolerance 3 12 0 18 #c4dcdc #000000 0;
#X obj 400 10 shape/getTolerance;
#X text 10 50  \;         getTolerance(mode \,  ShapeType=Shape) -> float \;  \;         Determines a tolerance from the ones stored in a shape \;         mode = 0 : returns the average value between sub-shapes \,  \;         mode > 0 : returns the maximal found \,  \;         mode < 0 : returns the minimal found. \;         ShapeType defines what kinds of sub-shapes to consider: \;         Shape (default) : all : Vertex \,  Edge \,  Face \,  \;         Vertex : only vertices \,  \;         Edge   : only edges \,  \;         Face   : only faces \,  \;         Shell  : combined Shell + Face \,  for each face (and containing \;                  shell) \,  also checks edge and Vertex \;         ;
#X obj 0 350 cnv 3 550 3 empty empty inlets 8 12 0 13 #dcdcdc #000000 0;
#X obj 78 370 cnv 17 3 17 empty \$0-pddp.cnv.let.1 0 5 9 0 16 #dcdcdc #9c9c9c 0;
#X text 100 370 Shape;
#X obj 78 400 cnv 17 3 17 empty \$0-pddp.cnv.let.1 1 5 9 0 16 #dcdcdc #9c9c9c 0;
#X text 100 400 mode;
#X obj 78 430 cnv 17 3 17 empty \$0-pddp.cnv.let.1 2 5 9 0 16 #dcdcdc #9c9c9c 0;
#X text 100 430  ShapeType;
#X obj 0 460 cnv 3 550 3 empty empty outlets 8 12 0 13 #dcdcdc #000000 0;
#X obj 78 490 cnv 17 3 17 empty empty 0 5 9 0 16 #dcdcdc #9c9c9c 0;
#X text 100 490 Result of the operation;
#X obj 0 550 cnv 3 550 3 empty empty arguments 8 12 0 13 #dcdcdc #000000 0;
#X obj 0 610 cnv 3 550 3 empty empty more_info 8 12 0 13 #dcdcdc #000000 0;
#X text 10 630 This object is in the ;
#X obj 140 630  helplink shape;
#X text 175 630  part of the ;
#X obj 245 630  helplink FCPD;
#X text 275 630  library.;
#X obj 0 670 cnv 15 550 15 empty empty empty 20 12 0 14 #dcdcdc #404040 0;
