#N canvas 436 36 550 620 10;
#X obj 0 0 cnv 15 550 40 empty empty shape/globalTolerance 3 12 0 18 #c4dcdc #000000 0;
#X obj 400 10 shape/globalTolerance;
#X text 10 50 Returns the computed tolerance according to the mode \; mode = 0 : average \; mode > 0 : maximal \; mode < 0 : minimal \;         ;
#X obj 0 150 cnv 3 550 3 empty empty inlets 8 12 0 13 #dcdcdc #000000 0;
#X obj 78 170 cnv 17 3 17 empty \$0-pddp.cnv.let.0 0 5 9 0 16 #dcdcdc #9c9c9c 0;
#X text 100 170 Shape;
#X obj 78 200 cnv 17 3 17 empty \$0-pddp.cnv.let.1 1 5 9 0 16 #dcdcdc #9c9c9c 0;
#X text 100 200 mode;
#X obj 0 230 cnv 3 550 3 empty empty outlets 8 12 0 13 #dcdcdc #000000 0;
#X obj 78 260 cnv 17 3 17 empty empty 0 5 9 0 16 #dcdcdc #9c9c9c 0;
#X text 100 260 Result of the operation;
#X obj 0 320 cnv 3 550 3 empty empty arguments 8 12 0 13 #dcdcdc #000000 0;
#X obj 0 380 cnv 3 550 3 empty empty more_info 8 12 0 13 #dcdcdc #000000 0;
#X text 10 400 This object is in the ;
#X obj 140 400  helplink shape;
#X text 175 400  part of the ;
#X obj 245 400  helplink FCPD;
#X text 275 400  library.;
#X obj 0 440 cnv 15 550 15 empty empty empty 20 12 0 14 #dcdcdc #404040 0;
