#N canvas 436 36 550 620 10;
#X obj 0 0 cnv 15 550 40 empty empty shape/isInside 3 12 0 18 #c4dcdc #000000 0;
#X obj 400 10 shape/isInside;
#X text 10 50 Checks whether a point is inside or outside the shape. \; isInside(App.Vector \,  float \,  Boolean) => Boolean \; The App.Vector is the point you want to check if it's inside or not \; float gives the tolerance \; Boolean indicates if the point lying directly on a face is considered to be inside or not  \;         ;
#X obj 0 170 cnv 3 550 3 empty empty inlets 8 12 0 13 #dcdcdc #000000 0;
#X obj 78 190 cnv 17 3 17 empty \$0-pddp.cnv.let.1 0 5 9 0 16 #dcdcdc #9c9c9c 0;
#X text 100 190 Shape;
#X obj 78 220 cnv 17 3 17 empty \$0-pddp.cnv.let.1 1 5 9 0 16 #dcdcdc #9c9c9c 0;
#X text 100 220 App.Vector;
#X obj 78 250 cnv 17 3 17 empty \$0-pddp.cnv.let.1 2 5 9 0 16 #dcdcdc #9c9c9c 0;
#X text 100 250  float;
#X obj 78 280 cnv 17 3 17 empty \$0-pddp.cnv.let.1 3 5 9 0 16 #dcdcdc #9c9c9c 0;
#X text 100 280  Boolean;
#X obj 0 310 cnv 3 550 3 empty empty outlets 8 12 0 13 #dcdcdc #000000 0;
#X obj 78 340 cnv 17 3 17 empty empty 0 5 9 0 16 #dcdcdc #9c9c9c 0;
#X text 100 340 Result of the operation;
#X obj 0 400 cnv 3 550 3 empty empty arguments 8 12 0 13 #dcdcdc #000000 0;
#X obj 0 460 cnv 3 550 3 empty empty more_info 8 12 0 13 #dcdcdc #000000 0;
#X text 10 480 This object is in the ;
#X obj 140 480  helplink shape;
#X text 175 480  part of the ;
#X obj 245 480  helplink FCPD;
#X text 275 480  library.;
#X obj 0 520 cnv 15 550 15 empty empty empty 20 12 0 14 #dcdcdc #404040 0;
