#N canvas 436 36 550 620 10;
#X obj 0 0 cnv 15 550 40 empty empty shape/isPartner 3 12 0 18 #c4dcdc #000000 0;
#X obj 400 10 shape/isPartner;
#X text 10 50 Checks if both shapes share the same geometry. \;         Placement and orientation may differ. \;         ;
#X obj 0 110 cnv 3 550 3 empty empty inlets 8 12 0 13 #dcdcdc #000000 0;
#X obj 78 130 cnv 17 3 17 empty \$0-pddp.cnv.let.1 0 5 9 0 16 #dcdcdc #9c9c9c 0;
#X text 100 130 Shape;
#X obj 0 160 cnv 3 550 3 empty empty outlets 8 12 0 13 #dcdcdc #000000 0;
#X obj 78 190 cnv 17 3 17 empty empty 0 5 9 0 16 #dcdcdc #9c9c9c 0;
#X text 100 190 Result of the operation;
#X obj 0 250 cnv 3 550 3 empty empty arguments 8 12 0 13 #dcdcdc #000000 0;
#X obj 0 310 cnv 3 550 3 empty empty more_info 8 12 0 13 #dcdcdc #000000 0;
#X text 10 330 This object is in the ;
#X obj 140 330  helplink shape;
#X text 175 330  part of the ;
#X obj 245 330  helplink FCPD;
#X text 275 330  library.;
#X obj 0 370 cnv 15 550 15 empty empty empty 20 12 0 14 #dcdcdc #404040 0;
