#N canvas 436 36 550 620 10;
#X obj 0 0 cnv 15 550 40 empty empty shape/limitTolerance 3 12 0 18 #c4dcdc #000000 0;
#X obj 400 10 shape/limitTolerance;
#X text 10 50  \;         limitTolerance(tmin \,  tmax=0 \,  ShapeType=Shape) \;  \;         Limits tolerances in a shape as follows : \;         tmin = tmax -> as fixTolerance (forces) \;         tmin = 0   -> maximum tolerance will be tmax \;         tmax = 0 or not given (more generally \,  tmax < tmin) -> \;         tmax ignored \,  minimum will be tmin \;         else \,  maximum will be max and minimum will be min \;         ShapeType = Vertex : only vertices are set \;         ShapeType = Edge   : only edges are set \;         ShapeType = Face   : only faces are set \;         ShapeType = Wire   : to have edges and their vertices set \;         ShapeType = other value : all (vertices \, edges \, faces) are set \;         Returns True if at least one tolerance of the sub-shape has \;         been modified \;         ;
#X obj 0 390 cnv 3 550 3 empty empty inlets 8 12 0 13 #dcdcdc #000000 0;
#X obj 78 410 cnv 17 3 17 empty \$0-pddp.cnv.let.1 0 5 9 0 16 #dcdcdc #9c9c9c 0;
#X text 100 410 Shape;
#X obj 78 440 cnv 17 3 17 empty \$0-pddp.cnv.let.1 1 5 9 0 16 #dcdcdc #9c9c9c 0;
#X text 100 440 tmin;
#X obj 78 470 cnv 17 3 17 empty \$0-pddp.cnv.let.1 2 5 9 0 16 #dcdcdc #9c9c9c 0;
#X text 100 470  tmax;
#X obj 78 500 cnv 17 3 17 empty \$0-pddp.cnv.let.1 3 5 9 0 16 #dcdcdc #9c9c9c 0;
#X text 100 500  ShapeType;
#X obj 0 530 cnv 3 550 3 empty empty outlets 8 12 0 13 #dcdcdc #000000 0;
#X obj 78 560 cnv 17 3 17 empty empty 0 5 9 0 16 #dcdcdc #9c9c9c 0;
#X text 100 560 Result of the operation;
#X obj 0 620 cnv 3 550 3 empty empty arguments 8 12 0 13 #dcdcdc #000000 0;
#X obj 0 680 cnv 3 550 3 empty empty more_info 8 12 0 13 #dcdcdc #000000 0;
#X text 10 700 This object is in the ;
#X obj 140 700  helplink shape;
#X text 175 700  part of the ;
#X obj 245 700  helplink FCPD;
#X text 275 700  library.;
#X obj 0 740 cnv 15 550 15 empty empty empty 20 12 0 14 #dcdcdc #404040 0;
