#N canvas 436 36 550 620 10;
#X obj 0 0 cnv 15 550 40 empty empty shape/makeThickness 3 12 0 18 #c4dcdc #000000 0;
#X obj 400 10 shape/makeThickness;
#X text 10 50 makeThickness(List of shapes \,  Offset (Float) \,  Tolerance (Float)) -> Shape \; A hollowed solid is built from an initial solid and a set of faces on this solid \,  \; which are to be removed. The remaining faces of the solid become the walls of \; the hollowed solid \,  their thickness defined at the time of construction.;
#X obj 0 130 cnv 3 550 3 empty empty inlets 8 12 0 13 #dcdcdc #000000 0;
#X obj 78 150 cnv 17 3 17 empty \$0-pddp.cnv.let.1 0 5 9 0 16 #dcdcdc #9c9c9c 0;
#X text 100 150 Shape;
#X obj 78 180 cnv 17 3 17 empty \$0-pddp.cnv.let.1 1 5 9 0 16 #dcdcdc #9c9c9c 0;
#X text 100 180 List of shapes;
#X obj 78 210 cnv 17 3 17 empty \$0-pddp.cnv.let.1 2 5 9 0 16 #dcdcdc #9c9c9c 0;
#X text 100 210  Offset (Float;
#X obj 0 240 cnv 3 550 3 empty empty outlets 8 12 0 13 #dcdcdc #000000 0;
#X obj 78 270 cnv 17 3 17 empty empty 0 5 9 0 16 #dcdcdc #9c9c9c 0;
#X text 100 270 Result of the operation;
#X obj 0 330 cnv 3 550 3 empty empty arguments 8 12 0 13 #dcdcdc #000000 0;
#X obj 0 390 cnv 3 550 3 empty empty more_info 8 12 0 13 #dcdcdc #000000 0;
#X text 10 410 This object is in the ;
#X obj 140 410  helplink shape;
#X text 175 410  part of the ;
#X obj 245 410  helplink FCPD;
#X text 275 410  library.;
#X obj 0 450 cnv 15 550 15 empty empty empty 20 12 0 14 #dcdcdc #404040 0;
