#N canvas 436 36 550 620 10;
#X obj 0 0 cnv 15 550 40 empty empty shape/makeOffsetShape 3 12 0 18 #c4dcdc #000000 0;
#X obj 400 10 shape/makeOffsetShape;
#X text 10 50 makeOffsetShape(offset \,  tolerance \,  inter = False \,  self_inter = False \,  \; offsetMode = 0 \,  join = 0 \,  fill = False): makes an offset shape (3d offsetting). \; The function supports keyword arguments. \;  \; * offset: distance to expand the shape by. Negative value will shrink the \; shape. \;  \; * tolerance: precision of approximation. \;  \; * inter: (parameter to OCC routine; not implemented) \;  \; * self_inter: (parameter to OCC routine; not implemented) \;  \; * offsetMode: 0 = skin; 1 = pipe; 2 = recto-verso \;  \; * join: method of offsetting non-tangent joints. 0 = arcs \,  1 = tangent \,  2 = \; intersection \;  \; * fill: if true \,  offsetting a shell is to yield a solid \;  \; Returns: result of offsetting.;
#X obj 0 470 cnv 3 550 3 empty empty inlets 8 12 0 13 #dcdcdc #000000 0;
#X obj 78 490 cnv 17 3 17 empty \$0-pddp.cnv.let.1 0 5 9 0 16 #dcdcdc #9c9c9c 0;
#X text 100 490 Shape;
#X obj 78 520 cnv 17 3 17 empty \$0-pddp.cnv.let.1 1 5 9 0 16 #dcdcdc #9c9c9c 0;
#X text 100 520 offset;
#X obj 78 550 cnv 17 3 17 empty \$0-pddp.cnv.let.1 2 5 9 0 16 #dcdcdc #9c9c9c 0;
#X text 100 550  tolerance;
#X obj 78 580 cnv 17 3 17 empty \$0-pddp.cnv.let.1 3 5 9 0 16 #dcdcdc #9c9c9c 0;
#X text 100 580  inter ;
#X obj 78 610 cnv 17 3 17 empty \$0-pddp.cnv.let.1 4 5 9 0 16 #dcdcdc #9c9c9c 0;
#X text 100 610  self_inter ;
#X obj 78 640 cnv 17 3 17 empty \$0-pddp.cnv.let.1 5 5 9 0 16 #dcdcdc #9c9c9c 0;
#X text 100 640 offsetMode ;
#X obj 78 670 cnv 17 3 17 empty \$0-pddp.cnv.let.1 6 5 9 0 16 #dcdcdc #9c9c9c 0;
#X text 100 670  join ;
#X obj 78 700 cnv 17 3 17 empty \$0-pddp.cnv.let.1 7 5 9 0 16 #dcdcdc #9c9c9c 0;
#X text 100 700  fill ;
#X obj 0 730 cnv 3 550 3 empty empty outlets 8 12 0 13 #dcdcdc #000000 0;
#X obj 78 760 cnv 17 3 17 empty empty 0 5 9 0 16 #dcdcdc #9c9c9c 0;
#X text 100 760 Result of the operation;
#X obj 0 820 cnv 3 550 3 empty empty arguments 8 12 0 13 #dcdcdc #000000 0;
#X obj 0 880 cnv 3 550 3 empty empty more_info 8 12 0 13 #dcdcdc #000000 0;
#X text 10 900 This object is in the ;
#X obj 140 900  helplink shape;
#X text 175 900  part of the ;
#X obj 245 900  helplink FCPD;
#X text 275 900  library.;
#X obj 0 940 cnv 15 550 15 empty empty empty 20 12 0 14 #dcdcdc #404040 0;
