#N canvas 436 36 550 620 10;
#X obj 0 0 cnv 15 550 40 empty empty shape/makeOffset2D 3 12 0 18 #c4dcdc #000000 0;
#X obj 400 10 shape/makeOffset2D;
#X text 10 50 makeOffset2D(offset \,  join = 0 \,  fill = False \,  openResult = false \,  intersection = \; false): makes an offset shape (2d offsetting). The function supports keyword \; arguments. Input shape (self) can be edge \,  wire \,  face \,  or a compound of those. \;  \; * offset: distance to expand the shape by. Negative value will shrink the \; shape. \;  \; * join: method of offsetting non-tangent joints. 0 = arcs \,  1 = tangent \,  2 = \; intersection \;  \; * fill: if true \,  the output is a face filling the space covered by offset. If \; false \,  the output is a wire. \;  \; * openResult: affects the way open wires are processed. If False \,  an open wire \; is made. If True \,  a closed wire is made from a double-sided offset \,  with rounds \; around open vertices. \;  \; * intersection: affects the way compounds are processed. If False \,  all children \; are offset independently. If True \,  and children are edges/wires \,  the children \; are offset in a collective manner. If compounding is nested \,  collectiveness \; does not spread across compounds (only direct children of a compound are taken \; collectively). \;  \; Returns: result of offsetting (wire or face or compound of those). Compounding \; structure follows that of source shape.;
#X obj 0 550 cnv 3 550 3 empty empty inlets 8 12 0 13 #dcdcdc #000000 0;
#X obj 78 570 cnv 17 3 17 empty \$0-pddp.cnv.let.1 0 5 9 0 16 #dcdcdc #9c9c9c 0;
#X text 100 570 Shape;
#X obj 78 600 cnv 17 3 17 empty \$0-pddp.cnv.let.1 1 5 9 0 16 #dcdcdc #9c9c9c 0;
#X text 100 600 offset;
#X obj 78 630 cnv 17 3 17 empty \$0-pddp.cnv.let.1 2 5 9 0 16 #dcdcdc #9c9c9c 0;
#X text 100 630  join ;
#X obj 78 660 cnv 17 3 17 empty \$0-pddp.cnv.let.1 3 5 9 0 16 #dcdcdc #9c9c9c 0;
#X text 100 660  fill ;
#X obj 78 690 cnv 17 3 17 empty \$0-pddp.cnv.let.1 4 5 9 0 16 #dcdcdc #9c9c9c 0;
#X text 100 690  openResult ;
#X obj 78 720 cnv 17 3 17 empty \$0-pddp.cnv.let.1 5 5 9 0 16 #dcdcdc #9c9c9c 0;
#X text 100 720  intersection ;
#X obj 0 750 cnv 3 550 3 empty empty outlets 8 12 0 13 #dcdcdc #000000 0;
#X obj 78 780 cnv 17 3 17 empty empty 0 5 9 0 16 #dcdcdc #9c9c9c 0;
#X text 100 780 Result of the operation;
#X obj 0 840 cnv 3 550 3 empty empty arguments 8 12 0 13 #dcdcdc #000000 0;
#X obj 0 900 cnv 3 550 3 empty empty more_info 8 12 0 13 #dcdcdc #000000 0;
#X text 10 920 This object is in the ;
#X obj 140 920  helplink shape;
#X text 175 920  part of the ;
#X obj 245 920  helplink FCPD;
#X text 275 920  library.;
#X obj 0 960 cnv 15 550 15 empty empty empty 20 12 0 14 #dcdcdc #404040 0;
