#N canvas 436 36 550 620 10;
#X obj 0 0 cnv 15 550 40 empty empty shape/makeWires 3 12 0 18 #c4dcdc #000000 0;
#X obj 400 10 shape/makeWires;
#X text 10 50  \; makeWires(op=None): make wire(s) using the edges of this shape \;  \; The function will sort any edges inside the current shape \,  and connect them \; into wire. If more than one wire is found \,  then it will make a compound out of \; all found wires. \;  \; This function is element mapping aware. If the input shape has non-zero Tag \,  \; it will map any edge and vertex element name inside the input shape into the \; itself. \;  \; op: an optional string to be appended when auto generates element mapping. \;         ;
#X obj 0 310 cnv 3 550 3 empty empty inlets 8 12 0 13 #dcdcdc #000000 0;
#X obj 78 330 cnv 17 3 17 empty \$0-pddp.cnv.let.1 0 5 9 0 16 #dcdcdc #9c9c9c 0;
#X text 100 330 Shape;
#X obj 78 360 cnv 17 3 17 empty \$0-pddp.cnv.let.1 1 5 9 0 16 #dcdcdc #9c9c9c 0;
#X text 100 360 op;
#X obj 0 390 cnv 3 550 3 empty empty outlets 8 12 0 13 #dcdcdc #000000 0;
#X obj 78 420 cnv 17 3 17 empty empty 0 5 9 0 16 #dcdcdc #9c9c9c 0;
#X text 100 420 Result of the operation;
#X obj 0 480 cnv 3 550 3 empty empty arguments 8 12 0 13 #dcdcdc #000000 0;
#X obj 0 540 cnv 3 550 3 empty empty more_info 8 12 0 13 #dcdcdc #000000 0;
#X text 10 560 This object is in the ;
#X obj 140 560  helplink shape;
#X text 175 560  part of the ;
#X obj 245 560  helplink FCPD;
#X text 275 560  library.;
#X obj 0 600 cnv 15 550 15 empty empty empty 20 12 0 14 #dcdcdc #404040 0;
