#N canvas 436 36 550 620 10;
#X obj 0 0 cnv 15 550 40 empty empty shape/multiFuse 3 12 0 18 #c4dcdc #000000 0;
#X obj 400 10 shape/multiFuse;
#X text 10 50 multiFuse((tool1 \, tool2 \, ...) \, [tolerance=0.0]) -> Shape \;  \; Union of this and a given list of topo shapes. \;  \; Supports (OCCT 6.9.0 and above): \; - Fuzzy Boolean operations (global tolerance for a Boolean operation) \; - Support of multiple arguments for a single Boolean operation \; - Parallelization of Boolean Operations algorithm \;  \; Beginning from OCCT 6.8.1 a tolerance value can be specified. \; Deprecated: use fuse() instead.;
#X obj 0 270 cnv 3 550 3 empty empty inlets 8 12 0 13 #dcdcdc #000000 0;
#X obj 78 290 cnv 17 3 17 empty \$0-pddp.cnv.let.1 0 5 9 0 16 #dcdcdc #9c9c9c 0;
#X text 100 290 Shape;
#X obj 78 320 cnv 17 3 17 empty \$0-pddp.cnv.let.1 1 5 9 0 16 #dcdcdc #9c9c9c 0;
#X text 100 320 (tool1;
#X obj 78 350 cnv 17 3 17 empty \$0-pddp.cnv.let.1 2 5 9 0 16 #dcdcdc #9c9c9c 0;
#X text 100 350 tool2;
#X obj 78 380 cnv 17 3 17 empty \$0-pddp.cnv.let.1 3 5 9 0 16 #dcdcdc #9c9c9c 0;
#X text 100 380 ...;
#X obj 0 410 cnv 3 550 3 empty empty outlets 8 12 0 13 #dcdcdc #000000 0;
#X obj 78 440 cnv 17 3 17 empty empty 0 5 9 0 16 #dcdcdc #9c9c9c 0;
#X text 100 440 Result of the operation;
#X obj 0 500 cnv 3 550 3 empty empty arguments 8 12 0 13 #dcdcdc #000000 0;
#X obj 0 560 cnv 3 550 3 empty empty more_info 8 12 0 13 #dcdcdc #000000 0;
#X text 10 580 This object is in the ;
#X obj 140 580  helplink shape;
#X text 175 580  part of the ;
#X obj 245 580  helplink FCPD;
#X text 275 580  library.;
#X obj 0 620 cnv 15 550 15 empty empty empty 20 12 0 14 #dcdcdc #404040 0;
