#N canvas 436 36 550 620 10;
#X obj 0 0 cnv 15 550 40 empty empty shape/overTolerance 3 12 0 18 #c4dcdc #000000 0;
#X obj 400 10 shape/overTolerance;
#X text 10 50  \;         overTolerance(value \,  ShapeType=Shape) -> float \;  \;         Determines which shapes have a tolerance over the given value \;         ShapeType is interpreted as in the method getTolerance \;         ;
#X obj 0 170 cnv 3 550 3 empty empty inlets 8 12 0 13 #dcdcdc #000000 0;
#X obj 78 190 cnv 17 3 17 empty \$0-pddp.cnv.let.1 0 5 9 0 16 #dcdcdc #9c9c9c 0;
#X text 100 190 Shape;
#X obj 78 220 cnv 17 3 17 empty \$0-pddp.cnv.let.1 1 5 9 0 16 #dcdcdc #9c9c9c 0;
#X text 100 220 value;
#X obj 78 250 cnv 17 3 17 empty \$0-pddp.cnv.let.1 2 5 9 0 16 #dcdcdc #9c9c9c 0;
#X text 100 250  ShapeType;
#X obj 0 280 cnv 3 550 3 empty empty outlets 8 12 0 13 #dcdcdc #000000 0;
#X obj 78 310 cnv 17 3 17 empty empty 0 5 9 0 16 #dcdcdc #9c9c9c 0;
#X text 100 310 Result of the operation;
#X obj 0 370 cnv 3 550 3 empty empty arguments 8 12 0 13 #dcdcdc #000000 0;
#X obj 0 430 cnv 3 550 3 empty empty more_info 8 12 0 13 #dcdcdc #000000 0;
#X text 10 450 This object is in the ;
#X obj 140 450  helplink shape;
#X text 175 450  part of the ;
#X obj 245 450  helplink FCPD;
#X text 275 450  library.;
#X obj 0 490 cnv 15 550 15 empty empty empty 20 12 0 14 #dcdcdc #404040 0;
