#N canvas 436 36 550 620 10;
#X obj 0 0 cnv 15 550 40 empty empty shape/replaceShape 3 12 0 18 #c4dcdc #000000 0;
#X obj 400 10 shape/replaceShape;
#X text 10 50 Replace a sub-shape with a new shape and return a new shape. \; The parameter is in the form list of tuples with the two shapes.;
#X obj 0 90 cnv 3 550 3 empty empty inlets 8 12 0 13 #dcdcdc #000000 0;
#X obj 78 110 cnv 17 3 17 empty \$0-pddp.cnv.let.1 0 5 9 0 16 #dcdcdc #9c9c9c 0;
#X text 100 110 Shape;
#X obj 0 140 cnv 3 550 3 empty empty outlets 8 12 0 13 #dcdcdc #000000 0;
#X obj 78 170 cnv 17 3 17 empty empty 0 5 9 0 16 #dcdcdc #9c9c9c 0;
#X text 100 170 Result of the operation;
#X obj 0 230 cnv 3 550 3 empty empty arguments 8 12 0 13 #dcdcdc #000000 0;
#X obj 0 290 cnv 3 550 3 empty empty more_info 8 12 0 13 #dcdcdc #000000 0;
#X text 10 310 This object is in the ;
#X obj 140 310  helplink shape;
#X text 175 310  part of the ;
#X obj 245 310  helplink FCPD;
#X text 275 310  library.;
#X obj 0 350 cnv 15 550 15 empty empty empty 20 12 0 14 #dcdcdc #404040 0;
