#N canvas 436 36 550 620 10;
#X obj 0 0 cnv 15 550 40 empty empty shape/section 3 12 0 18 #c4dcdc #000000 0;
#X obj 400 10 shape/section;
#X text 10 50 Section of this with a given (list of) topo shape. \; section(tool \, [approximation=False]) -> Shape \;   or \; section((tool1 \, tool2 \, ...) \, [tolerance=0.0 \,  approximation=False]) -> Shape \;  \; If approximation is True \,  section edges are approximated to a C1-continuous BSpline curve. \;  \; Section of this and a given list of topo shapes. \;  \; Supports: \; - Fuzzy Boolean operations (global tolerance for a Boolean operation) \; - Support of multiple arguments for a single Boolean operation (s1 AND (s2 OR s3)) \; - Parallelization of Boolean Operations algorithm \;  \; OCC 6.9.0 or later is required.;
#X obj 0 350 cnv 3 550 3 empty empty inlets 8 12 0 13 #dcdcdc #000000 0;
#X obj 78 370 cnv 17 3 17 empty \$0-pddp.cnv.let.1 0 5 9 0 16 #dcdcdc #9c9c9c 0;
#X text 100 370 Shape;
#X obj 78 400 cnv 17 3 17 empty \$0-pddp.cnv.let.1 1 5 9 0 16 #dcdcdc #9c9c9c 0;
#X text 100 400 list of;
#X obj 0 430 cnv 3 550 3 empty empty outlets 8 12 0 13 #dcdcdc #000000 0;
#X obj 78 460 cnv 17 3 17 empty empty 0 5 9 0 16 #dcdcdc #9c9c9c 0;
#X text 100 460 Result of the operation;
#X obj 0 520 cnv 3 550 3 empty empty arguments 8 12 0 13 #dcdcdc #000000 0;
#X obj 0 580 cnv 3 550 3 empty empty more_info 8 12 0 13 #dcdcdc #000000 0;
#X text 10 600 This object is in the ;
#X obj 140 600  helplink shape;
#X text 175 600  part of the ;
#X obj 245 600  helplink FCPD;
#X text 275 600  library.;
#X obj 0 640 cnv 15 550 15 empty empty empty 20 12 0 14 #dcdcdc #404040 0;
