#N canvas 436 36 550 620 10;
#X obj 0 0 cnv 15 550 40 empty empty shape/toNurbs 3 12 0 18 #c4dcdc #000000 0;
#X obj 400 10 shape/toNurbs;
#X text 10 50 Conversion of the complete geometry of a shape into NURBS geometry. \; For example \,  all curves supporting edges of the basis shape are converted \; into B-spline curves \,  and all surfaces supporting its faces are converted \; into B-spline surfaces.;
#X obj 0 130 cnv 3 550 3 empty empty inlets 8 12 0 13 #dcdcdc #000000 0;
#X obj 78 150 cnv 17 3 17 empty \$0-pddp.cnv.let.1 0 5 9 0 16 #dcdcdc #9c9c9c 0;
#X text 100 150 Shape;
#X obj 0 180 cnv 3 550 3 empty empty outlets 8 12 0 13 #dcdcdc #000000 0;
#X obj 78 210 cnv 17 3 17 empty empty 0 5 9 0 16 #dcdcdc #9c9c9c 0;
#X text 100 210 Result of the operation;
#X obj 0 270 cnv 3 550 3 empty empty arguments 8 12 0 13 #dcdcdc #000000 0;
#X obj 0 330 cnv 3 550 3 empty empty more_info 8 12 0 13 #dcdcdc #000000 0;
#X text 10 350 This object is in the ;
#X obj 140 350  helplink shape;
#X text 175 350  part of the ;
#X obj 245 350  helplink FCPD;
#X text 275 350  library.;
#X obj 0 390 cnv 15 550 15 empty empty empty 20 12 0 14 #dcdcdc #404040 0;
