#N canvas 436 36 550 620 10;
#X obj 0 0 cnv 15 550 40 empty empty shape/transformGeometry 3 12 0 18 #c4dcdc #000000 0;
#X obj 400 10 shape/transformGeometry;
#X text 10 50 Apply geometric transformation on this or a copy the shape. \; This method returns a new shape. \; The transformation to be applied is defined as a 4x4 matrix. \; The underlying geometry of the following shapes may change: \; - a curve which supports an edge of the shape \,  or \; - a surface which supports a face of the shape; \;  \; For example \,  a circle may be transformed into an ellipse when \; applying an affinity transformation. It may also happen that \; the circle then is represented as a B-spline curve. \;  \; The transformation is applied to: \; - all the curves which support edges of the shape \,  and \; - all the surfaces which support faces of the shape. \;  \; Note: If you want to transform a shape without changing the \; underlying geometry then use the methods translate or rotate. \;  \; transformGeometry(Matrix) -> Shape \; ;
#X obj 0 450 cnv 3 550 3 empty empty inlets 8 12 0 13 #dcdcdc #000000 0;
#X obj 78 470 cnv 17 3 17 empty \$0-pddp.cnv.let.1 0 5 9 0 16 #dcdcdc #9c9c9c 0;
#X text 100 470 Shape;
#X obj 78 500 cnv 17 3 17 empty \$0-pddp.cnv.let.1 1 5 9 0 16 #dcdcdc #9c9c9c 0;
#X text 100 500 Matrix;
#X obj 0 530 cnv 3 550 3 empty empty outlets 8 12 0 13 #dcdcdc #000000 0;
#X obj 78 560 cnv 17 3 17 empty empty 0 5 9 0 16 #dcdcdc #9c9c9c 0;
#X text 100 560 Result of the operation;
#X obj 0 620 cnv 3 550 3 empty empty arguments 8 12 0 13 #dcdcdc #000000 0;
#X obj 0 680 cnv 3 550 3 empty empty more_info 8 12 0 13 #dcdcdc #000000 0;
#X text 10 700 This object is in the ;
#X obj 140 700  helplink shape;
#X text 175 700  part of the ;
#X obj 245 700  helplink FCPD;
#X text 275 700  library.;
#X obj 0 740 cnv 15 550 15 empty empty empty 20 12 0 14 #dcdcdc #404040 0;
