#N canvas 436 36 550 620 10;
#X obj 0 0 cnv 15 550 40 empty empty shape/transformed 3 12 0 18 #c4dcdc #000000 0;
#X obj 400 10 shape/transformed;
#X text 10 50  \; transformed(Matrix \, copy=False \, checkScale=False \, op=None) -> shape \;  \; Create a new transformed shape \;         ;
#X obj 0 150 cnv 3 550 3 empty empty inlets 8 12 0 13 #dcdcdc #000000 0;
#X obj 78 170 cnv 17 3 17 empty \$0-pddp.cnv.let.1 0 5 9 0 16 #dcdcdc #9c9c9c 0;
#X text 100 170 Shape;
#X obj 78 200 cnv 17 3 17 empty \$0-pddp.cnv.let.1 1 5 9 0 16 #dcdcdc #9c9c9c 0;
#X text 100 200 Matrix;
#X obj 78 230 cnv 17 3 17 empty \$0-pddp.cnv.let.1 2 5 9 0 16 #dcdcdc #9c9c9c 0;
#X text 100 230 copy;
#X obj 78 260 cnv 17 3 17 empty \$0-pddp.cnv.let.1 3 5 9 0 16 #dcdcdc #9c9c9c 0;
#X text 100 260 checkScale;
#X obj 78 290 cnv 17 3 17 empty \$0-pddp.cnv.let.1 4 5 9 0 16 #dcdcdc #9c9c9c 0;
#X text 100 290 op;
#X obj 0 320 cnv 3 550 3 empty empty outlets 8 12 0 13 #dcdcdc #000000 0;
#X obj 78 350 cnv 17 3 17 empty empty 0 5 9 0 16 #dcdcdc #9c9c9c 0;
#X text 100 350 Result of the operation;
#X obj 0 410 cnv 3 550 3 empty empty arguments 8 12 0 13 #dcdcdc #000000 0;
#X obj 0 470 cnv 3 550 3 empty empty more_info 8 12 0 13 #dcdcdc #000000 0;
#X text 10 490 This object is in the ;
#X obj 140 490  helplink shape;
#X text 175 490  part of the ;
#X obj 245 490  helplink FCPD;
#X text 275 490  library.;
#X obj 0 530 cnv 15 550 15 empty empty empty 20 12 0 14 #dcdcdc #404040 0;
