#N canvas 750 350 500 500 12;#X text 10 10 base_object;
#X obj 10 30 inlet;
#X obj 10 60 t a b b b b b b b ;
#X text 100 10 r_distance;
#X obj 100 30 inlet;
#X obj 100 90 any;
#X obj 100 120 list append;
#X text 200 10 tan_distance;
#X obj 200 30 inlet;
#X obj 200 120 any;
#X obj 200 150 list append;
#X text 300 10 number;
#X obj 300 30 inlet;
#X obj 300 150 any;
#X obj 300 180 list append;
#X text 400 10 symmetry;
#X obj 400 30 inlet;
#X obj 400 180 any;
#X obj 400 210 list append;
#X text 500 10 axis;
#X obj 500 30 inlet;
#X obj 500 210 any;
#X obj 500 240 list append;
#X text 600 10 center;
#X obj 600 30 inlet;
#X obj 600 240 any;
#X obj 600 270 list append;
#X text 700 10 use_link;
#X obj 700 30 inlet;
#X obj 700 270 any;
#X obj 700 300 list append;
#X obj 10 300 list prepend Draft make_circular_array;
#X obj 10 330 fc_process 1;
#X obj 10 360 route ERROR;
#X obj 10 390 print FreeCAD Error;
#X obj 120 390 outlet;
#X connect 1 0 2 0;
#X connect 2 1 5 0;
#X connect 4 0 5 1;
#X connect 5 0 6 1;
#X connect 2 0 6 0;
#X connect 2 2 9 0;
#X connect 8 0 9 1;
#X connect 9 0 10 1;
#X connect 6 0 10 0;
#X connect 2 3 13 0;
#X connect 12 0 13 1;
#X connect 13 0 14 1;
#X connect 10 0 14 0;
#X connect 2 4 17 0;
#X connect 16 0 17 1;
#X connect 17 0 18 1;
#X connect 14 0 18 0;
#X connect 2 5 21 0;
#X connect 20 0 21 1;
#X connect 21 0 22 1;
#X connect 18 0 22 0;
#X connect 2 6 25 0;
#X connect 24 0 25 1;
#X connect 25 0 26 1;
#X connect 22 0 26 0;
#X connect 2 7 29 0;
#X connect 28 0 29 1;
#X connect 29 0 30 1;
#X connect 26 0 30 0;
#X connect 30 0 31 0;
#X connect 31 0 32 0;
#X connect 32 0 33 0;
#X connect 33 0 34 0;
#X connect 33 1 35 0;
