#N canvas 750 350 500 500 12;#X text 10 10 base_object;
#X obj 10 30 inlet;
#X obj 10 60 t a b b b b b b b b b b ;
#X text 100 10 path_object;
#X obj 100 30 inlet;
#X obj 100 90 any;
#X obj 100 120 list append;
#X text 200 10 count;
#X obj 200 30 inlet;
#X obj 200 120 any;
#X obj 200 150 list append;
#X text 300 10 extra;
#X obj 300 30 inlet;
#X obj 300 150 any;
#X obj 300 180 list append;
#X text 400 10 subelements;
#X obj 400 30 inlet;
#X obj 400 180 any;
#X obj 400 210 list append;
#X text 500 10 align;
#X obj 500 30 inlet;
#X obj 500 210 any;
#X obj 500 240 list append;
#X text 600 10 align_mode;
#X obj 600 30 inlet;
#X obj 600 240 any;
#X obj 600 270 list append;
#X text 700 10 tan_vector;
#X obj 700 30 inlet;
#X obj 700 270 any;
#X obj 700 300 list append;
#X text 800 10 force_vertical;
#X obj 800 30 inlet;
#X obj 800 300 any;
#X obj 800 330 list append;
#X text 900 10 vertical_vector;
#X obj 900 30 inlet;
#X obj 900 330 any;
#X obj 900 360 list append;
#X text 1000 10 use_link;
#X obj 1000 30 inlet;
#X obj 1000 360 any;
#X obj 1000 390 list append;
#X obj 10 300 list prepend Draft path_array;
#X obj 10 330 fc_process 1;
#X obj 10 360 route ERROR;
#X obj 10 390 print FreeCAD Error;
#X obj 120 390 outlet;
#X connect 1 0 2 0;
#X connect 2 1 5 0;
#X connect 4 0 5 1;
#X connect 5 0 6 1;
#X connect 2 0 6 0;
#X connect 2 2 9 0;
#X connect 8 0 9 1;
#X connect 9 0 10 1;
#X connect 6 0 10 0;
#X connect 2 3 13 0;
#X connect 12 0 13 1;
#X connect 13 0 14 1;
#X connect 10 0 14 0;
#X connect 2 4 17 0;
#X connect 16 0 17 1;
#X connect 17 0 18 1;
#X connect 14 0 18 0;
#X connect 2 5 21 0;
#X connect 20 0 21 1;
#X connect 21 0 22 1;
#X connect 18 0 22 0;
#X connect 2 6 25 0;
#X connect 24 0 25 1;
#X connect 25 0 26 1;
#X connect 22 0 26 0;
#X connect 2 7 29 0;
#X connect 28 0 29 1;
#X connect 29 0 30 1;
#X connect 26 0 30 0;
#X connect 2 8 33 0;
#X connect 32 0 33 1;
#X connect 33 0 34 1;
#X connect 30 0 34 0;
#X connect 2 9 37 0;
#X connect 36 0 37 1;
#X connect 37 0 38 1;
#X connect 34 0 38 0;
#X connect 2 10 41 0;
#X connect 40 0 41 1;
#X connect 41 0 42 1;
#X connect 38 0 42 0;
#X connect 42 0 43 0;
#X connect 43 0 44 0;
#X connect 44 0 45 0;
#X connect 45 0 46 0;
#X connect 45 1 47 0;
