#N canvas 861 164 734 537 12;
#X obj 130 100 list;
#X obj 190 100 list;
#X obj 130 10 inlet;
#X obj 130 490 outlet;
#X msg 190 420 \$1 \$2 \$3;
#X obj 130 40 t a a a;
#X obj 190 220 list;
#X obj 250 220 list;
#X obj 190 130 t a a a;
#X obj 190 390 list trim;
#X obj 190 160 list trim;
#X obj 310 360 list;
#X obj 370 360 list;
#X obj 310 270 t a a a;
#X obj 310 300 list trim;
#X obj 130 70 isList;
#X obj 190 190 isVector;
#X obj 310 330 isRotation;
#X obj 190 450 fcList;
#X connect 0 0 3 0;
#X connect 1 0 8 0;
#X connect 2 0 5 0;
#X connect 4 0 18 0;
#X connect 5 0 15 0;
#X connect 5 1 0 1;
#X connect 5 2 1 1;
#X connect 6 0 9 0;
#X connect 7 0 13 0;
#X connect 8 0 10 0;
#X connect 8 1 6 1;
#X connect 8 2 7 1;
#X connect 9 0 4 0;
#X connect 10 0 16 0;
#X connect 11 0 9 0;
#X connect 12 0 18 0;
#X connect 13 0 14 0;
#X connect 13 1 11 1;
#X connect 13 2 12 1;
#X connect 14 0 17 0;
#X connect 15 0 0 0;
#X connect 15 1 1 0;
#X connect 16 0 6 0;
#X connect 16 1 7 0;
#X connect 17 0 11 0;
#X connect 17 1 12 0;
#X connect 18 0 3 0;
