#N canvas 590 380 450 300 12;
#X obj 110 10 inlet;
#X obj 10 100 fc_process;
#X obj 70 160 outlet;
#X obj 10 10 inlet;
#X obj 10 130 t b a;
#X obj 10 160 outlet;
#X msg 10 40 list bylabel;
#X obj 10 70 list append \$1;
#X connect 0 0 7 1;
#X connect 1 0 4 0;
#X connect 3 0 6 0;
#X connect 4 0 5 0;
#X connect 4 1 2 0;
#X connect 6 0 7 0;
#X connect 7 0 1 0;
