#N canvas 659 302 357 415 12;
#X obj 90 30 inlet;
#X obj 10 180 fc_process;
#X obj 80 240 outlet;
#X obj 10 140 list append \$1;
#X obj 10 30 inlet;
#X obj 10 210 t b a;
#X obj 10 240 outlet;
#X text 10 10 go;
#X text 90 10 object;
#X text 10 260 done;
#X text 80 260 new object;
#X msg 10 70 list copy;
#X obj 10 110 list append;
#X text 130 140 copy dependencies;
#X text -170 0 Autogen GUI >>>;
#X obj -170 30 cnv 2 10 2 empty empty empty 20 12 0 14 #000000 #404040;
#X obj -170 32 cnv 10 75 10 empty empty go 5 6 0 8 #000000 #ffffff;
#X obj -20 30 cnv 2 10 2 empty empty empty 20 12 0 14 #000000 #404040;
#X obj -85 32 cnv 10 75 10 empty empty object 5 6 0 8 #000000 #ffffff;
#X obj -114 45 cnv 6 10 15 empty empty fc_copy 5 8 0 12 #ffffff #000000;
#X obj -165 65 cnv 1 150 20 empty \$0-argsdisplay empty 10 14 0 12 #e0e0e0 #404040;
#X obj -165 65 cnv 1 1 1 empty empty args: 0 6 0 8 #e0e0e0 #404040;
#X obj -170 115 loadbang ;
#X msg -170 145 args;
#X obj -170 175 pdcontrol ;
#X obj -170 205 l2s ;
#X msg -170 235 label \$1;
#X obj -170 265 s \$0-argsdisplay ;
#X obj -170 103 cnv 2 10 2 empty empty empty 20 12 0 14 #000000 #404040;
#X obj -170 93 cnv 10 75 10 empty empty done 5 6 0 8 #000000 #ffffff;
#X obj -20 103 cnv 2 10 2 empty empty empty 20 12 0 14 #000000 #404040;
#X obj -85 93 cnv 10 75 10 empty empty new\ object 5 6 0 8 #000000 #ffffff;
#X text -170 295 <<< Autogen GUI;
#X connect 4 0 11 0;
#X connect 11 0 12 0;
#X connect 1 0 5 0;
#X connect 5 0 6 0;
#X connect 12 0 3 0;
#X connect 3 0 1 0;
#X connect 5 1 2 0;
#X connect 0 0 12 1;
#X connect 22 0 23 0;
#X connect 23 0 24 0;
#X connect 24 0 25 0;
#X connect 25 0 26 0;
#X connect 26 0 27 0;
#X coords 0 0 1 1 160 75 2 -170 30;
