#N struct draw-image-struct float x float y float w float h;
#N canvas 662 417 606 400 12;
#X obj 80 10 inlet;
#X obj 10 130 fc_process;
#X obj 80 190 outlet;
#X scalar draw-image-struct 120 70 0 0 \;;
#X obj 80 40 list prepend copy;
#X obj 80 71 list append \$1;
#X obj 10 10 inlet;
#X obj 10 100 list;
#X obj 10 160 t b a;
#X obj 10 190 outlet;
#X connect 0 0 4 0;
#X connect 1 0 8 0;
#X connect 4 0 5 0;
#X connect 5 0 7 1;
#X connect 6 0 7 0;
#X connect 7 0 1 0;
#X connect 8 0 9 0;
#X connect 8 1 2 0;
#X coords 0 0 1 1 53 48 0;
