#N struct draw-image-struct float x float y float w float h;
#N canvas 659 302 357 415 12;
#X obj 90 30 inlet;
#X obj 10 180 fc_process;
#X obj 80 240 outlet;
#X scalar draw-image-struct 120 90 0 0 \;;
#X obj 10 140 list append \$1;
#X obj 10 30 inlet;
#X obj 10 210 t b a;
#X obj 10 240 outlet;
#X text 10 10 go;
#X text 90 10 object;
#X text 10 260 done;
#X text 80 260 new object;
#X msg 10 70 list copy;
#X obj 10 110 list append;
#X text 130 140 copy dependencies;
#X connect 0 0 13 1;
#X connect 1 0 6 0;
#X connect 4 0 1 0;
#X connect 5 0 12 0;
#X connect 6 0 7 0;
#X connect 6 1 2 0;
#X connect 12 0 13 0;
#X connect 13 0 4 0;
#X coords 0 0 1 1 53 48 0;
