#N canvas 59 69 1418 889 12;
#X obj 1290 340 cnv 15 107 161 empty empty empty 20 12 0 14 #e0e0e0
#404040 0;
#X obj 1230 230 cnv 15 165 95 empty empty System\\\ message 20 12 0
14 #e0e0e0 #404040 0;
#X obj 264 253 cnv 15 154 57 empty empty empty 20 12 0 14 #84dcff #404040
0;
#X obj 419 253 cnv 15 182 57 empty empty empty 20 12 0 14 #fffdbb #404040
0;
#X obj 665 636 cnv 15 268 150 empty empty process\\\ time\\\ calculator
20 12 0 14 #e0e0e0 #404040 0;
#X obj 16 16 cnv 15 476 198 empty empty Auto-connect 20 12 0 14 #e0e0e0
#404040 0;
#X obj 440 480 cnv 15 189 170 empty empty Close\\\ message 20 12 0
14 #e0e0e0 #404040 0;
#X obj 18 375 cnv 15 407 299 empty empty Initial\\\ messages 20 12
0 14 #e0e0e0 #404040 0;
#X obj 644 275 cnv 15 551 261 empty empty Wait\\\ for\\\ callback\\\ (synchronize\\\ FC\\\ and\\\ PD)
20 12 0 14 #e0e0e0 #404040 0;
#X obj 790 130 cnv 15 217 101 empty empty Incoming\\\ message 20 12
0 14 #e0e0e0 #404040 0;
#X obj 1140 40 cnv 15 240 150 empty empty Callback 20 12 0 14 #e0e0e0
#404040 0;
#X obj 440 710 netsend;
#X obj 284 260 tgl 20 0 empty empty Connect 22 10 0 10 #fcfcfc #00a008
#000000 0 1;
#X msg 264 503 connect \$1 \$2;
#X msg 460 550 send close \, disconnect;
#X obj 306 326 select 1;
#X obj 386 347 bng 15 250 50 0 empty empty empty 17 7 0 10 #fcfcfc
#000000 #000000;
#X obj 264 472 list append \$1 \$2;
#X obj 285 289 bng 20 250 50 0 initrcv empty Activity 22 10 0 10 #fcfcfc
#ff0000 #000000;
#X obj 282 93 select 1;
#X obj 282 30 loadbang;
#X obj 281 125 metro 1000;
#X obj 281 159 1;
#X text 157 124 retry every sec;
#X text 126 60 autoconnect argument;
#X obj 334 161 != 1;
#X text 65 471 retrieve subpath arguments;
#X obj 282 59 \$4;
#X obj 262 529 trigger bang anything;
#X obj 833 158 receive fc_input;
#X obj 1210 160 send fc_output;
#X obj 262 566 list append \$3;
#X msg 283 621 send initrcv \$1;
#X obj 1160 70 netreceive \$3;
#X obj 281 189 spigot 1;
#X text 63 591 initial message to inform about callback port;
#X obj 330 392 != 1;
#X obj 277 420 spigot 1;
#X obj 533 197 bang;
#X text 64 502 Connect message;
#X text 490 740 open/close doors;
#X msg 129 268 set \$1;
#X obj 440 740 t f f;
#X floatatom 366 761 5 0 0 0 - - - 0;
#X obj 283 649 t b a;
#X text 220 761 connection status;
#X text 44 175 door closed if already connected;
#X obj 755 478 list-fifo;
#X text 30 401 door closed if already connected;
#X obj 1039 392 1;
#X obj 1007 361 t b b;
#X obj 856 450 spigot 1;
#X obj 867 391 0;
#X obj 831 360 t b b a;
#X text 987 329 open the door and drop next;
#X floatatom 909 424 5 0 0 0 - - - 0;
#X obj 693 380 loadbang;
#X obj 755 507 list trim;
#X obj 738 667 timer;
#X floatatom 491 291 5 0 0 0 average - - 0;
#X text 814 298 store \; drop next if door open \; close door;
#X floatatom 491 272 5 0 0 0 instant - - 0;
#X text 443 252 process time (ms);
#X obj 850 760 max;
#X floatatom 884 760 5 0 0 0 - - - 0;
#X floatatom 536 272 5 0 0 1 max - - 0;
#X obj 536 293 bng 15 250 50 0 empty empty reset 17 7 0 10 #fcfcfc
#000000 #000000;
#X msg 850 730 0 0;
#X obj 460 380 outlet;
#X msg 1240 290 0;
#X text 530 170 activity bang;
#X obj 1160 130 route 0;
#X obj 1160 100 t a b;
#X text 62 221 Change switch \; to follow connection status;
#X obj 833 201 list prepend send;
#X obj 480 510 closebang;
#X obj 693 406 metro 1000;
#X text 694 357 1sec timeout;
#X obj 1300 350 list split 1;
#X obj 1300 411 list;
#X obj 1300 381 t b a, f 8;
#X obj 1300 471 send;
#X obj 1300 441 list trim;
#X obj 1240 260 route close;
#X obj 738 710 else/avg 50;
#X obj 834 669 init reset 5;
#X connect 11 0 42 0;
#X connect 11 0 43 0;
#X connect 12 0 15 0;
#X connect 12 0 38 0;
#X connect 13 0 28 0;
#X connect 14 0 11 0;
#X connect 15 0 37 0;
#X connect 15 1 16 0;
#X connect 16 0 14 0;
#X connect 17 0 13 0;
#X connect 19 0 21 0;
#X connect 20 0 27 0;
#X connect 21 0 22 0;
#X connect 22 0 34 0;
#X connect 25 0 34 1;
#X connect 27 0 19 0;
#X connect 28 0 31 0;
#X connect 28 1 11 0;
#X connect 29 0 74 0;
#X connect 29 0 11 0;
#X connect 31 0 32 0;
#X connect 32 0 44 0;
#X connect 33 0 38 0;
#X connect 33 0 72 0;
#X connect 34 0 12 0;
#X connect 36 0 37 1;
#X connect 37 0 17 0;
#X connect 38 0 18 0;
#X connect 41 0 12 0;
#X connect 42 0 36 0;
#X connect 42 1 25 0;
#X connect 43 0 41 0;
#X connect 44 0 43 0;
#X connect 44 1 11 0;
#X connect 47 0 38 0;
#X connect 47 0 57 0;
#X connect 49 0 55 0;
#X connect 50 0 47 0;
#X connect 50 0 58 1;
#X connect 50 1 49 0;
#X connect 51 0 47 0;
#X connect 51 0 58 0;
#X connect 52 0 55 0;
#X connect 53 0 52 0;
#X connect 53 1 51 0;
#X connect 53 2 47 1;
#X connect 55 0 51 1;
#X connect 56 0 76 0;
#X connect 58 0 61 0;
#X connect 58 0 63 0;
#X connect 58 0 84 0;
#X connect 63 0 64 0;
#X connect 63 0 65 0;
#X connect 64 0 63 1;
#X connect 65 0 68 0;
#X connect 66 0 67 0;
#X connect 66 0 85 0;
#X connect 67 0 63 0;
#X connect 69 0 12 0;
#X connect 71 0 83 0;
#X connect 71 1 30 0;
#X connect 72 0 71 0;
#X connect 74 0 53 0;
#X connect 75 0 14 0;
#X connect 78 0 80 0;
#X connect 78 1 79 1;
#X connect 79 0 82 0;
#X connect 80 0 79 0;
#X connect 80 1 81 1;
#X connect 82 0 81 0;
#X connect 83 0 69 0;
#X connect 83 1 78 0;
#X connect 84 0 59 0;
#X connect 85 0 84 0;
#X coords 0 -1 1 1 339 80 1 263 231;
