#N struct draw-image-struct float x float y float w float h;
#N canvas 769 396 450 300 12;
#X obj 110 20 inlet;
#X obj 110 50 list prepend delete;
#X obj 20 140 fc_process 1;
#X scalar draw-image-struct 130 80 0 0 \;;
#X obj 20 20 inlet;
#X obj 20 110 list;
#X obj 20 200 outlet;
#X obj 20 170 b;
#X connect 0 0 1 0;
#X connect 1 0 5 1;
#X connect 2 0 7 0;
#X connect 4 0 5 0;
#X connect 5 0 2 0;
#X connect 7 0 6 0;
