#N canvas 774 397 450 300 12;
#X obj 110 20 inlet;
#X obj 110 50 list prepend delete;
#X obj 20 140 fc_process 1;
#X obj 20 20 inlet;
#X obj 20 110 list;
#X obj 20 200 outlet;
#X obj 20 170 b;
#X obj 20 50 b;
#X text 20 0 go;
#X text 20 220 done;
#X text 110 0 object;
#X text -160 -10 Autogen GUI >>>;
#X obj -160 20 cnv 2 10 2 empty empty empty 20 12 0 14 #000000 #404040;
#X obj -160 22 cnv 10 75 10 empty empty go 5 6 0 8 #000000 #ffffff;
#X obj -10 20 cnv 2 10 2 empty empty empty 20 12 0 14 #000000 #404040;
#X obj -75 22 cnv 10 75 10 empty empty object 5 6 0 8 #000000 #ffffff;
#X obj -111 35 cnv 6 10 15 empty empty fc_delete 5 8 0 12 #ffffff #000000;
#X obj -160 63 cnv 2 10 2 empty empty empty 20 12 0 14 #000000 #404040;
#X obj -160 53 cnv 10 75 10 empty empty done 5 6 0 8 #000000 #ffffff;
#X text -160 95 <<< Autogen GUI;
#X connect 7 0 4 0;
#X connect 1 0 4 1;
#X connect 4 0 2 0;
#X connect 2 0 6 0;
#X connect 6 0 5 0;
#X connect 0 0 1 0;
#X connect 3 0 7 0;
#X coords 0 0 1 1 160 45 2 -160 20;
