#N canvas 585 379 450 300 12;
#X obj 70 40 inlet;
#X obj 151 40 inlet;
#X obj 80 220 outlet;
#X obj 10 160 fc_process;
#X text 70 20 Sketch;
#X text 150 20 Constraint;
#X obj 70 70 list append \$1;
#X obj 70 100 list prepend get constraint;
#X obj 10 40 inlet;
#X obj 10 130 list;
#X obj 10 190 t b a;
#X obj 10 220 outlet;
#X text 10 20 go;
#X text 10 240 done;
#X text 83 243 value;
#X text -245 10 Autogen GUI >>>;
#X obj -245 40 cnv 2 10 2 empty empty empty 20 12 0 14 #000000 #404040;
#X obj -245 42 cnv 10 75 10 empty empty go 5 6 0 8 #000000 #ffffff;
#X obj -132 40 cnv 2 10 2 empty empty empty 20 12 0 14 #000000 #404040;
#X obj -165 42 cnv 10 75 10 empty empty Sketch 5 6 0 8 #000000 #ffffff;
#X obj -20 40 cnv 2 10 2 empty empty empty 20 12 0 14 #000000 #404040;
#X obj -85 42 cnv 10 75 10 empty empty Constraint 5 6 0 8 #000000 #ffffff;
#X obj -204 55 cnv 6 10 15 empty empty fc_getSketchConstraint 5 8 0 12 #ffffff #000000;
#X obj -240 75 cnv 1 225 20 empty \$0-argsdisplay empty 10 14 0 12 #e0e0e0 #404040;
#X obj -240 75 cnv 1 1 1 empty empty args: 0 6 0 8 #e0e0e0 #404040;
#X obj -245 125 loadbang ;
#X msg -245 155 args;
#X obj -245 185 pdcontrol ;
#X obj -245 215 l2s ;
#X msg -245 245 label \$1;
#X obj -245 275 s \$0-argsdisplay ;
#X obj -245 113 cnv 2 10 2 empty empty empty 20 12 0 14 #000000 #404040;
#X obj -245 103 cnv 10 75 10 empty empty done 5 6 0 8 #000000 #ffffff;
#X obj -20 113 cnv 2 10 2 empty empty empty 20 12 0 14 #000000 #404040;
#X obj -85 103 cnv 10 75 10 empty empty value 5 6 0 8 #000000 #ffffff;
#X text -245 305 <<< Autogen GUI;
#X connect 3 0 10 0;
#X connect 8 0 9 0;
#X connect 0 0 6 0;
#X connect 10 1 2 0;
#X connect 6 0 7 0;
#X connect 9 0 3 0;
#X connect 1 0 6 1;
#X connect 7 0 9 1;
#X connect 10 0 11 0;
#X connect 25 0 26 0;
#X connect 26 0 27 0;
#X connect 27 0 28 0;
#X connect 28 0 29 0;
#X connect 29 0 30 0;
#X coords 0 0 1 1 235 75 2 -245 40;
