#N canvas 290 229 649 571 12;
#X obj 110 30 inlet;
#X obj 205 30 inlet;
#X obj 220 380 outlet;
#X obj 10 290 fc_process;
#X obj 110 120 list trim;
#X obj 110 60 list append \$1;
#X obj 110 90 list prepend get property;
#X obj 10 320 route ERROR;
#X obj 10 370 print FreeCAD Error;
#X text 110 10 Object;
#X text 204 10 Property;
#X obj 130 180 list length;
#X obj 130 210 == 4;
#X obj 10 260 spigot;
#X obj 110 149 t a a;
#X obj 10 30 inlet;
#X obj 10 230 list;
#X obj 160 350 t b a;
#X obj 160 380 outlet;
#X text 10 10 go;
#X text 160 400 done;
#X text 226 403 value;
#X text -245 0 Autogen GUI >>>;
#X obj -245 30 cnv 2 10 2 empty empty empty 20 12 0 14 #000000 #404040;
#X obj -245 32 cnv 10 75 10 empty empty go 5 6 0 8 #000000 #ffffff;
#X obj -132 30 cnv 2 10 2 empty empty empty 20 12 0 14 #000000 #404040;
#X obj -165 32 cnv 10 75 10 empty empty Object 5 6 0 8 #000000 #ffffff;
#X obj -20 30 cnv 2 10 2 empty empty empty 20 12 0 14 #000000 #404040;
#X obj -85 32 cnv 10 75 10 empty empty Property 5 6 0 8 #000000 #ffffff;
#X obj -197 45 cnv 6 10 15 empty empty fc_getObjectProperty 5 8 0 12 #ffffff #000000;
#X obj -240 65 cnv 1 225 20 empty \$0-argsdisplay empty 10 14 0 12 #e0e0e0 #404040;
#X obj -240 65 cnv 1 1 1 empty empty args: 0 6 0 8 #e0e0e0 #404040;
#X obj -245 115 loadbang ;
#X msg -245 145 args;
#X obj -245 175 pdcontrol ;
#X obj -245 205 l2s ;
#X msg -245 235 label \$1;
#X obj -245 265 s \$0-argsdisplay ;
#X obj -245 103 cnv 2 10 2 empty empty empty 20 12 0 14 #000000 #404040;
#X obj -245 93 cnv 10 75 10 empty empty done 5 6 0 8 #000000 #ffffff;
#X obj -20 103 cnv 2 10 2 empty empty empty 20 12 0 14 #000000 #404040;
#X obj -85 93 cnv 10 75 10 empty empty value 5 6 0 8 #000000 #ffffff;
#X text -245 295 <<< Autogen GUI;
#X connect 4 0 14 0;
#X connect 14 0 16 1;
#X connect 16 0 13 0;
#X connect 7 0 8 0;
#X connect 12 0 13 1;
#X connect 1 0 5 1;
#X connect 5 0 6 0;
#X connect 14 1 11 0;
#X connect 15 0 16 0;
#X connect 17 0 18 0;
#X connect 7 1 17 0;
#X connect 13 0 3 0;
#X connect 3 0 7 0;
#X connect 6 0 4 0;
#X connect 0 0 5 0;
#X connect 17 1 2 0;
#X connect 11 0 12 0;
#X connect 32 0 33 0;
#X connect 33 0 34 0;
#X connect 34 0 35 0;
#X connect 35 0 36 0;
#X connect 36 0 37 0;
#X coords 0 0 1 1 235 75 2 -245 30;
