#N canvas 867 296 450 478 12;
#X obj 20 30 inlet;
#X text 20 10 go;
#X obj 20 210 fc_process;
#X obj 20 60 b;
#X obj 20 120 list append;
#X obj 100 30 inlet;
#X text 100 10 object;
#X obj 20 240 route ERROR;
#X obj 20 270 print FreeCAD Error;
#X obj 170 300 outlet;
#X text 170 320 done;
#X obj 170 270 t b a;
#X obj 230 300 outlet;
#X text 230 320 True/False;
#X msg 20 90 is typeid;
#X obj 20 150 list append;
#X obj 160 30 inlet;
#X obj 20 180 list append;
#X obj 220 30 inlet;
#X text 160 10 Module;
#X text 220 10 Type;
#X text -310 0 Autogen GUI >>>;
#X obj -310 30 cnv 2 10 2 empty empty empty 20 12 0 14 #000000 #404040;
#X obj -310 32 cnv 10 75 10 empty empty go 5 6 0 8 #000000 #ffffff;
#X obj -210 30 cnv 2 10 2 empty empty empty 20 12 0 14 #000000 #404040;
#X obj -231 32 cnv 10 75 10 empty empty object 5 6 0 8 #000000 #ffffff;
#X obj -110 30 cnv 2 10 2 empty empty empty 20 12 0 14 #000000 #404040;
#X obj -153 32 cnv 10 75 10 empty empty Module 5 6 0 8 #000000 #ffffff;
#X obj -10 30 cnv 2 10 2 empty empty empty 20 12 0 14 #000000 #404040;
#X obj -75 32 cnv 10 75 10 empty empty Type 5 6 0 8 #000000 #ffffff;
#X obj -186 45 cnv 6 10 15 empty empty fc_isType 5 8 0 12 #ffffff #000000;
#X obj -310 73 cnv 2 10 2 empty empty empty 20 12 0 14 #000000 #404040;
#X obj -310 63 cnv 10 75 10 empty empty done 5 6 0 8 #000000 #ffffff;
#X obj -10 73 cnv 2 10 2 empty empty empty 20 12 0 14 #000000 #404040;
#X obj -75 63 cnv 10 75 10 empty empty True/False 5 6 0 8 #000000 #ffffff;
#X text -310 105 <<< Autogen GUI;
#X connect 5 0 4 1;
#X connect 17 0 2 0;
#X connect 11 0 9 0;
#X connect 15 0 17 0;
#X connect 3 0 14 0;
#X connect 7 0 8 0;
#X connect 18 0 17 1;
#X connect 11 1 12 0;
#X connect 0 0 3 0;
#X connect 16 0 15 1;
#X connect 4 0 15 0;
#X connect 7 1 11 0;
#X connect 2 0 7 0;
#X connect 14 0 4 0;
#X coords 0 0 1 1 310 45 2 -310 30;
