#N canvas 612 341 450 300 12;
#X obj 110 50 inlet;
#X obj 110 80 list prepend link;
#X obj 90 230 outlet;
#X obj 30 170 fc_process;
#X obj 30 50 inlet;
#X obj 30 140 list;
#X obj 30 200 t b a;
#X obj 30 230 outlet;
#X text 30 30 go;
#X text 30 250 done;
#X text 110 31 object;
#X text 92 251 link;
#X text -150 20 Autogen GUI >>>;
#X obj -150 50 cnv 2 10 2 empty empty empty 20 12 0 14 #000000 #404040;
#X obj -150 52 cnv 10 75 10 empty empty go 5 6 0 8 #000000 #ffffff;
#X obj 0 50 cnv 2 10 2 empty empty empty 20 12 0 14 #000000 #404040;
#X obj -65 52 cnv 10 75 10 empty empty object 5 6 0 8 #000000 #ffffff;
#X obj -94 65 cnv 6 10 15 empty empty fc_link 5 8 0 12 #ffffff #000000;
#X obj -150 93 cnv 2 10 2 empty empty empty 20 12 0 14 #000000 #404040;
#X obj -150 83 cnv 10 75 10 empty empty done 5 6 0 8 #000000 #ffffff;
#X obj 0 93 cnv 2 10 2 empty empty empty 20 12 0 14 #000000 #404040;
#X obj -65 83 cnv 10 75 10 empty empty link 5 6 0 8 #000000 #ffffff;
#X text -150 125 <<< Autogen GUI;
#X connect 6 0 7 0;
#X connect 0 0 1 0;
#X connect 4 0 5 0;
#X connect 6 1 2 0;
#X connect 1 0 5 1;
#X connect 5 0 3 0;
#X connect 3 0 6 0;
#X coords 0 0 1 1 160 45 2 -150 50;
