#N canvas 684 281 618 589 12;
#X obj 40 160 list append;
#X obj 40 220 fc_process;
#X obj 40 190 list prepend raw FreeCAD.Rotation.multVec;
#X obj 10 30 inlet;
#X text 10 10 go;
#X obj 70 30 inlet;
#X obj 140 30 inlet;
#X text 70 10 rotation;
#X text 140 10 vector;
#X obj 40 250 t b a;
#X obj 40 290 outlet;
#X text 40 310 done;
#X obj 100 290 outlet;
#X text 100 310 new vector;
#X obj 10 60 t b b;
#X obj 110 120 list;
#X obj 40 120 list;
#X connect 0 0 2 0;
#X connect 1 0 9 0;
#X connect 2 0 1 0;
#X connect 3 0 14 0;
#X connect 5 0 16 1;
#X connect 6 0 15 1;
#X connect 9 0 10 0;
#X connect 9 1 12 0;
#X connect 14 0 16 0;
#X connect 14 1 15 0;
#X connect 15 0 0 1;
#X connect 16 0 0 0;
