#N canvas 684 281 618 589 12;
#X obj 40 160 list append;
#X obj 40 220 fc_process;
#X obj 40 190 list prepend raw FreeCAD.Rotation.multVec;
#X obj 10 30 inlet;
#X text 10 10 go;
#X obj 70 30 inlet;
#X obj 140 30 inlet;
#X text 70 10 rotation;
#X text 140 10 vector;
#X obj 40 250 t b a;
#X obj 40 290 outlet;
#X text 40 310 done;
#X obj 100 290 outlet;
#X text 100 310 new vector;
#X obj 10 60 t b b;
#X obj 110 120 list;
#X obj 40 120 list;
#X text -245 0 Autogen GUI >>>;
#X obj -245 30 cnv 2 10 2 empty empty empty 20 12 0 14 #000000 #404040;
#X obj -245 32 cnv 10 75 10 empty empty go 5 6 0 8 #000000 #ffffff;
#X obj -132 30 cnv 2 10 2 empty empty empty 20 12 0 14 #000000 #404040;
#X obj -165 32 cnv 10 75 10 empty empty rotation 5 6 0 8 #000000 #ffffff;
#X obj -20 30 cnv 2 10 2 empty empty empty 20 12 0 14 #000000 #404040;
#X obj -85 32 cnv 10 75 10 empty empty vector 5 6 0 8 #000000 #ffffff;
#X obj -162 45 cnv 6 10 15 empty empty fc_multVec 5 8 0 12 #ffffff #000000;
#X obj -245 73 cnv 2 10 2 empty empty empty 20 12 0 14 #000000 #404040;
#X obj -245 63 cnv 10 75 10 empty empty done 5 6 0 8 #000000 #ffffff;
#X obj -20 73 cnv 2 10 2 empty empty empty 20 12 0 14 #000000 #404040;
#X obj -85 63 cnv 10 75 10 empty empty new\ vector 5 6 0 8 #000000 #ffffff;
#X text -245 105 <<< Autogen GUI;
#X connect 14 0 16 0;
#X connect 0 0 2 0;
#X connect 3 0 14 0;
#X connect 16 0 0 0;
#X connect 2 0 1 0;
#X connect 9 0 10 0;
#X connect 14 1 15 0;
#X connect 1 0 9 0;
#X connect 5 0 16 1;
#X connect 9 1 12 0;
#X connect 15 0 0 1;
#X connect 6 0 15 1;
#X coords 0 0 1 1 235 45 2 -245 30;
