#N struct draw-image-struct float x float y float w float h;
#N canvas 586 205 795 429 12;
#X obj 10 30 inlet;
#X obj 220 30 inlet;
#X text 10 10 go;
#X text 220 10 properties;
#X obj 10 140 spigot 1;
#X obj 10 170 fc_addObject \$1 \$2;
#X obj 80 140 spigot 0;
#X obj 180 240 fc_setObjectProperties;
#X obj 210 330 any;
#X obj 210 360 outlet;
#X obj 30 360 outlet;
#X text 30 380 done;
#X text 210 380 object;
#X obj 180 270 t b b;
#X obj 370 30 inlet;
#X text 370 10 delete;
#X obj 370 240 fc_delete;
#X obj 370 110 spigot 0;
#X obj 370 140 t b b;
#X obj 430 80 tgl 15 0 empty empty empty 17 7 0 10 #fcfcfc #000000
#000000 0 1;
#X obj 70 110 tgl 15 0 empty empty empty 17 7 0 10 #fcfcfc #000000
#000000 1 1;
#X obj 140 110 tgl 15 0 empty empty empty 17 7 0 10 #fcfcfc #000000
#000000 0 1;
#X obj 480 50 r \$0-switch;
#X obj 90 50 r \$0-switch;
#X obj 70 80 init 1;
#X obj 140 80 init 0;
#X obj 430 50 init 0;
#X obj 410 170 s \$0-switch;
#X obj 10 240 s \$0-switch;
#X obj 10 200 t b b b;
#X obj 430 210 r \$0-theObject;
#X obj 310 210 r \$0-theObject;
#X obj 230 300 r \$0-theObject;
#X obj 370 270 b;
#X obj 370 300 s \$0-theObject;
#X obj 130 200 s \$0-theObject;
#X obj 600 30 inlet;
#X text 600 10 object;
#X obj 600 90 fc_isObject;
#X obj 670 120 T-F;
#X obj 600 150 spigot 0;
#X obj 600 180 any;
#X obj 600 370 s \$0-theObject;
#X obj 670 280 T-F;
#X obj 600 310 spigot 0;
#X obj 600 340 any;
#X obj 600 250 fc_isType;
#X obj 600 210 t b a;
#X obj 670 210 init \$1;
#X obj 730 210 init \$2;
#X obj 600 60 t b a a a;
#X connect 0 0 4 0;
#X connect 0 0 6 0;
#X connect 1 0 5 1;
#X connect 1 0 7 1;
#X connect 4 0 5 0;
#X connect 5 0 29 0;
#X connect 5 1 35 0;
#X connect 6 0 7 0;
#X connect 7 0 13 0;
#X connect 8 0 9 0;
#X connect 13 0 10 0;
#X connect 13 1 8 0;
#X connect 14 0 17 0;
#X connect 16 0 10 0;
#X connect 16 0 33 0;
#X connect 17 0 18 0;
#X connect 18 0 16 0;
#X connect 18 1 27 0;
#X connect 19 0 17 1;
#X connect 20 0 4 1;
#X connect 21 0 6 1;
#X connect 22 0 19 0;
#X connect 23 0 20 0;
#X connect 23 0 21 0;
#X connect 24 0 20 0;
#X connect 25 0 21 0;
#X connect 26 0 19 0;
#X connect 29 0 28 0;
#X connect 29 1 10 0;
#X connect 29 2 8 0;
#X connect 30 0 16 1;
#X connect 31 0 7 2;
#X connect 32 0 8 1;
#X connect 33 0 34 0;
#X connect 36 0 50 0;
#X connect 38 0 40 0;
#X connect 38 1 39 0;
#X connect 39 0 40 1;
#X connect 40 0 41 0;
#X connect 41 0 47 0;
#X connect 43 0 44 1;
#X connect 44 0 45 0;
#X connect 45 0 42 0;
#X connect 46 0 44 0;
#X connect 46 1 43 0;
#X connect 47 0 46 0;
#X connect 47 1 46 1;
#X connect 48 0 46 2;
#X connect 49 0 46 3;
#X connect 50 0 38 0;
#X connect 50 1 38 1;
#X connect 50 2 41 1;
#X connect 50 3 45 1;
