#N canvas 889 296 450 350 12;
#X obj 10 120 list prepend Object \$1 \$2;
#X obj 70 30 inlet;
#X obj 70 210 outlet;
#X obj 10 30 inlet;
#X obj 10 90 list;
#X obj 10 180 t b a;
#X obj 10 210 outlet;
#X text 10 10 go;
#X text 10 230 done;
#X obj 10 150 fc_process 1;
#X obj 10 60 b;
#X connect 0 0 9 0;
#X connect 1 0 4 1;
#X connect 3 0 10 0;
#X connect 4 0 0 0;
#X connect 5 0 6 0;
#X connect 5 1 2 0;
#X connect 9 0 5 0;
#X connect 10 0 4 0;
