#N canvas 553 395 517 460 12;
#X obj 20 210 fc_process;
#X msg 290 140 remobserver;
#X obj 90 270 outlet;
#X obj 270 50 closebang;
#X obj 200 50 inlet;
#X obj 80 50 loadbang;
#X obj 200 100 t a b;
#X obj 80 80 list prepend \$1;
#X obj 100 140 list prepend objobserver;
#X obj 20 80 inlet;
#X obj 20 170 list;
#X obj 20 240 t b a;
#X obj 20 270 outlet;
#X text 20 60 go;
#X text 20 290 done;
#X text 203 26 object;
#X text 91 292 bang;
#X text -160 16 Autogen GUI >>>;
#X obj -160 46 cnv 2 10 2 empty empty empty 20 12 0 14 #000000 #404040;
#X obj -160 48 cnv 10 75 10 empty empty go 5 6 0 8 #000000 #ffffff;
#X obj -10 46 cnv 2 10 2 empty empty empty 20 12 0 14 #000000 #404040;
#X obj -75 48 cnv 10 75 10 empty empty object 5 6 0 8 #000000 #ffffff;
#X obj -129 61 cnv 6 10 15 empty empty fc_objObserver 5 8 0 12 #ffffff #000000;
#X obj -155 81 cnv 1 150 20 empty \$0-argsdisplay empty 10 14 0 12 #e0e0e0 #404040;
#X obj -155 81 cnv 1 1 1 empty empty args: 0 6 0 8 #e0e0e0 #404040;
#X obj -160 131 loadbang ;
#X msg -160 161 args;
#X obj -160 191 pdcontrol ;
#X obj -160 221 l2s ;
#X msg -160 251 label \$1;
#X obj -160 281 s \$0-argsdisplay ;
#X obj -160 119 cnv 2 10 2 empty empty empty 20 12 0 14 #000000 #404040;
#X obj -160 109 cnv 10 75 10 empty empty done 5 6 0 8 #000000 #ffffff;
#X obj -10 119 cnv 2 10 2 empty empty empty 20 12 0 14 #000000 #404040;
#X obj -75 109 cnv 10 75 10 empty empty bang 5 6 0 8 #000000 #ffffff;
#X text -160 311 <<< Autogen GUI;
#X connect 8 0 10 1;
#X connect 0 0 11 0;
#X connect 11 0 12 0;
#X connect 4 0 6 0;
#X connect 3 0 1 0;
#X connect 6 1 1 0;
#X connect 9 0 10 0;
#X connect 1 0 0 0;
#X connect 11 1 2 0;
#X connect 5 0 7 0;
#X connect 7 0 8 0;
#X connect 10 0 0 0;
#X connect 6 0 8 0;
#X connect 25 0 26 0;
#X connect 26 0 27 0;
#X connect 27 0 28 0;
#X connect 28 0 29 0;
#X connect 29 0 30 0;
#X coords 0 0 1 1 160 75 2 -160 46;
