#N canvas 770 379 450 325 12;
#X obj 180 30 inlet;
#X obj 80 30 inlet;
#X obj 10 240 outlet;
#X obj 10 30 inlet;
#X text 10 10 go;
#X text 10 260 done;
#X obj 70 240 outlet;
#X obj 10 110 list append;
#X obj 10 140 list append;
#X obj 10 170 fc_process;
#X obj 10 199 t b a;
#X msg 10 80 placementminus;
#X text 80 10 placement;
#X text 180 10 placement;
#X text 70 260 placement;
#X connect 0 0 8 1;
#X connect 1 0 7 1;
#X connect 3 0 11 0;
#X connect 7 0 8 0;
#X connect 8 0 9 0;
#X connect 9 0 10 0;
#X connect 10 0 2 0;
#X connect 10 1 6 0;
#X connect 11 0 7 0;
