#N canvas 703 416 450 300 12;
#X obj 40 70 route bang;
#X obj 110 190 any;
#X obj 40 40 inlet;
#X text 10 10 value or bang to get;
#X obj 180 40 inlet;
#X obj 240 40 inlet;
#X obj 110 250 outlet;
#X obj 110 130 fc_setObjectProperty \$1;
#X obj 110 220 fc_getObjectProperty \$1;
#X text 180 10 object;
#X text 240 10 property;
#X connect 0 0 1 0;
#X connect 0 1 7 0;
#X connect 1 0 8 0;
#X connect 2 0 0 0;
#X connect 4 0 1 1;
#X connect 4 0 7 1;
#X connect 5 0 7 2;
#X connect 5 0 8 1;
#X connect 8 0 6 0;
