#N canvas 895 461 450 300 12;
#X obj 180 30 inlet;
#X obj 80 30 inlet;
#X obj 10 240 outlet;
#X text 80 10 rotation;
#X text 180 10 rotation;
#X obj 10 30 inlet;
#X text 10 10 go;
#X text 10 260 done;
#X obj 70 240 outlet;
#X text 70 260 rotation;
#X obj 10 110 list append;
#X obj 10 140 list append;
#X obj 10 170 fc_process;
#X obj 10 199 t b a;
#X msg 10 80 placementadd;
#X connect 0 0 11 1;
#X connect 1 0 10 1;
#X connect 5 0 14 0;
#X connect 10 0 11 0;
#X connect 11 0 12 0;
#X connect 12 0 13 0;
#X connect 13 0 2 0;
#X connect 13 1 8 0;
#X connect 14 0 10 0;
