#N canvas 422 329 764 481 12;
#X obj 40 70 route bang;
#X obj 110 220 any;
#X obj 40 40 inlet;
#X text 10 10 value or bang to get;
#X obj 180 40 inlet;
#X obj 240 40 inlet;
#X obj 74 338 outlet;
#X obj 110 130 fc_setObjectProperty \$1;
#X obj 110 250 fc_getObjectProperty \$1;
#X text 180 10 object;
#X text 240 10 property;
#X text 271 362 value;
#X text 77 361 done;
#X obj 268 338 outlet;
#X text -245 0 Autogen GUI >>>;
#X obj -245 30 cnv 2 10 2 empty empty empty 20 12 0 14 #000000 #404040
0;
#X obj -245 32 cnv 10 75 10 empty empty value\\\ or\\\ bang\\\ to\\\ get
5 6 0 8 #000000 #ffffff 0;
#X obj -132 30 cnv 2 10 2 empty empty empty 20 12 0 14 #000000 #404040
0;
#X obj -165 32 cnv 10 75 10 empty empty object 5 6 0 8 #000000 #ffffff
0;
#X obj -20 30 cnv 2 10 2 empty empty empty 20 12 0 14 #000000 #404040
0;
#X obj -85 32 cnv 10 75 10 empty empty property 5 6 0 8 #000000 #ffffff
0;
#X obj -166 45 cnv 6 10 15 empty empty fc_property 5 8 0 12 #ffffff
#000000 0;
#X obj -240 65 cnv 1 225 20 empty \$0-argsdisplay empty 10 14 0 12
#e0e0e0 #404040 0;
#X obj -240 65 cnv 1 1 1 empty empty args: 0 6 0 8 #e0e0e0 #404040
0;
#X obj -245 115 loadbang;
#X msg -245 145 args;
#X obj -245 175 pdcontrol;
#X obj -245 205 l2s;
#X msg -245 235 label \$1;
#X obj -245 265 s \$0-argsdisplay;
#X obj -245 103 cnv 2 10 2 empty empty empty 20 12 0 14 #000000 #404040
0;
#X obj -245 93 cnv 10 75 10 empty empty done 5 6 0 8 #000000 #ffffff
0;
#X obj -20 103 cnv 2 10 2 empty empty empty 20 12 0 14 #000000 #404040
0;
#X obj -85 93 cnv 10 75 10 empty empty value 5 6 0 8 #000000 #ffffff
0;
#X text -245 295 <<< Autogen GUI;
#X connect 0 0 1 0;
#X connect 0 1 7 0;
#X connect 1 0 8 0;
#X connect 2 0 0 0;
#X connect 4 0 1 1;
#X connect 4 0 7 1;
#X connect 5 0 7 2;
#X connect 5 0 8 1;
#X connect 7 0 6 0;
#X connect 8 0 6 0;
#X connect 8 1 13 0;
#X connect 24 0 25 0;
#X connect 25 0 26 0;
#X connect 26 0 27 0;
#X connect 27 0 28 0;
#X connect 28 0 29 0;
#X coords 0 0 1 1 235 75 2 -245 30;
