#N canvas 885 459 450 300 12;
#X obj 180 30 inlet;
#X obj 80 30 inlet;
#X obj 10 240 outlet;
#X text 80 10 rotation;
#X text 180 10 rotation;
#X obj 10 30 inlet;
#X text 10 10 go;
#X text 10 260 done;
#X obj 70 240 outlet;
#X text 70 260 rotation;
#X obj 10 110 list append;
#X obj 10 140 list append;
#X obj 10 170 fc_process;
#X obj 10 199 t b a;
#X msg 10 80 rotationminus;
#X text -245 0 Autogen GUI >>>;
#X obj -245 30 cnv 2 10 2 empty empty empty 20 12 0 14 #000000 #404040;
#X obj -245 32 cnv 10 75 10 empty empty go 5 6 0 8 #000000 #ffffff;
#X obj -132 30 cnv 2 10 2 empty empty empty 20 12 0 14 #000000 #404040;
#X obj -165 32 cnv 10 75 10 empty empty rotation 5 6 0 8 #000000 #ffffff;
#X obj -20 30 cnv 2 10 2 empty empty empty 20 12 0 14 #000000 #404040;
#X obj -85 32 cnv 10 75 10 empty empty rotation 5 6 0 8 #000000 #ffffff;
#X obj -183 45 cnv 6 10 15 empty empty fc_rotationMinus 5 8 0 12 #ffffff #000000;
#X obj -245 73 cnv 2 10 2 empty empty empty 20 12 0 14 #000000 #404040;
#X obj -245 63 cnv 10 75 10 empty empty done 5 6 0 8 #000000 #ffffff;
#X obj -20 73 cnv 2 10 2 empty empty empty 20 12 0 14 #000000 #404040;
#X obj -85 63 cnv 10 75 10 empty empty rotation 5 6 0 8 #000000 #ffffff;
#X text -245 105 <<< Autogen GUI;
#X connect 5 0 14 0;
#X connect 12 0 13 0;
#X connect 0 0 11 1;
#X connect 14 0 10 0;
#X connect 10 0 11 0;
#X connect 13 0 2 0;
#X connect 1 0 10 1;
#X connect 11 0 12 0;
#X connect 13 1 8 0;
#X coords 0 0 1 1 235 45 2 -245 30;
