#N canvas 733 260 561 575 12;
#X obj 140 30 inlet;
#X obj 221 30 inlet;
#X obj 70 270 outlet;
#X obj 10 210 fc_process;
#X obj 60 30 inlet;
#X text 60 10 Value;
#X text 140 10 Sketch;
#X text 220 10 Constraint;
#X obj 10 30 inlet;
#X text 10 10 go;
#X obj 10 270 outlet;
#X text 10 290 done;
#X obj 10 240 t b a;
#X obj 10 140 list append \$1;
#X msg 10 70 list set constraint;
#X obj 10 170 list append;
#X obj 10 110 list append;
#X connect 0 0 16 1;
#X connect 1 0 13 1;
#X connect 3 0 12 0;
#X connect 4 0 15 1;
#X connect 8 0 14 0;
#X connect 12 0 10 0;
#X connect 12 1 2 0;
#X connect 13 0 15 0;
#X connect 14 0 16 0;
#X connect 15 0 3 0;
#X connect 16 0 13 0;
