#N struct draw-image-struct float x float y float w float h;
#N canvas 400 203 783 595 12;
#X obj 130 80 fc_getObjectProperty Placement;
#X obj 480 470 fc_setObjectProperty Placement;
#X text 40 220 translation vector;
#X text 220 390 rotation vector;
#X obj 180 190 f;
#X obj 230 190 f;
#X obj 280 190 f;
#X obj 130 110 t b b b a;
#X obj 340 360 f;
#X obj 180 220 fc_vector;
#X obj 200 20 inlet;
#X obj 250 20 inlet;
#X obj 300 20 inlet;
#X obj 130 20 inlet;
#X obj 350 20 inlet;
#X obj 390 360 f;
#X obj 400 20 inlet;
#X obj 440 360 f;
#X obj 450 20 inlet;
#X obj 180 280 t b b b a;
#X obj 130 50 t a a;
#X text 70 20 Object;
#X obj 480 500 outlet;
#X obj 340 390 rotation;
#X obj 340 420 rotatePlacement;
#X obj 180 250 translatePlacement;
#X connect 0 0 7 0;
#X connect 1 0 22 0;
#X connect 4 0 9 0;
#X connect 5 0 9 1;
#X connect 6 0 9 2;
#X connect 7 0 4 0;
#X connect 7 1 5 0;
#X connect 7 2 6 0;
#X connect 7 3 25 1;
#X connect 8 0 23 0;
#X connect 9 0 25 0;
#X connect 10 0 4 1;
#X connect 11 0 5 1;
#X connect 12 0 6 1;
#X connect 13 0 20 0;
#X connect 14 0 8 1;
#X connect 15 0 23 1;
#X connect 16 0 15 1;
#X connect 17 0 23 2;
#X connect 18 0 17 1;
#X connect 19 0 8 0;
#X connect 19 1 15 0;
#X connect 19 2 17 0;
#X connect 19 3 24 1;
#X connect 20 0 0 0;
#X connect 20 1 1 1;
#X connect 23 0 24 0;
#X connect 24 0 1 0;
#X connect 25 0 19 0;
