#N canvas 580 378 450 300 12;
#X obj 40 100 list length;
#X obj 10 40 inlet;
#X obj 10 69 t a a;
#X obj 10 130 list prepend;
#X obj 10 160 list prepend list;
#X obj 10 190 outlet;
#X text 13 17 PD list;
#X text 11 214 FC list;
#X text -95 7 Autogen GUI >>>;
#X obj -95 37 cnv 2 10 2 empty empty empty 20 12 0 14 #000000 #404040;
#X obj -95 39 cnv 10 75 10 empty empty PD\ list 5 6 0 8 #000000 #ffffff;
#X obj -73 52 cnv 6 10 15 empty empty fcList 5 8 0 12 #ffffff #000000;
#X obj -95 80 cnv 2 10 2 empty empty empty 20 12 0 14 #000000 #404040;
#X obj -95 70 cnv 10 75 10 empty empty FC\ list 5 6 0 8 #000000 #ffffff;
#X text -95 112 <<< Autogen GUI;
#X connect 1 0 2 0;
#X connect 3 0 4 0;
#X connect 2 0 3 0;
#X connect 4 0 5 0;
#X connect 0 0 3 1;
#X connect 2 1 0 0;
#X coords 0 0 1 1 85 45 2 -95 37;
