#N canvas 1911 264 450 325 12;
#X obj 10 40 inlet;
#X obj 10 140 outlet;
#X obj 10 70 route Rot Yaw-Pitch-Roll;
#X msg 10 100 bang;
#X msg 90 100 bang;
#X obj 90 140 outlet;
#X text 15 14 value;
#X text 11 168 True;
#X text 93 169 False;
#X text -170 4 Autogen GUI >>>;
#X obj -170 34 cnv 2 10 2 empty empty empty 20 12 0 14 #000000 #404040;
#X obj -170 36 cnv 10 75 10 empty empty value 5 6 0 8 #000000 #ffffff;
#X obj -125 49 cnv 6 10 15 empty empty isRotation 5 8 0 12 #ffffff #000000;
#X obj -170 77 cnv 2 10 2 empty empty empty 20 12 0 14 #000000 #404040;
#X obj -170 67 cnv 10 75 10 empty empty True 5 6 0 8 #000000 #ffffff;
#X obj -20 77 cnv 2 10 2 empty empty empty 20 12 0 14 #000000 #404040;
#X obj -85 67 cnv 10 75 10 empty empty False 5 6 0 8 #000000 #ffffff;
#X text -170 109 <<< Autogen GUI;
#X connect 0 0 2 0;
#X connect 2 2 4 0;
#X connect 2 0 3 0;
#X connect 3 0 1 0;
#X connect 2 1 3 0;
#X connect 4 0 5 0;
#X coords 0 0 1 1 160 45 2 -170 34;
