#N canvas 829 315 450 325 12;
#X obj 20 40 inlet;
#X obj 20 160 outlet;
#X obj 20 80 route Vector Pos;
#X obj 110 160 outlet;
#X msg 20 120 bang;
#X msg 110 120 bang;
#X text 22 19 value;
#X text 22 188 True;
#X text 115 187 False;
#X text -160 9 Autogen GUI >>>;
#X obj -160 39 cnv 2 10 2 empty empty empty 20 12 0 14 #000000 #404040;
#X obj -160 41 cnv 10 75 10 empty empty value 5 6 0 8 #000000 #ffffff;
#X obj -108 54 cnv 6 10 15 empty empty isVector 5 8 0 12 #ffffff #000000;
#X obj -160 82 cnv 2 10 2 empty empty empty 20 12 0 14 #000000 #404040;
#X obj -160 72 cnv 10 75 10 empty empty True 5 6 0 8 #000000 #ffffff;
#X obj -10 82 cnv 2 10 2 empty empty empty 20 12 0 14 #000000 #404040;
#X obj -75 72 cnv 10 75 10 empty empty False 5 6 0 8 #000000 #ffffff;
#X text -160 114 <<< Autogen GUI;
#X connect 0 0 2 0;
#X connect 2 2 5 0;
#X connect 2 0 4 0;
#X connect 4 0 1 0;
#X connect 2 1 4 0;
#X connect 5 0 3 0;
#X coords 0 0 1 1 160 45 2 -160 39;
