#N canvas 300 452 541 316 12;
#X obj 325 35 inlet;
#X obj 325 65 list split 5;
#X obj 265 185 outlet;
#X obj 265 125 list split 1;
#X obj 265 155 list trim;
#X text 15 155 and list symbol;
#X text 15 125 remove very first one : Placement;
#X text 125 65 split at rotation start;
#X obj 405 185 outlet;
#X obj 405 155 list trim;
#X text 265 215 Pos;
#X text 405 215 Rotation;
#X connect 0 0 1 0;
#X connect 1 0 3 0;
#X connect 1 1 9 0;
#X connect 3 1 4 0;
#X connect 4 0 2 0;
#X connect 9 0 8 0;
