#N canvas 300 452 541 316 12;
#X obj 325 35 inlet;
#X obj 325 65 list split 5;
#X obj 265 185 outlet;
#X obj 265 125 list split 1;
#X obj 265 155 list trim;
#X text 15 155 and list symbol;
#X text 15 125 remove very first one : Placement;
#X text 125 65 split at rotation start;
#X obj 405 185 outlet;
#X obj 405 155 list trim;
#X text 328 14 placement;
#X text 263 205 vector;
#X text 403 206 rotation;
#X text -165 4 Autogen GUI >>>;
#X obj -165 34 cnv 2 10 2 empty empty empty 20 12 0 14 #000000 #404040;
#X obj -165 36 cnv 10 75 10 empty empty placement 5 6 0 8 #000000 #ffffff;
#X obj -137 49 cnv 6 10 15 empty empty placementPosRot 5 8 0 12 #ffffff #000000;
#X obj -165 77 cnv 2 10 2 empty empty empty 20 12 0 14 #000000 #404040;
#X obj -165 67 cnv 10 75 10 empty empty vector 5 6 0 8 #000000 #ffffff;
#X obj -15 77 cnv 2 10 2 empty empty empty 20 12 0 14 #000000 #404040;
#X obj -80 67 cnv 10 75 10 empty empty rotation 5 6 0 8 #000000 #ffffff;
#X text -165 109 <<< Autogen GUI;
#X connect 4 0 2 0;
#X connect 1 1 9 0;
#X connect 9 0 8 0;
#X connect 0 0 1 0;
#X connect 3 1 4 0;
#X connect 1 0 3 0;
#X coords 0 0 1 1 160 45 2 -165 34;
