#N canvas 590 380 450 375 12;
#X obj 40 230 list cat;
#X obj 30 120 until;
#X obj 30 150 f;
#X obj 60 150 + 1;
#X obj 30 190 moses;
#X obj 10 260 list;
#X obj 10 230 b;
#X msg 110 200 clear;
#X msg 80 120 0;
#X obj 30 60 t f f b b;
#X obj 20 90 + 1;
#X obj 13 26 inlet;
#X obj 10 290 outlet;
#X connect 0 0 5 1;
#X connect 1 0 2 0;
#X connect 2 0 3 0;
#X connect 2 0 4 0;
#X connect 3 0 2 1;
#X connect 4 0 0 0;
#X connect 4 1 6 0;
#X connect 5 0 12 0;
#X connect 6 0 5 0;
#X connect 7 0 0 1;
#X connect 8 0 2 1;
#X connect 9 0 10 0;
#X connect 9 1 4 1;
#X connect 9 2 8 0;
#X connect 9 3 7 0;
#X connect 10 0 1 0;
#X connect 11 0 9 0;
