#N canvas 780 375 450 325 12;
#X obj 100 40 inlet;
#X obj 100 120 unpack f f f;
#X obj 100 160 outlet;
#X obj 150 160 outlet;
#X obj 200 160 outlet;
#X obj 100 80 route Rotation Yaw-Pitch-Roll;
#X text 103 19 rotation;
#X text 100 182 Yaw;
#X text 154 183 Pitch;
#X text 204 183 Roll;
#X text -155 9 Autogen GUI >>>;
#X obj -155 39 cnv 2 10 2 empty empty empty 20 12 0 14 #000000 #404040
0;
#X obj -155 41 cnv 10 75 10 empty empty rotation 5 6 0 8 #000000 #ffffff
0;
#X obj -76 54 cnv 6 10 15 empty empty rotationYPR 5 8 0 12 #ffffff
#000000 0;
#X obj -155 82 cnv 2 10 2 empty empty empty 20 12 0 14 #000000 #404040
0;
#X obj -155 72 cnv 10 75 10 empty empty Yaw 5 6 0 8 #000000 #ffffff
0;
#X obj -42 82 cnv 2 10 2 empty empty empty 20 12 0 14 #000000 #404040
0;
#X obj -75 72 cnv 10 75 10 empty empty Pitch 5 6 0 8 #000000 #ffffff
0;
#X obj 70 82 cnv 2 10 2 empty empty empty 20 12 0 14 #000000 #404040
0;
#X obj 5 72 cnv 10 75 10 empty empty Roll 5 6 0 8 #000000 #ffffff 0
;
#X text -155 114 <<< Autogen GUI;
#X connect 0 0 5 0;
#X connect 1 0 2 0;
#X connect 1 1 3 0;
#X connect 1 2 4 0;
#X connect 5 0 1 0;
#X connect 5 1 1 0;
#X coords 0 0 1 1 235 45 2 -155 39;
