#N canvas 875 457 450 300 12;
#X obj 120 30 inlet;
#X obj 20 30 inlet;
#X obj 60 180 outlet;
#X text 120 10 vector;
#X text 20 10 vector;
#X obj 60 110 -;
#X obj 90 110 -;
#X obj 120 110 -;
#X obj 20 60 rotationYPR;
#X obj 120 60 rotationYPR;
#X obj 60 150 YPRrotation;
#X connect 0 0 9 0;
#X connect 1 0 8 0;
#X connect 5 0 10 0;
#X connect 6 0 10 1;
#X connect 7 0 10 2;
#X connect 8 0 5 0;
#X connect 8 1 6 0;
#X connect 8 2 7 0;
#X connect 9 0 5 1;
#X connect 9 1 6 1;
#X connect 9 2 7 1;
#X connect 10 0 2 0;
