#N canvas 278 308 450 375 12;
#X obj 230 40 inlet;
#X obj 30 40 inlet;
#X text 30 10 Placement;
#X obj 30 80 t a a;
#X obj 30 290 outlet;
#X obj 30 200 +;
#X obj 70 200 +;
#X obj 110 200 +;
#X text 230 10 Rotation;
#X obj 30 110 placementPosRot;
#X obj 30 140 rotationYawPitchRoll;
#X obj 230 140 rotationYawPitchRoll;
#X obj 30 230 XYZvector;
#X obj 30 260 setPlacementRot;
#X connect 0 0 11 0;
#X connect 1 0 3 0;
#X connect 3 0 9 0;
#X connect 3 1 13 1;
#X connect 5 0 12 0;
#X connect 6 0 12 1;
#X connect 7 0 12 2;
#X connect 9 1 10 0;
#X connect 10 0 5 0;
#X connect 10 1 6 0;
#X connect 10 2 7 0;
#X connect 11 0 5 1;
#X connect 11 1 6 1;
#X connect 11 2 7 1;
#X connect 12 0 13 0;
#X connect 13 0 4 0;
