#N canvas 367 214 482 325 12;
#X obj 80 100 inlet;
#X obj 280 100 inlet;
#X text 279 69 Placement;
#X obj 280 130 list split 5;
#X obj 80 130 list split 1;
#X obj 130 230 list trim;
#X obj 130 260 outlet;
#X obj 130 200 list append;
#X text 80 70 new Pos;
#X obj 80 160 list prepend Placement Pos;
#X text 133 282 placement;
#X text -100 59 Autogen GUI >>>;
#X obj -100 89 cnv 2 10 2 empty empty empty 20 12 0 14 #000000 #404040;
#X obj -100 91 cnv 10 75 10 empty empty new\ Pos 5 6 0 8 #000000 #ffffff;
#X obj 50 89 cnv 2 10 2 empty empty empty 20 12 0 14 #000000 #404040;
#X obj -15 91 cnv 10 75 10 empty empty Placement 5 6 0 8 #000000 #ffffff;
#X obj -72 104 cnv 6 10 15 empty empty setPlacementPos 5 8 0 12 #ffffff #000000;
#X obj -100 132 cnv 2 10 2 empty empty empty 20 12 0 14 #000000 #404040;
#X obj -100 122 cnv 10 75 10 empty empty placement 5 6 0 8 #000000 #ffffff;
#X text -100 164 <<< Autogen GUI;
#X connect 9 0 7 0;
#X connect 1 0 3 0;
#X connect 5 0 6 0;
#X connect 3 1 7 1;
#X connect 7 0 5 0;
#X connect 0 0 4 0;
#X connect 4 1 9 0;
#X coords 0 0 1 1 160 45 2 -100 89;
