#N canvas 792 381 482 325 12;
#X obj 80 100 inlet;
#X obj 211 101 inlet;
#X text 210 70 Placement;
#X obj 211 131 list split 5;
#X obj 80 130 list split 1;
#X obj 130 230 list trim;
#X obj 130 260 outlet;
#X text 80 70 new Rot;
#X obj 130 200 list prepend;
#X obj 80 160 list prepend Rot;
#X text 133 283 placement;
#X text -100 60 Autogen GUI >>>;
#X obj -100 90 cnv 2 10 2 empty empty empty 20 12 0 14 #000000 #404040;
#X obj -100 92 cnv 10 75 10 empty empty new\ Rot 5 6 0 8 #000000 #ffffff;
#X obj 50 90 cnv 2 10 2 empty empty empty 20 12 0 14 #000000 #404040;
#X obj -15 92 cnv 10 75 10 empty empty Placement 5 6 0 8 #000000 #ffffff;
#X obj -72 105 cnv 6 10 15 empty empty setPlacementRot 5 8 0 12 #ffffff #000000;
#X obj -100 133 cnv 2 10 2 empty empty empty 20 12 0 14 #000000 #404040;
#X obj -100 123 cnv 10 75 10 empty empty placement 5 6 0 8 #000000 #ffffff;
#X text -100 165 <<< Autogen GUI;
#X connect 9 0 8 0;
#X connect 1 0 3 0;
#X connect 5 0 6 0;
#X connect 3 0 8 1;
#X connect 8 0 5 0;
#X connect 0 0 4 0;
#X connect 4 1 9 0;
#X coords 0 0 1 1 160 45 2 -100 90;
