#N canvas 779 255 816 576 12;
#X obj 100 10 inlet;
#X obj 150 240 outlet;
#X obj 160 120 any;
#X obj 100 40 t a a a;
#X obj 100 120 any;
#X obj 100 150 list split 2;
#X obj 180 210 print;
#X msg 180 180 ERROR in list computation;
#X obj 100 90 isList;
#X connect 0 0 3 0;
#X connect 2 0 1 0;
#X connect 3 0 8 0;
#X connect 3 1 4 1;
#X connect 3 2 2 1;
#X connect 4 0 5 0;
#X connect 5 1 1 0;
#X connect 5 2 7 0;
#X connect 7 0 6 0;
#X connect 8 0 4 0;
#X connect 8 1 2 0;
