#N canvas 779 255 453 334 12;
#X obj 100 40 inlet;
#X obj 150 270 outlet;
#X obj 160 150 any;
#X obj 100 70 t a a a;
#X obj 100 150 any;
#X obj 100 180 list split 2;
#X obj 180 240 print;
#X msg 180 210 ERROR in list computation;
#X obj 100 120 isList;
#X text 103 17 FC list;
#X text 153 299 PD list;
#X text -5 7 Autogen GUI >>>;
#X obj -5 37 cnv 2 10 2 empty empty empty 20 12 0 14 #000000 #404040;
#X obj -5 39 cnv 10 75 10 empty empty FC\ list 5 6 0 8 #000000 #ffffff;
#X obj 16 52 cnv 6 10 15 empty empty unList 5 8 0 12 #ffffff #000000;
#X obj -5 80 cnv 2 10 2 empty empty empty 20 12 0 14 #000000 #404040;
#X obj -5 70 cnv 10 75 10 empty empty PD\ list 5 6 0 8 #000000 #ffffff;
#X text -5 112 <<< Autogen GUI;
#X connect 5 1 1 0;
#X connect 8 0 4 0;
#X connect 2 0 1 0;
#X connect 7 0 6 0;
#X connect 3 2 2 1;
#X connect 5 2 7 0;
#X connect 8 1 2 0;
#X connect 3 0 8 0;
#X connect 4 0 5 0;
#X connect 0 0 3 0;
#X connect 3 1 4 1;
#X coords 0 0 1 1 85 45 2 -5 37;
