#N canvas 403 378 450 325 12;
#X obj 105 43 inlet;
#X obj 105 129 unpack f f f;
#X obj 105 172 outlet;
#X obj 156 172 outlet;
#X obj 207 172 outlet;
#X obj 105 86 route Vector Pos;
#X text 109 19 vector;
#X text 109 198 X;
#X text 161 199 Y;
#X text 213 198 Z;
#X text -150 9 Autogen GUI >>>;
#X obj -150 39 cnv 2 10 2 empty empty empty 20 12 0 14 #000000 #404040
0;
#X obj -150 41 cnv 10 75 10 empty empty vector 5 6 0 8 #000000 #ffffff
0;
#X obj -64 54 cnv 6 10 15 empty empty vectorXYZ 5 8 0 12 #ffffff #000000
0;
#X obj -150 82 cnv 2 10 2 empty empty empty 20 12 0 14 #000000 #404040
0;
#X obj -150 72 cnv 10 75 10 empty empty X 5 6 0 8 #000000 #ffffff 0
;
#X obj -37 82 cnv 2 10 2 empty empty empty 20 12 0 14 #000000 #404040
0;
#X obj -70 72 cnv 10 75 10 empty empty Y 5 6 0 8 #000000 #ffffff 0
;
#X obj 75 82 cnv 2 10 2 empty empty empty 20 12 0 14 #000000 #404040
0;
#X obj 10 72 cnv 10 75 10 empty empty Z 5 6 0 8 #000000 #ffffff 0;
#X text -150 114 <<< Autogen GUI;
#X connect 0 0 5 0;
#X connect 1 0 2 0;
#X connect 1 1 3 0;
#X connect 1 2 4 0;
#X connect 5 0 1 0;
#X connect 5 1 1 0;
#X coords 0 0 1 1 235 45 2 -150 39;
