#N canvas 533 626 450 300 12;
#X obj 110 30 inlet;
#X obj 10 30 inlet;
#X obj 50 180 outlet;
#X text 110 10 vector;
#X obj 110 60 vectorXYZ;
#X obj 50 150 XYZvector;
#X obj 10 60 vectorXYZ;
#X text 10 10 vector;
#X obj 50 110 +;
#X obj 80 110 +;
#X obj 110 110 +;
#X connect 0 0 4 0;
#X connect 1 0 6 0;
#X connect 4 0 8 1;
#X connect 4 1 9 1;
#X connect 4 2 10 1;
#X connect 5 0 2 0;
#X connect 6 0 8 0;
#X connect 6 1 9 0;
#X connect 6 2 10 0;
#X connect 8 0 5 0;
#X connect 9 0 5 1;
#X connect 10 0 5 2;
