#N canvas 392 269 703 492 12;
#X obj 260 30 inlet;
#X obj 10 30 inlet;
#X obj 10 260 outlet;
#X text 260 10 vector;
#X obj 260 60 vectorXYZ;
#X obj 10 170 XYZvector;
#X obj 10 60 vectorXYZ;
#X text 10 10 vector;
#X obj 10 130 +;
#X obj 124 130 +;
#X obj 238 130 +;
#X text 14 285 vector;
#X text -170 0 Autogen GUI >>>;
#X obj -170 30 cnv 2 10 2 empty empty empty 20 12 0 14 #000000 #404040
0;
#X obj -170 32 cnv 10 75 10 empty empty vector 5 6 0 8 #000000 #ffffff
0;
#X obj -20 30 cnv 2 10 2 empty empty empty 20 12 0 14 #000000 #404040
0;
#X obj -85 32 cnv 10 75 10 empty empty vector 5 6 0 8 #000000 #ffffff
0;
#X obj -121 45 cnv 6 10 15 empty empty vectorAdd 5 8 0 12 #ffffff #000000
0;
#X obj -170 73 cnv 2 10 2 empty empty empty 20 12 0 14 #000000 #404040
0;
#X obj -170 63 cnv 10 75 10 empty empty vector 5 6 0 8 #000000 #ffffff
0;
#X text -170 105 <<< Autogen GUI;
#X connect 0 0 4 0;
#X connect 1 0 6 0;
#X connect 4 0 8 1;
#X connect 4 1 9 1;
#X connect 4 2 10 1;
#X connect 5 0 2 0;
#X connect 6 0 8 0;
#X connect 6 1 9 0;
#X connect 6 2 10 0;
#X connect 8 0 5 0;
#X connect 9 0 5 1;
#X connect 10 0 5 2;
#X coords 0 0 1 1 160 45 2 -170 30;
