#N canvas 927 575 171 201 12;
#X obj 60 120 list-fifo;
#X obj 10 60 b;
#X obj 60 90 once;
#X obj 60 60 t b l;
#X obj 60 30 inlet;
#X obj 10 30 inlet;
#X text 10 10 go;
#X text 60 10 list;
#X obj 60 150 outlet;
#X obj 110 30 inlet;
#X text 110 10 reset;
#X text 60 170 list;
#X obj 110 60 t b b;
#X connect 0 0 8 0;
#X connect 0 1 2 1;
#X connect 1 0 0 0;
#X connect 2 0 0 0;
#X connect 3 0 2 0;
#X connect 3 1 0 1;
#X connect 4 0 3 0;
#X connect 5 0 1 0;
#X connect 9 0 12 0;
#X connect 12 0 2 1;
#X connect 12 1 0 2;
