#N canvas 563 210 559 353 12;
#X obj 10 60 b;
#X obj 60 60 t b a;
#X obj 60 30 inlet;
#X obj 10 30 inlet;
#X text 10 10 go;
#X text 60 10 list;
#X obj 60 150 outlet;
#X obj 110 30 inlet;
#X text 110 10 reset;
#X text 60 170 list;
#X obj 110 60 t b b;
#X text -245 0 Autogen GUI >>>;
#X obj -245 30 cnv 2 10 2 empty empty empty 20 12 0 14 #000000 #404040 0;
#X obj -245 32 cnv 10 75 10 empty empty go 5 6 0 8 #000000 #ffffff 0;
#X obj -132 30 cnv 2 10 2 empty empty empty 20 12 0 14 #000000 #404040 0;
#X obj -165 32 cnv 10 75 10 empty empty list 5 6 0 8 #000000 #ffffff 0;
#X obj -20 30 cnv 2 10 2 empty empty empty 20 12 0 14 #000000 #404040 0;
#X obj -85 32 cnv 10 75 10 empty empty reset 5 6 0 8 #000000 #ffffff 0;
#X obj -152 45 cnv 6 10 15 empty empty waitFor 5 8 0 12 #ffffff #000000 0;
#X obj -245 73 cnv 2 10 2 empty empty empty 20 12 0 14 #000000 #404040 0;
#X obj -245 63 cnv 10 75 10 empty empty list 5 6 0 8 #000000 #ffffff 0;
#X text -245 105 <<< Autogen GUI;
#X obj 59 120 list-abs/list-fifo;
#X obj 60 90 iemlib/once;
#X connect 0 0 22 0;
#X connect 1 0 23 0;
#X connect 1 1 22 1;
#X connect 2 0 1 0;
#X connect 3 0 0 0;
#X connect 7 0 10 0;
#X connect 10 0 23 1;
#X connect 10 1 22 2;
#X connect 22 0 6 0;
#X connect 22 1 23 1;
#X connect 23 0 22 0;
#X coords 0 0 1 1 235 45 2 -245 30;
