#N canvas 648 431 450 350 12;
#X obj 80 40 inlet;
#X obj 140 40 inlet;
#X obj 200 40 inlet;
#X obj 90 260 outlet;
#X msg 90 230 Yaw-Pitch-Roll \$1 \$2 \$3;
#X obj 90 200 pack \$1 \$2 \$3;
#X obj 90 160 f;
#X obj 130 160 f;
#X obj 170 160 f;
#X obj 80 70 t f b b;
#X obj 140 70 t b f b;
#X obj 200 70 t b b f;
#X text 80 17 yaw;
#X text 140 17 pitch;
#X text 203 17 roll;
#X text 92 283 rotation;
#X text -175 7 Autogen GUI >>>;
#X obj -175 37 cnv 2 10 2 empty empty empty 20 12 0 14 #000000 #404040;
#X obj -175 39 cnv 10 75 10 empty empty yaw 5 6 0 8 #000000 #ffffff;
#X obj -62 37 cnv 2 10 2 empty empty empty 20 12 0 14 #000000 #404040;
#X obj -95 39 cnv 10 75 10 empty empty pitch 5 6 0 8 #000000 #ffffff;
#X obj 50 37 cnv 2 10 2 empty empty empty 20 12 0 14 #000000 #404040;
#X obj -15 39 cnv 10 75 10 empty empty roll 5 6 0 8 #000000 #ffffff;
#X obj -96 52 cnv 6 10 15 empty empty YPRrotation 5 8 0 12 #ffffff #000000;
#X obj -170 72 cnv 1 225 20 empty \$0-argsdisplay empty 10 14 0 12 #e0e0e0 #404040;
#X obj -170 72 cnv 1 1 1 empty empty args: 0 6 0 8 #e0e0e0 #404040;
#X obj -175 122 loadbang ;
#X msg -175 152 args;
#X obj -175 182 pdcontrol ;
#X obj -175 212 l2s ;
#X msg -175 242 label \$1;
#X obj -175 272 s \$0-argsdisplay ;
#X obj -175 110 cnv 2 10 2 empty empty empty 20 12 0 14 #000000 #404040;
#X obj -175 100 cnv 10 75 10 empty empty rotation 5 6 0 8 #000000 #ffffff;
#X text -175 302 <<< Autogen GUI;
#X connect 9 1 7 0;
#X connect 1 0 10 0;
#X connect 10 1 7 0;
#X connect 5 0 4 0;
#X connect 4 0 3 0;
#X connect 11 1 7 0;
#X connect 8 0 5 2;
#X connect 9 2 8 0;
#X connect 2 0 11 0;
#X connect 10 2 8 0;
#X connect 6 0 5 0;
#X connect 0 0 9 0;
#X connect 11 2 8 0;
#X connect 9 0 6 0;
#X connect 10 0 6 0;
#X connect 7 0 5 1;
#X connect 11 0 6 0;
#X connect 26 0 27 0;
#X connect 27 0 28 0;
#X connect 28 0 29 0;
#X connect 29 0 30 0;
#X connect 30 0 31 0;
#X coords 0 0 1 1 235 75 2 -175 37;
