#N canvas 434 125 246 211 12;
#X obj 10 30 inlet;
#X text 10 10 go;
#X obj 10 140 outlet;
#X text 10 160 done;
#X obj 70 140 outlet;
#X obj 60 30 inlet;
#X text 60 10 joints;
#X obj 160 30 inlet;
#X text 160 10 objects;
#X text 70 160 chain;
#X obj 160 140 outlet;
#X text 160 160 objects;
#X obj 10 100 ik/chain;
#X obj 60 60 list-rev;
#X obj 160 60 list-rev;
#X connect 0 0 12 0;
#X connect 5 0 13 0;
#X connect 7 0 14 0;
#X connect 12 0 2 0;
#X connect 12 1 4 0;
#X connect 13 0 12 1;
#X connect 14 0 10 0;
