#N canvas 245 204 583 641 12;
#X text 140 10 name;
#X obj 140 30 inlet;
#X obj 210 30 inlet;
#X obj 380 30 inlet;
#X text 480 10 bounds;
#X obj 480 30 inlet;
#X obj 30 420 list prepend raw ikpy.link.URDFLink;
#X obj 30 450 fc_process 0;
#X obj 30 480 route ERROR;
#X obj 30 510 print FreeCAD Error;
#X obj 240 540 outlet;
#X obj 30 330 list append None;
#X obj 30 390 list append rpy True revolute;
#X text 380 10 rotation axis;
#X text 210 10 origin;
#X obj 210 70 placementPosRot;
#X obj 210 100 castList;
#X obj 380 100 castList;
#X obj 480 100 castList;
#X obj 30 30 inlet;
#X obj 30 70 b;
#X text 30 10 go;
#X obj 180 510 t b a;
#X obj 180 540 outlet;
#X text 180 560 done;
#X obj 30 360 list append list 2 None None;
#X obj 30 240 list append list 3 0 0 0;
#X obj 30 270 list append list 3 0 0 0;
#X obj 30 300 list append list 3 1 0 0;
#X obj 30 210 list append \$0;
#X obj 30 160 ik/ypr2rpy;
#X connect 1 0 29 1;
#X connect 2 0 15 0;
#X connect 3 0 17 0;
#X connect 5 0 18 0;
#X connect 6 0 7 0;
#X connect 7 0 8 0;
#X connect 8 0 9 0;
#X connect 8 1 22 0;
#X connect 11 0 25 0;
#X connect 12 0 6 0;
#X connect 15 0 16 0;
#X connect 15 1 30 1;
#X connect 16 0 26 1;
#X connect 17 0 28 1;
#X connect 18 0 25 1;
#X connect 19 0 20 0;
#X connect 20 0 30 0;
#X connect 22 0 23 0;
#X connect 22 1 10 0;
#X connect 25 0 12 0;
#X connect 26 0 27 0;
#X connect 27 0 28 0;
#X connect 28 0 11 0;
#X connect 29 0 26 0;
#X connect 30 0 29 0;
#X connect 30 1 27 1;
