#N canvas 590 380 450 300 12;
#X obj 110 40 inlet;
#X obj 10 130 fc_process;
#X obj 70 190 outlet;
#X obj 10 40 inlet;
#X obj 10 160 t b a;
#X obj 10 190 outlet;
#X msg 10 70 list bylabel;
#X obj 10 100 list append \$1;
#X text 111 14 label;
#X text 10 213 done;
#X text 72 212 object;
#X text 15 17 go;
#X connect 0 0 7 1;
#X connect 1 0 4 0;
#X connect 3 0 6 0;
#X connect 4 0 5 0;
#X connect 4 1 2 0;
#X connect 6 0 7 0;
#X connect 7 0 1 0;
