#N canvas 135 338 450 325 12;
#X obj 40 10 fc_selObserver;
#N canvas 1069 327 450 325 showtext 0;
#X obj 110 50 inlet;
#X obj 110 170 s \$0-showtext;
#X obj 20 20 cnv 1 1 1 empty \$0-showtext empty 0 10 0 10 #e0e0e0 #404040
0;
#X obj 110 110 list prepend label;
#X obj 110 140 list trim;
#X msg 260 110 label empty;
#X obj 260 50 inlet;
#X obj 260 79 b;
#X obj 110 80 l2s;
#X connect 0 0 8 0;
#X connect 3 0 4 0;
#X connect 4 0 1 0;
#X connect 5 0 1 0;
#X connect 6 0 7 0;
#X connect 7 0 5 0;
#X connect 8 0 3 0;
#X coords 0 -1 1 1 113 23 2 17 19;
#X restore 170 60 pd showtext;
#X obj 40 70 route None;
#X obj 100 220 outlet;
#X obj 170 40 tgl 15 0 empty empty Click\\\ n'\\\ select 17 7 0 10
#fcfcfc #000000 #000000 0 1;
#X obj 40 40 spigot;
#X msg 170 10 0;
#X obj 100 180 any;
#X obj 140 111 inlet;
#X obj 140 140 b;
#X connect 0 0 5 0;
#X connect 2 1 6 0;
#X connect 2 1 1 0;
#X connect 2 1 7 0;
#X connect 4 0 5 1;
#X connect 5 0 2 0;
#X connect 6 0 4 0;
#X connect 7 0 3 0;
#X connect 8 0 9 0;
#X connect 9 0 7 0;
#X coords 0 -1 1 1 120 51 2 167 36;
