#N canvas 191 267 1024 583 12;
#X obj 20 490 print FreeCAD_Error;
#X obj 20 10 inlet;
#N canvas 486 173 635 742 inlet-creator 0;
#X obj 100 120 until;
#X obj 100 150 f;
#X obj 130 150 + 1;
#X obj 100 90 - 1;
#X obj 90 520 iemguts/sendcanvas 1;
#X obj 100 20 inlet;
#X text 470 220 fc_process index;
#X obj 100 50 t f b;
#X obj 160 350 +;
#X obj 160 240 * 2;
#X obj 160 270 + 1;
#X obj 100 350 + 1;
#X obj 60 240 * 200;
#X obj 60 270 + 200;
#X text 200 430 x inlet_number new_inlet_id new_list_id fc_process_index
;
#X obj 90 430 pack f f f f f;
#X obj 100 180 t f f f f b;
#X obj 130 350 +;
#X obj 130 240 * 2;
#X msg 90 470 obj \$1 10 inlet \, obj \$1 40 list prepend ctrlr \$2
\, connect \$3 0 \$4 0 \, connect \$4 0 \$5 0;
#X obj 190 20 inlet;
#X obj 200 300 +;
#X text 200 50 nb of outlet;
#X text 240 270 last id + 2;
#X msg 430 220 3;
#X floatatom 30 70 5 0 0 0 - - - 0;
#X msg 200 270 14;
#X connect 0 0 1 0;
#X connect 1 0 2 0;
#X connect 1 0 16 0;
#X connect 2 0 1 1;
#X connect 3 0 0 0;
#X connect 5 0 7 0;
#X connect 5 0 25 0;
#X connect 7 0 3 0;
#X connect 7 1 24 0;
#X connect 8 0 15 3;
#X connect 9 0 10 0;
#X connect 10 0 8 0;
#X connect 11 0 15 1;
#X connect 12 0 13 0;
#X connect 13 0 15 0;
#X connect 15 0 19 0;
#X connect 16 0 12 0;
#X connect 16 1 11 0;
#X connect 16 2 18 0;
#X connect 16 3 9 0;
#X connect 16 4 26 0;
#X connect 17 0 15 2;
#X connect 18 0 17 0;
#X connect 19 0 4 0;
#X connect 20 0 21 1;
#X connect 21 0 8 1;
#X connect 21 0 17 1;
#X connect 24 0 15 4;
#X connect 26 0 21 0;
#X restore 220 250 pd inlet-creator;
#X obj 20 220 fc_process 1;
#X obj 30 180 list prepend newctrlr;
#N canvas 416 29 1179 990 outlet-creator 0;
#X obj 190 410 until;
#X obj 190 440 f;
#X obj 220 440 + 1;
#X obj 190 690 iemguts/sendcanvas 1;
#X obj 190 10 inlet;
#X obj 150 530 * 200;
#X obj 190 470 t f f f f b;
#X obj 230 560 +;
#X obj 346 460 iemguts/sendcanvas 1;
#X text 310 310 last id + 1;
#X msg 370 140 0 1 2 3 4 5 6 7 8 9 10 11 12 13 14 15 16 17 18 19 20
;
#X obj 410 170 list split;
#X obj 346 400 pack f f;
#X obj 410 229 list trim;
#X obj 410 260 iemguts/sendcanvas 1;
#X text 280 520 last id + 2;
#X obj 150 560 + 500;
#X text 300 630 x outlet_number new_outlet_id route_index;
#X msg 190 660 obj \$1 400 outlet \, connect \$4 \$2 \$3 0;
#X text 436 400 new_route_id route_index;
#X obj 410 200 list prepend obj 500 360 route;
#X obj 190 60 t f b b b b f;
#X obj 190 630 pack f f f f;
#X obj 280 339 t f f;
#X text 440 310 [route ERROR] index;
#X msg 346 430 connect \$2 1 \$1 0;
#X msg 280 310 13;
#X msg 250 520 14;
#X msg 410 310 12;
#X connect 0 0 1 0;
#X connect 1 0 2 0;
#X connect 1 0 6 0;
#X connect 2 0 1 1;
#X connect 4 0 21 0;
#X connect 5 0 16 0;
#X connect 6 0 5 0;
#X connect 6 1 22 1;
#X connect 6 2 7 0;
#X connect 6 4 27 0;
#X connect 7 0 22 2;
#X connect 10 0 11 0;
#X connect 11 0 20 0;
#X connect 12 0 25 0;
#X connect 13 0 14 0;
#X connect 16 0 22 0;
#X connect 18 0 3 0;
#X connect 20 0 13 0;
#X connect 21 0 0 0;
#X connect 21 1 26 0;
#X connect 21 3 28 0;
#X connect 21 4 10 0;
#X connect 21 5 11 1;
#X connect 22 0 18 0;
#X connect 23 0 22 3;
#X connect 23 1 12 0;
#X connect 25 0 8 0;
#X connect 26 0 23 0;
#X connect 27 0 7 1;
#X connect 28 0 12 1;
#X restore 350 250 pd outlet-creator;
#X obj 20 40 list prepend ctrlr 0;
#N canvas 413 109 728 725 trouvebarre 0;
#X obj 130 220 list split 1;
#X obj 130 160 until;
#X obj 130 190 list append;
#X obj 210 250 bang;
#X obj 130 310 route |;
#X obj 130 280 list trim;
#X msg 170 420 1;
#X obj 130 470 spigot;
#X obj 190 470 spigot 1;
#X msg 240 420 0;
#X text 200 390 switch output when | found;
#X obj 170 530 + 1;
#X obj 130 390 t b b;
#X obj 250 530 + 1;
#X obj 130 588 f;
#X obj 210 590 f;
#X obj 210 280 s \$0-end;
#X obj 40 520 r \$0-end;
#X obj 130 630 outlet;
#X obj 200 80 s \$0-reset;
#X obj 130 40 t b a b;
#X obj 438 318 r \$0-reset;
#X obj 200 120 r \$0-end;
#X obj 180 350 t b b;
#X msg 440 350 0;
#X msg 500 350 1;
#X obj 500 380 t f f f;
#X obj 130 530 1;
#X obj 210 530 1;
#X obj 210 160 r \$0-reset;
#X obj 130 10 inlet;
#X text 200 10 This patch search for the | char and return right and
left element count;
#X obj 210 630 outlet;
#X obj 40 550 t b b;
#X connect 0 0 5 0;
#X connect 0 1 2 1;
#X connect 0 2 3 0;
#X connect 1 0 2 0;
#X connect 2 0 0 0;
#X connect 3 0 16 0;
#X connect 4 0 12 0;
#X connect 4 1 23 0;
#X connect 5 0 4 0;
#X connect 6 0 7 1;
#X connect 7 0 27 0;
#X connect 8 0 28 0;
#X connect 9 0 8 1;
#X connect 11 0 27 1;
#X connect 12 0 6 0;
#X connect 12 1 9 0;
#X connect 13 0 28 1;
#X connect 14 0 32 0;
#X connect 15 0 18 0;
#X connect 17 0 33 0;
#X connect 20 0 1 0;
#X connect 20 1 2 1;
#X connect 20 2 19 0;
#X connect 21 0 24 0;
#X connect 21 0 25 0;
#X connect 22 0 1 1;
#X connect 23 0 7 0;
#X connect 23 1 8 0;
#X connect 24 0 7 1;
#X connect 25 0 26 0;
#X connect 26 0 8 1;
#X connect 26 1 27 1;
#X connect 26 2 28 1;
#X connect 27 0 11 0;
#X connect 27 0 14 1;
#X connect 28 0 13 0;
#X connect 28 0 15 1;
#X connect 29 0 2 1;
#X connect 30 0 20 0;
#X connect 33 0 15 0;
#X connect 33 1 14 0;
#X restore 230 180 pd trouvebarre;
#X obj 30 140 t a a;
#X obj 330 210 t f f;
#X obj 20 250 route ERROR;
#X obj 30 111 else/args;
#X obj 30 81 else/lb -init;
#X connect 1 0 6 0;
#X connect 3 0 10 0;
#X connect 4 0 3 0;
#X connect 6 0 3 0;
#X connect 7 0 2 0;
#X connect 7 1 9 0;
#X connect 8 0 4 0;
#X connect 8 1 7 0;
#X connect 9 0 2 1;
#X connect 9 1 5 0;
#X connect 10 0 0 0;
#X connect 11 0 8 0;
#X connect 12 0 11 0;
