#N canvas 774 397 450 300 12;
#X obj 110 20 inlet;
#X obj 110 50 list prepend delete;
#X obj 20 140 fc_process 1;
#X obj 20 20 inlet;
#X obj 20 110 list;
#X obj 20 200 outlet;
#X obj 20 170 b;
#X obj 20 50 b;
#X text 20 0 go;
#X text 20 220 done;
#X text 110 0 object;
#X connect 0 0 1 0;
#X connect 1 0 4 1;
#X connect 2 0 6 0;
#X connect 3 0 7 0;
#X connect 4 0 2 0;
#X connect 6 0 5 0;
#X connect 7 0 4 0;
