#N canvas 290 229 649 571 12;
#X obj 110 30 inlet;
#X obj 205 30 inlet;
#X obj 220 380 outlet;
#X obj 10 290 fc_process;
#X obj 110 120 list trim;
#X obj 110 60 list append \$1;
#X obj 110 90 list prepend get property;
#X obj 10 320 route ERROR;
#X obj 10 370 print FreeCAD Error;
#X text 110 10 Object;
#X text 204 10 Property;
#X obj 130 180 list length;
#X obj 130 210 == 4;
#X obj 10 260 spigot;
#X obj 110 149 t a a;
#X obj 10 30 inlet;
#X obj 10 230 list;
#X obj 160 350 t b a;
#X obj 160 380 outlet;
#X text 10 10 go;
#X text 160 400 done;
#X text 226 403 value;
#X connect 0 0 5 0;
#X connect 1 0 5 1;
#X connect 3 0 7 0;
#X connect 4 0 14 0;
#X connect 5 0 6 0;
#X connect 6 0 4 0;
#X connect 7 0 8 0;
#X connect 7 1 17 0;
#X connect 11 0 12 0;
#X connect 12 0 13 1;
#X connect 13 0 3 0;
#X connect 14 0 16 1;
#X connect 14 1 11 0;
#X connect 15 0 16 0;
#X connect 16 0 13 0;
#X connect 17 0 18 0;
#X connect 17 1 2 0;
