#N canvas 722 243 570 320 12;
#X obj 10 71 fc_process;
#X obj 10 41 list prepend giveme;
#X obj 10 100 route ERROR;
#X obj 10 210 symbol;
#X obj 10 11 inlet;
#X obj 10 290 iemguts/sendcanvas 1;
#X obj 90 130 t a b;
#X obj 120 160 outlet;
#X text 70 210 create and select and cut the object in this patch;
#X obj 359 353 s \$0-close;
#X msg 10 240 obj 1000 1000 \$1 \, vis 1 \, editmode 1 \, mouse 999
999 0 0 0 \, mouseup 1100 1100 0 \, cut \, editmode 0 \, vis 0 \, dirty
0;
#X connect 0 0 2 0;
#X connect 1 0 0 0;
#X connect 2 1 6 0;
#X connect 3 0 10 0;
#X connect 4 0 1 0;
#X connect 6 0 3 0;
#X connect 6 1 7 0;
#X connect 10 0 5 0;
#X coords 0 0 1 1 175 44 0;
