#N canvas 914 509 450 325 12;
#X obj 20 30 inlet;
#X text 20 10 go;
#X obj 20 150 fc_process;
#X obj 20 60 b;
#X obj 20 120 list append;
#X obj 100 30 inlet;
#X text 100 10 object;
#X msg 20 90 is object;
#X obj 20 180 route ERROR;
#X obj 20 210 print FreeCAD Error;
#X obj 170 240 outlet;
#X text 170 260 done;
#X obj 170 210 t b a;
#X obj 230 240 outlet;
#X text 230 260 True/False;
#X connect 0 0 3 0;
#X connect 2 0 8 0;
#X connect 3 0 7 0;
#X connect 4 0 2 0;
#X connect 5 0 4 1;
#X connect 7 0 4 0;
#X connect 8 0 9 0;
#X connect 8 1 12 0;
#X connect 12 0 10 0;
#X connect 12 1 13 0;
