#N canvas 612 341 450 300 12;
#X obj 110 50 inlet;
#X obj 110 80 list prepend link;
#X obj 90 230 outlet;
#X obj 30 170 fc_process;
#X obj 30 50 inlet;
#X obj 30 140 list;
#X obj 30 200 t b a;
#X obj 30 230 outlet;
#X text 30 30 go;
#X text 30 250 done;
#X text 110 31 object;
#X text 92 251 link;
#X connect 0 0 1 0;
#X connect 1 0 5 1;
#X connect 3 0 6 0;
#X connect 4 0 5 0;
#X connect 5 0 3 0;
#X connect 6 0 7 0;
#X connect 6 1 2 0;
