#N canvas 553 395 517 460 12;
#X obj 20 210 fc_process;
#X msg 290 140 remobserver;
#X obj 90 270 outlet;
#X obj 270 50 closebang;
#X obj 200 50 inlet;
#X obj 80 50 loadbang;
#X obj 200 100 t a b;
#X obj 80 80 list prepend \$1;
#X obj 100 140 list prepend objobserver;
#X obj 20 80 inlet;
#X obj 20 170 list;
#X obj 20 240 t b a;
#X obj 20 270 outlet;
#X text 20 60 go;
#X text 20 290 done;
#X text 203 26 object;
#X text 91 292 bang;
#X connect 0 0 11 0;
#X connect 1 0 0 0;
#X connect 3 0 1 0;
#X connect 4 0 6 0;
#X connect 5 0 7 0;
#X connect 6 0 8 0;
#X connect 6 1 1 0;
#X connect 7 0 8 0;
#X connect 8 0 10 1;
#X connect 9 0 10 0;
#X connect 10 0 0 0;
#X connect 11 0 12 0;
#X connect 11 1 2 0;
