#N canvas 595 381 450 325 12;
#X obj 10 200 fc_process;
#X msg 220 130 remobserver;
#X obj 70 260 outlet;
#X obj 200 40 closebang;
#X obj 130 40 inlet;
#X obj 10 40 loadbang;
#X obj 130 90 t a b;
#X obj 10 70 list prepend \$1;
#X obj 10 230 t b a;
#X obj 10 260 outlet;
#X text 10 280 done;
#X obj 30 130 list prepend onMove;
#X text 70 280 placement;
#X text 130 16 object;
#X connect 0 0 8 0;
#X connect 1 0 0 0;
#X connect 3 0 1 0;
#X connect 4 0 6 0;
#X connect 5 0 7 0;
#X connect 6 0 11 0;
#X connect 6 1 1 0;
#X connect 7 0 11 0;
#X connect 8 0 9 0;
#X connect 8 1 2 0;
#X connect 11 0 0 0;
