#N canvas 603 232 455 444 12;
#X obj 20 20 inlet;
#X obj 20 80 list trim;
#X obj 20 110 s fc_input;
#X obj 20 170 r fc_output;
#X obj 20 200 route \$0;
#X obj 110 330 outlet;
#X text 20 140 FreeCAD pdserver is here !;
#X obj 20 50 list prepend \$0;
#X obj 50 270 \$1;
#X obj 50 230 t b b a;
#X obj 10 300 spigot;
#X obj 10 330 fc_recompute;
#X obj 220 20 inlet;
#X text 220 0 recompute;
#X connect 0 0 7 0;
#X connect 1 0 2 0;
#X connect 3 0 4 0;
#X connect 4 0 9 0;
#X connect 7 0 1 0;
#X connect 8 0 10 1;
#X connect 9 0 10 0;
#X connect 9 1 8 0;
#X connect 9 2 5 0;
#X connect 10 0 11 0;
#X connect 12 0 8 1;
