#N canvas 497 338 555 485 12;
#X obj 150 30 inlet;
#X obj 240 30 inlet;
#X obj 10 180 fc_process;
#X obj 70 30 inlet;
#X text 70 10 Value;
#X text 150 10 Object;
#X text 240 10 Property;
#X obj 10 210 route ERROR;
#X obj 10 240 print FreeCAD Error;
#X obj 10 30 inlet;
#X text 10 10 go;
#X obj 10 90 list append;
#X msg 10 60 list set property;
#X obj 10 120 list append \$1;
#X obj 10 150 list append;
#X obj 160 270 outlet;
#X text 160 290 done;
#X obj 160 240 b;
#X connect 0 0 11 1;
#X connect 1 0 13 1;
#X connect 2 0 7 0;
#X connect 3 0 14 1;
#X connect 7 0 8 0;
#X connect 7 1 17 0;
#X connect 9 0 12 0;
#X connect 11 0 13 0;
#X connect 12 0 11 0;
#X connect 13 0 14 0;
#X connect 14 0 2 0;
#X connect 17 0 15 0;
