#N canvas 751 431 450 375 12;
#X msg 100 80 selobserver;
#X obj 100 120 fc_process;
#X msg 200 80 remobserver;
#X obj 190 230 outlet;
#X obj 200 50 closebang;
#X obj 100 50 loadbang;
#X obj 100 150 route OK None;
#X obj 150 190 b;
#X text 193 256 selection;
#X connect 0 0 1 0;
#X connect 1 0 6 0;
#X connect 2 0 1 0;
#X connect 4 0 2 0;
#X connect 5 0 0 0;
#X connect 6 1 7 0;
#X connect 6 2 3 0;
#X connect 7 0 3 0;
