#N canvas 733 260 561 575 12;
#X obj 140 30 inlet;
#X obj 221 30 inlet;
#X obj 10 210 fc_process;
#X obj 60 30 inlet;
#X text 60 10 Value;
#X text 140 10 Sketch;
#X text 220 10 Constraint;
#X obj 10 30 inlet;
#X text 10 10 go;
#X obj 10 140 list append \$1;
#X msg 10 70 list set constraint;
#X obj 10 170 list append;
#X obj 10 110 list append;
#X obj 10 241 route ERROR;
#X obj 10 271 print FreeCAD Error;
#X obj 160 301 outlet;
#X text 160 321 done;
#X obj 160 271 b;
#X connect 0 0 12 1;
#X connect 1 0 9 1;
#X connect 2 0 13 0;
#X connect 3 0 11 1;
#X connect 7 0 10 0;
#X connect 9 0 11 0;
#X connect 10 0 12 0;
#X connect 11 0 2 0;
#X connect 12 0 9 0;
#X connect 13 0 14 0;
#X connect 13 1 17 0;
#X connect 17 0 15 0;
