#N canvas 770 367 555 485 12;
#X obj 150 30 inlet;
#X obj 10 180 fc_process;
#X obj 70 30 inlet;
#X text 150 10 Object;
#X obj 10 210 route ERROR;
#X obj 10 240 print FreeCAD Error;
#X obj 10 30 inlet;
#X text 10 10 go;
#X obj 10 120 list append;
#X obj 10 150 list append;
#X obj 160 270 outlet;
#X text 160 290 done;
#X obj 160 240 b;
#X msg 10 90 list set properties;
#X text 70 10 Properties;
#X obj 10 60 b;
#X connect 0 0 8 1;
#X connect 1 0 4 0;
#X connect 2 0 9 1;
#X connect 4 0 5 0;
#X connect 4 1 12 0;
#X connect 6 0 15 0;
#X connect 8 0 9 0;
#X connect 9 0 1 0;
#X connect 12 0 10 0;
#X connect 13 0 8 0;
#X connect 15 0 13 0;
