#N canvas 520 172 559 516 12;
#X obj 140 30 inlet;
#X obj 160 210 list append Placement;
#X obj 390 30 inlet;
#X text 140 10 vector \, placement or object;
#X obj 10 270 +;
#X obj 50 270 +;
#X obj 90 270 +;
#X obj 10 210 unpack f f f;
#X obj 150 420 outlet;
#X obj 140 129 route Vector Pos Placement;
#X text 390 10 vector;
#X obj 330 210 fc_getObjectProperty Placement;
#X obj 330 320 fc_setObjectProperty Placement;
#X obj 360 290 t a a;
#X obj 330 350 fc_recompute;
#X obj 30 240 vectorXYZ;
#X obj 30 300 XYZvector;
#X obj 160 270 translatePlacement;
#X obj 360 260 translatePlacement;
#X obj 10 30 inlet;
#X text 10 10 go;
#X obj 10 420 outlet;
#X text 10 440 done;
#X obj 124 350 t b a;
#X obj 10 60 b;
#X obj 140 100 any;
#X obj 330 180 t b a a;
#X text 145 440 vector or placement;
#X connect 0 0 25 1;
#X connect 1 0 17 0;
#X connect 2 0 15 0;
#X connect 2 0 18 1;
#X connect 2 0 17 1;
#X connect 4 0 16 0;
#X connect 5 0 16 1;
#X connect 6 0 16 2;
#X connect 7 0 4 0;
#X connect 7 1 5 0;
#X connect 7 2 6 0;
#X connect 9 0 7 0;
#X connect 9 1 7 0;
#X connect 9 2 1 0;
#X connect 9 3 26 0;
#X connect 11 0 12 0;
#X connect 11 1 18 0;
#X connect 12 0 14 0;
#X connect 12 0 21 0;
#X connect 13 0 8 0;
#X connect 13 1 12 1;
#X connect 15 0 4 1;
#X connect 15 1 5 1;
#X connect 15 2 6 1;
#X connect 16 0 23 0;
#X connect 17 0 23 0;
#X connect 18 0 13 0;
#X connect 19 0 24 0;
#X connect 23 0 21 0;
#X connect 23 1 8 0;
#X connect 24 0 25 0;
#X connect 25 0 9 0;
#X connect 26 0 11 0;
#X connect 26 1 11 1;
#X connect 26 2 12 2;
