#N canvas 862 126 570 570 12;
#X obj 50 40 inlet;
#X msg 210 310 0;
#X obj 100 210 list split 1;
#X obj 100 240 list trim;
#X obj 100 110 route list;
#X obj 210 210 list length;
#X obj 100 140 t a a;
#X obj 100 310 ==;
#X obj 210 240 - 1;
#X obj 50 70 t b a;
#X obj 30 430 spigot;
#X obj 30 460 outlet;
#X obj 148 394 == 0;
#X obj 100 430 spigot;
#X obj 104 346 t f f;
#X obj 100 460 outlet;
#X obj 100 270 route float;
#X text 54 16 value;
#X text 30 485 True;
#X text 102 487 False;
#X connect 0 0 9 0;
#X connect 1 0 14 0;
#X connect 2 0 3 0;
#X connect 2 2 1 0;
#X connect 3 0 16 0;
#X connect 4 0 6 0;
#X connect 4 1 1 0;
#X connect 5 0 8 0;
#X connect 6 0 2 0;
#X connect 6 1 5 0;
#X connect 7 0 14 0;
#X connect 8 0 7 1;
#X connect 9 0 10 0;
#X connect 9 0 13 0;
#X connect 9 1 4 0;
#X connect 10 0 11 0;
#X connect 12 0 13 1;
#X connect 13 0 15 0;
#X connect 14 0 10 1;
#X connect 14 1 12 0;
#X connect 16 0 7 0;
#X connect 16 1 1 0;
