#N canvas 588 235 604 638 12;
#X obj 90 40 inlet;
#X obj 270 40 inlet;
#X obj 90 200 list prepend Placement;
#X obj 90 70 t a a;
#X obj 90 160 spigot;
#X obj 270 70 t a a;
#X obj 270 160 spigot;
#X obj 90 290 outlet;
#X msg 120 130 1;
#X msg 300 130 1;
#X obj 120 100 isVector;
#X obj 300 100 isRotation;
#X obj 90 230 list append Rot 0 0 0;
#X obj 90 260 list trim;
#X text 91 317 placement;
#X text 90 13 vector;
#X text 275 17 rotation;
#X connect 0 0 3 0;
#X connect 1 0 5 0;
#X connect 2 0 12 0;
#X connect 3 0 4 0;
#X connect 3 1 10 0;
#X connect 4 0 2 0;
#X connect 5 0 6 0;
#X connect 5 1 11 0;
#X connect 6 0 12 1;
#X connect 8 0 4 1;
#X connect 9 0 6 1;
#X connect 10 0 8 0;
#X connect 11 0 9 0;
#X connect 12 0 13 0;
#X connect 13 0 7 0;
