#N canvas 712 305 328 449 12;
#X obj 10 110 until;
#X obj 10 140 f;
#X obj 40 140 + 1;
#X msg 60 110 0;
#X obj 10 10 inlet;
#X obj 30 380 outlet;
#X obj 110 10 inlet;
#X obj 60 250 until;
#X obj 60 280 f;
#X obj 90 280 + 1;
#X msg 110 250 0;
#X obj 30 350 f;
#X obj 60 320 t b f;
#X obj 90 380 outlet;
#X obj 10 80 t f b;
#X obj 10 170 t b f b;
#X obj 60 220 \$2;
#X obj 10 50 \$1;
#X connect 0 0 1 0;
#X connect 1 0 2 0;
#X connect 1 0 15 0;
#X connect 2 0 1 1;
#X connect 3 0 1 1;
#X connect 4 0 17 0;
#X connect 6 0 16 1;
#X connect 7 0 8 0;
#X connect 8 0 9 0;
#X connect 8 0 12 0;
#X connect 9 0 8 1;
#X connect 10 0 8 1;
#X connect 11 0 5 0;
#X connect 12 0 11 0;
#X connect 12 1 13 0;
#X connect 14 0 0 0;
#X connect 14 1 3 0;
#X connect 15 0 16 0;
#X connect 15 1 11 1;
#X connect 15 2 10 0;
#X connect 16 0 7 0;
#X connect 17 0 14 0;
