#N canvas 283 309 450 375 12;
#X obj 230 40 inlet;
#X obj 30 40 inlet;
#X obj 30 80 t a a;
#X obj 30 290 outlet;
#X obj 30 200 +;
#X obj 70 200 +;
#X obj 110 200 +;
#X obj 30 110 placementPosRot;
#X obj 30 230 XYZvector;
#X obj 30 260 setPlacementRot;
#X obj 230 140 rotationYPR;
#X obj 30 140 rotationYPR;
#X text 32 312 placement;
#X text 30 10 placement;
#X text 230 10 rotation;
#X connect 0 0 10 0;
#X connect 1 0 2 0;
#X connect 2 0 7 0;
#X connect 2 1 9 1;
#X connect 4 0 8 0;
#X connect 5 0 8 1;
#X connect 6 0 8 2;
#X connect 7 1 11 0;
#X connect 8 0 9 0;
#X connect 9 0 3 0;
#X connect 10 0 4 1;
#X connect 10 1 5 1;
#X connect 10 2 6 1;
#X connect 11 0 4 0;
#X connect 11 1 5 0;
#X connect 11 2 6 0;
