#N canvas 585 379 450 300 12;
#X obj 10 10 inlet;
#X msg 10 90 1;
#X msg 140 90 0;
#X obj 10 150 outlet;
#X obj 10 39 route True 1 0;
#X msg 50 90 True;
#X msg 90 90 False;
#X connect 0 0 4 0;
#X connect 1 0 3 0;
#X connect 2 0 3 0;
#X connect 4 0 1 0;
#X connect 4 1 5 0;
#X connect 4 2 6 0;
#X connect 4 3 2 0;
#X connect 5 0 3 0;
#X connect 6 0 3 0;
