#N canvas 334 453 450 373 12;
#X obj 300 50 inlet;
#X obj 130 50 inlet;
#X obj 130 80 t a a;
#X obj 130 280 outlet;
#X obj 130 180 +;
#X obj 170 180 +;
#X obj 210 180 +;
#X obj 130 120 placementPosRot;
#X obj 300 80 vectorXYZ;
#X obj 130 150 vectorXYZ;
#X obj 130 250 setPlacementPos;
#X obj 130 220 XYZvector;
#X text 131 302 placement;
#X text 130 20 placement;
#X text 299 24 vector;
#X connect 0 0 8 0;
#X connect 1 0 2 0;
#X connect 2 0 7 0;
#X connect 2 1 10 1;
#X connect 4 0 11 0;
#X connect 5 0 11 1;
#X connect 6 0 11 2;
#X connect 7 0 9 0;
#X connect 8 0 4 1;
#X connect 8 1 5 1;
#X connect 8 2 6 1;
#X connect 9 0 4 0;
#X connect 9 1 5 0;
#X connect 9 2 6 0;
#X connect 10 0 3 0;
#X connect 11 0 10 0;
