#N canvas 648 431 450 350 12;
#X obj 80 40 inlet;
#X obj 140 40 inlet;
#X obj 200 40 inlet;
#X obj 90 260 outlet;
#X msg 90 230 Yaw-Pitch-Roll \$1 \$2 \$3;
#X obj 90 200 pack \$1 \$2 \$3;
#X obj 90 160 f;
#X obj 130 160 f;
#X obj 170 160 f;
#X obj 80 70 t f b b;
#X obj 140 70 t b f b;
#X obj 200 70 t b b f;
#X text 80 17 yaw;
#X text 140 17 pitch;
#X text 203 17 roll;
#X text 92 283 rotation;
#X connect 0 0 9 0;
#X connect 1 0 10 0;
#X connect 2 0 11 0;
#X connect 4 0 3 0;
#X connect 5 0 4 0;
#X connect 6 0 5 0;
#X connect 7 0 5 1;
#X connect 8 0 5 2;
#X connect 9 0 6 0;
#X connect 9 1 7 0;
#X connect 9 2 8 0;
#X connect 10 0 6 0;
#X connect 10 1 7 0;
#X connect 10 2 8 0;
#X connect 11 0 6 0;
#X connect 11 1 7 0;
#X connect 11 2 8 0;
#X coords 0 0 1 1 85 60 0;
