#N canvas 326 58 1240 906 12;
#N canvas 1074 328 450 350 showtext 0;
#X obj 110 50 inlet;
#X obj 110 170 s \$0-showtext;
#X obj 20 20 cnv 1 1 1 empty \$0-showtext Done! 0 10 0 10 #e0e0e0 #404040
0;
#X obj 110 110 list prepend label;
#X obj 110 140 list trim;
#X obj 110 80 list2symbol;
#X msg 260 110 label empty;
#X obj 260 50 inlet;
#X obj 260 79 b;
#X connect 0 0 5 0;
#X connect 3 0 4 0;
#X connect 4 0 1 0;
#X connect 5 0 3 0;
#X connect 6 0 1 0;
#X connect 7 0 8 0;
#X connect 8 0 6 0;
#X coords 0 -1 1 1 401 21 2 17 19;
#X restore 740 140 pd showtext;
#X obj 100 10 keyname;
#X obj 80 260 spigot;
#X msg 130 230 0;
#X msg 170 230 1;
#X obj 580 390 list prepend;
#X obj 560 460 mergefilename;
#X obj 100 50 spigot;
#X text 100 290 filter special;
#X text 500 360 store and concatenate;
#X obj 80 420 list fromsymbol;
#X obj 80 570 list tosymbol;
#X obj 80 540 list split;
#X obj 170 480 list length;
#X obj 170 510 - 1;
#X obj 80 450 t a a;
#X obj 80 390 any;
#X text 190 570 text without last char;
#X obj 80 320 select BackSpace Shift Control Up Down Right Left Escape
Alt Tab Delete, f 72;
#X obj 500 10 key;
#X obj 500 40 select 10;
#X obj 530 190 outlet;
#X obj 530 160 symbol;
#X obj 700 10 inlet;
#X obj 100 110 spigot;
#X obj 560 489 s \$0-text;
#X obj 750 110 r \$0-text;
#X obj 570 130 r \$0-text;
#X obj 100 360 r \$0-text;
#X obj 140 80 r \$0-active;
#X obj 717 140 tgl 21 0 empty empty empty 17 7 0 10 #fcfcfc #000000
#000000 0 1;
#X obj 717 172 s \$0-active;
#X obj 490 390 r \$0-merge;
#X obj 700 39 s \$0-merge;
#X obj 80 600 s \$0-merge;
#X text 230 200 filter high rate;
#X text 580 40 Enter to flush;
#X obj 377 8 keyname;
#X obj 388 40 select Shift;
#X obj 370 72 1;
#X obj 370 101 - 1;
#X obj 370 130 * -200;
#X obj 170 200 del 0;
#X floatatom 370 170 5 0 0 0 - - -, f 5;
#X obj 100 140 t b b s;
#X obj 500 100 spigot;
#X obj 540 70 r \$0-active;
#X text 160 50 on key release;
#X obj 500 220 s \$0-reinit;
#X obj 700 80 r \$0-reinit;
#X obj 200 140 r \$0-reinit;
#X msg 200 169 0;
#X obj 400 390 r \$0-reinit;
#X obj 400 420 bang;
#X obj 820 10 loadbang;
#X obj 820 39 s \$0-reinit;
#X obj 500 130 t b a;
#X obj 310 390 r \$0-active;
#X msg 700 110 set 0;
#X connect 1 0 7 1;
#X connect 1 1 7 0;
#X connect 2 0 18 0;
#X connect 3 0 2 1;
#X connect 4 0 2 1;
#X connect 5 0 6 0;
#X connect 6 0 25 0;
#X connect 6 0 5 1;
#X connect 7 0 24 0;
#X connect 10 0 15 0;
#X connect 11 0 34 0;
#X connect 12 0 11 0;
#X connect 13 0 14 0;
#X connect 14 0 12 1;
#X connect 15 0 12 0;
#X connect 15 1 13 0;
#X connect 16 0 10 0;
#X connect 18 0 16 0;
#X connect 18 10 6 0;
#X connect 18 11 5 0;
#X connect 19 0 20 0;
#X connect 20 0 45 0;
#X connect 22 0 21 0;
#X connect 23 0 33 0;
#X connect 24 0 44 0;
#X connect 26 0 0 0;
#X connect 27 0 22 1;
#X connect 28 0 16 1;
#X connect 29 0 24 1;
#X connect 30 0 31 0;
#X connect 32 0 6 0;
#X connect 37 0 39 1;
#X connect 37 1 38 0;
#X connect 38 0 39 0;
#X connect 39 0 40 0;
#X connect 40 0 41 0;
#X connect 41 0 43 0;
#X connect 42 0 4 0;
#X connect 43 0 42 1;
#X connect 44 0 42 0;
#X connect 44 1 3 0;
#X connect 44 2 2 0;
#X connect 45 0 56 0;
#X connect 46 0 45 1;
#X connect 49 0 58 0;
#X connect 50 0 51 0;
#X connect 51 0 42 1;
#X connect 52 0 53 0;
#X connect 53 0 6 0;
#X connect 54 0 55 0;
#X connect 56 0 48 0;
#X connect 56 1 22 0;
#X connect 57 0 53 0;
#X connect 58 0 30 0;
#X coords 0 -1 1 1 426 23 2 716 139;
