#N canvas 205 283 1024 558 12;
#X obj 20 360 print FreeCAD_Error;
#X obj 20 10 inlet;
#N canvas 290 183 575 667 inlet-creator 0;
#X obj 100 120 until;
#X obj 100 150 f;
#X obj 130 150 + 1;
#X obj 100 90 - 1;
#X obj 90 520 sendcanvas 1;
#X obj 100 20 inlet;
#X text 470 220 fc_process index;
#X obj 100 50 t f b;
#X obj 160 350 +;
#X obj 160 240 * 2;
#X obj 160 270 + 1;
#X obj 100 350 + 1;
#X obj 60 240 * 200;
#X obj 60 270 + 200;
#X text 200 430 x inlet_number new_inlet_id new_list_id fc_process_index
;
#X obj 90 430 pack f f f f f;
#X obj 100 180 t f f f f b;
#X obj 130 350 +;
#X obj 130 240 * 2;
#X msg 90 470 obj \$1 10 inlet \, obj \$1 40 list prepend ctrlr \$2
\, connect \$3 0 \$4 0 \, connect \$4 0 \$5 0;
#X obj 190 20 inlet;
#X obj 200 300 +;
#X text 200 50 nb of outlet;
#X msg 200 270 12;
#X text 240 270 last id + 2;
#X msg 430 220 3;
#X connect 0 0 1 0;
#X connect 1 0 2 0;
#X connect 1 0 16 0;
#X connect 2 0 1 1;
#X connect 3 0 0 0;
#X connect 5 0 7 0;
#X connect 7 0 3 0;
#X connect 7 1 25 0;
#X connect 8 0 15 3;
#X connect 9 0 10 0;
#X connect 10 0 8 0;
#X connect 11 0 15 1;
#X connect 12 0 13 0;
#X connect 13 0 15 0;
#X connect 15 0 19 0;
#X connect 16 0 12 0;
#X connect 16 1 11 0;
#X connect 16 2 18 0;
#X connect 16 3 9 0;
#X connect 16 4 23 0;
#X connect 17 0 15 2;
#X connect 18 0 17 0;
#X connect 19 0 4 0;
#X connect 20 0 21 1;
#X connect 21 0 8 1;
#X connect 21 0 17 1;
#X connect 23 0 21 0;
#X connect 25 0 15 4;
#X restore 170 430 pd inlet-creator;
#X obj 20 230 fc_process;
#X obj 30 151 iemlib/dollarg;
#X obj 30 180 list prepend newctrlr;
#X obj 20 310 route ERROR SERVICE;
#X obj 170 360 unpack f f;
#N canvas 416 29 1179 990 outlet-creator 0;
#X obj 190 410 until;
#X obj 190 440 f;
#X obj 220 440 + 1;
#X obj 190 690 sendcanvas 1;
#X obj 190 10 inlet;
#X msg 250 520 12;
#X obj 150 530 * 200;
#X obj 190 470 t f f f f b;
#X obj 230 560 +;
#X text 440 310 [route ERROR SERVICE] index;
#X obj 346 460 sendcanvas 1;
#X text 310 310 last id + 1;
#X msg 280 310 11;
#X msg 370 140 0 1 2 3 4 5 6 7 8 9 10 11 12 13 14 15 16 17 18 19 20
;
#X obj 410 170 list split;
#X obj 346 400 pack f f;
#X obj 410 229 list trim;
#X obj 410 260 sendcanvas 1;
#X text 280 520 last id + 2;
#X obj 150 560 + 500;
#X text 300 630 x outlet_number new_outlet_id route_index;
#X msg 190 660 obj \$1 400 outlet \, connect \$4 \$2 \$3 0;
#X text 436 400 new_route_id route_index;
#X msg 346 430 connect \$2 2 \$1 0;
#X msg 410 310 6;
#X obj 410 200 list prepend obj 500 360 route;
#X obj 190 60 t f b b b b f;
#X obj 190 630 pack f f f f;
#X obj 280 339 t f f;
#X connect 0 0 1 0;
#X connect 1 0 2 0;
#X connect 1 0 7 0;
#X connect 2 0 1 1;
#X connect 4 0 26 0;
#X connect 5 0 8 1;
#X connect 6 0 19 0;
#X connect 7 0 6 0;
#X connect 7 1 27 1;
#X connect 7 2 8 0;
#X connect 7 4 5 0;
#X connect 8 0 27 2;
#X connect 12 0 28 0;
#X connect 13 0 14 0;
#X connect 14 0 25 0;
#X connect 15 0 23 0;
#X connect 16 0 17 0;
#X connect 19 0 27 0;
#X connect 21 0 3 0;
#X connect 23 0 10 0;
#X connect 24 0 15 1;
#X connect 25 0 16 0;
#X connect 26 0 0 0;
#X connect 26 1 12 0;
#X connect 26 3 24 0;
#X connect 26 4 13 0;
#X connect 26 5 14 1;
#X connect 27 0 21 0;
#X connect 28 0 27 3;
#X connect 28 1 15 0;
#X restore 300 430 pd outlet-creator;
#X obj 30 121 loadbang;
#X obj 20 40 list prepend ctrlr 0;
#X connect 1 0 10 0;
#X connect 3 0 6 0;
#X connect 4 0 5 0;
#X connect 5 0 3 0;
#X connect 6 0 0 0;
#X connect 6 1 7 0;
#X connect 7 0 2 0;
#X connect 7 1 2 1;
#X connect 7 1 8 0;
#X connect 9 0 4 0;
#X connect 10 0 3 0;
