#N struct draw-image-struct float x float y float w float h;
#N canvas 657 416 606 375 12;
#X obj 10 10 inlet;
#X obj 10 100 fc_process;
#X obj 10 130 outlet;
#X scalar draw-image-struct 310 70 0 0 \;;
#X obj 10 39 list prepend copy;
#X obj 10 70 list append \$1;
#X connect 0 0 4 0;
#X connect 1 0 2 0;
#X connect 4 0 5 0;
#X connect 5 0 1 0;
#X coords 0 0 1 1 53 48 0;
