#N canvas 1950 162 734 537 12;
#X obj 130 70 fc_isList;
#X obj 190 450 fc_list;
#X obj 130 100 list;
#X obj 190 100 list;
#X obj 130 10 inlet;
#X obj 130 490 outlet;
#X msg 190 420 \$1 \$2 \$3;
#X obj 130 40 t a a a;
#X obj 190 220 list;
#X obj 250 220 list;
#X obj 190 130 t a a a;
#X obj 190 190 fc_isVector;
#X obj 190 390 list trim;
#X obj 190 160 list trim;
#X obj 310 360 list;
#X obj 370 360 list;
#X obj 310 270 t a a a;
#X obj 310 300 list trim;
#X obj 310 330 fc_isRotation;
#X connect 0 0 2 0;
#X connect 0 1 3 0;
#X connect 1 0 5 0;
#X connect 2 0 5 0;
#X connect 3 0 10 0;
#X connect 4 0 7 0;
#X connect 6 0 1 0;
#X connect 7 0 0 0;
#X connect 7 1 2 1;
#X connect 7 2 3 1;
#X connect 8 0 12 0;
#X connect 9 0 16 0;
#X connect 10 0 13 0;
#X connect 10 1 8 1;
#X connect 10 2 9 1;
#X connect 11 0 8 0;
#X connect 11 1 9 0;
#X connect 12 0 6 0;
#X connect 13 0 11 0;
#X connect 14 0 12 0;
#X connect 15 0 5 0;
#X connect 16 0 17 0;
#X connect 16 1 14 1;
#X connect 16 2 15 1;
#X connect 17 0 18 0;
#X connect 18 0 14 0;
#X connect 18 1 15 0;
