#N canvas 354 216 1024 558 12;
#X obj 430 360 outlet;
#X obj 20 360 print FreeCAD_Error;
#X obj 280 140 inlet;
#N canvas 404 57 1179 962 inlet-creator 0;
#X obj 300 130 until;
#X obj 300 160 f;
#X obj 330 160 + 1;
#X msg 350 370 10;
#X obj 300 270 * 100;
#X obj 380 300 +;
#X text 490 140 last obj index;
#X obj 300 100 - 1;
#X obj 220 620 sendcanvas 1;
#X obj 300 370 + 250;
#X obj 380 370 + 0;
#X obj 410 370 + 1;
#X obj 440 370 - 1;
#X msg 90 580 connect \$1 0 \$2 0;
#X obj 90 480 pack f f;
#X text 150 430 list prepend index;
#X obj 90 420 f;
#X obj 300 520 spigot;
#X obj 340 490 == 0;
#X obj 300 190 t f b f f f f;
#X text 510 320 1st inlet index;
#X obj 380 330 t f f f;
#X msg 580 580 obj \$1 10 inlet \, obj \$1 40 list append \, connect
\$3 0 \$4 1;
#X obj 300 420 pack f f f f f f;
#X msg 300 580 connect \$6 0 \$4 0;
#X text 100 560 last;
#X text 310 560 first;
#X msg 480 160 7;
#X obj 380 270 * 2;
#X obj 90 450 + 1;
#X obj 90 370 t b b;
#X obj 440 520 spigot;
#X obj 300 450 t a a a;
#X obj 480 490 != 0;
#X text 450 560 not first;
#X msg 440 580 connect \$5 0 \$4 0;
#X obj 730 190 spigot;
#X text 730 100 only one inlet;
#X obj 730 249 sendcanvas 1;
#X obj 730 130 t b f;
#X obj 280 60 t f f b f;
#X obj 90 340 spigot;
#X obj 90 280 t b f;
#X obj 120 310 > 1;
#X obj 760 160 > 1;
#X msg 500 340 4;
#X msg 140 450 0, f 2;
#X msg 730 220 disconnect 4 0 0 0;
#X obj 280 30 inlet;
#X connect 0 0 1 0;
#X connect 1 0 2 0;
#X connect 1 0 19 0;
#X connect 2 0 1 1;
#X connect 3 0 23 1;
#X connect 4 0 9 0;
#X connect 5 0 16 1;
#X connect 5 0 21 0;
#X connect 7 0 0 0;
#X connect 9 0 23 0;
#X connect 10 0 23 2;
#X connect 11 0 23 3;
#X connect 12 0 23 4;
#X connect 13 0 8 0;
#X connect 14 0 13 0;
#X connect 16 0 29 0;
#X connect 17 0 24 0;
#X connect 18 0 17 1;
#X connect 19 0 4 0;
#X connect 19 1 3 0;
#X connect 19 2 28 0;
#X connect 19 3 45 0;
#X connect 19 4 18 0;
#X connect 19 5 33 0;
#X connect 21 0 10 0;
#X connect 21 1 11 0;
#X connect 21 2 12 0;
#X connect 22 0 8 0;
#X connect 23 0 32 0;
#X connect 24 0 8 0;
#X connect 27 0 5 1;
#X connect 28 0 5 0;
#X connect 29 0 14 0;
#X connect 30 0 16 0;
#X connect 30 1 46 0;
#X connect 31 0 35 0;
#X connect 32 0 17 0;
#X connect 32 1 31 0;
#X connect 32 2 22 0;
#X connect 33 0 31 1;
#X connect 35 0 8 0;
#X connect 36 0 47 0;
#X connect 39 0 36 0;
#X connect 39 1 44 0;
#X connect 40 0 42 0;
#X connect 40 1 7 0;
#X connect 40 2 27 0;
#X connect 40 3 39 0;
#X connect 41 0 30 0;
#X connect 42 0 41 0;
#X connect 42 1 43 0;
#X connect 43 0 41 1;
#X connect 44 0 36 1;
#X connect 45 0 23 5;
#X connect 46 0 14 1;
#X connect 47 0 38 0;
#X connect 48 0 40 0;
#X restore 169 391 pd inlet-creator;
#X obj 20 230 fc_process;
#X obj 20 151 iemlib/dollarg;
#X obj 20 180 list prepend newctrlr;
#X obj 20 310 route ERROR SERVICE;
#X obj 170 360 unpack f f;
#N canvas 414 29 1179 990 outlet-creator 0;
#X obj 300 130 until;
#X obj 300 160 f;
#X obj 330 160 + 1;
#X msg 350 370 10;
#X obj 300 270 * 100;
#X obj 380 300 +;
#X text 490 140 last obj index;
#X obj 300 100 - 1;
#X obj 220 620 sendcanvas 1;
#X obj 300 370 + 250;
#X obj 380 370 + 0;
#X obj 410 370 + 1;
#X obj 440 370 - 1;
#X msg 90 580 connect \$1 0 \$2 0;
#X obj 90 480 pack f f;
#X text 150 430 list prepend index;
#X obj 90 420 f;
#X obj 300 520 spigot;
#X obj 340 490 == 0;
#X obj 300 190 t f b f f f f;
#X text 510 320 1st inlet index;
#X obj 380 330 t f f f;
#X obj 300 420 pack f f f f f f;
#X msg 300 580 connect \$6 0 \$4 0;
#X text 100 560 last;
#X text 310 560 first;
#X msg 480 160 7;
#X obj 380 270 * 2;
#X obj 90 450 + 1;
#X obj 90 370 t b b;
#X obj 440 520 spigot;
#X obj 300 450 t a a a;
#X obj 480 490 != 0;
#X text 450 560 not first;
#X msg 440 580 connect \$5 0 \$4 0;
#X obj 730 190 spigot;
#X text 730 100 only one inlet;
#X obj 730 249 sendcanvas 1;
#X obj 730 130 t b f;
#X obj 280 60 t f f b f;
#X obj 90 340 spigot;
#X obj 90 280 t b f;
#X obj 120 310 > 1;
#X obj 760 160 > 1;
#X msg 500 340 4;
#X msg 140 450 0, f 2;
#X msg 730 220 disconnect 4 0 0 0;
#X obj 280 30 inlet;
#X msg 580 580 obj \$1 10 outlet \, obj \$1 40 list append \, connect
\$3 0 \$4 1;
#X connect 0 0 1 0;
#X connect 1 0 2 0;
#X connect 1 0 19 0;
#X connect 2 0 1 1;
#X connect 3 0 22 1;
#X connect 4 0 9 0;
#X connect 5 0 16 1;
#X connect 5 0 21 0;
#X connect 7 0 0 0;
#X connect 9 0 22 0;
#X connect 10 0 22 2;
#X connect 11 0 22 3;
#X connect 12 0 22 4;
#X connect 13 0 8 0;
#X connect 14 0 13 0;
#X connect 16 0 28 0;
#X connect 17 0 23 0;
#X connect 18 0 17 1;
#X connect 19 0 4 0;
#X connect 19 1 3 0;
#X connect 19 2 27 0;
#X connect 19 3 44 0;
#X connect 19 4 18 0;
#X connect 19 5 32 0;
#X connect 21 0 10 0;
#X connect 21 1 11 0;
#X connect 21 2 12 0;
#X connect 22 0 31 0;
#X connect 23 0 8 0;
#X connect 26 0 5 1;
#X connect 27 0 5 0;
#X connect 28 0 14 0;
#X connect 29 0 16 0;
#X connect 29 1 45 0;
#X connect 30 0 34 0;
#X connect 31 0 17 0;
#X connect 31 1 30 0;
#X connect 31 2 48 0;
#X connect 32 0 30 1;
#X connect 34 0 8 0;
#X connect 35 0 46 0;
#X connect 38 0 35 0;
#X connect 38 1 43 0;
#X connect 39 0 41 0;
#X connect 39 1 7 0;
#X connect 39 2 26 0;
#X connect 39 3 38 0;
#X connect 40 0 29 0;
#X connect 41 0 40 0;
#X connect 41 1 42 0;
#X connect 42 0 40 1;
#X connect 43 0 35 1;
#X connect 44 0 22 5;
#X connect 45 0 14 1;
#X connect 46 0 37 0;
#X connect 47 0 39 0;
#X connect 48 0 8 0;
#X restore 299 391 pd outlet-creator;
#X obj 20 121 loadbang;
#X obj 280 170 list prepend ctrlr 0;
#X connect 2 0 11 0;
#X connect 4 0 7 0;
#X connect 5 0 6 0;
#X connect 6 0 4 0;
#X connect 7 0 1 0;
#X connect 7 1 8 0;
#X connect 7 2 0 0;
#X connect 8 0 3 0;
#X connect 8 1 9 0;
#X connect 10 0 5 0;
#X connect 11 0 4 0;
