#N canvas 484 228 450 421 12;
#X obj 100 50 inlet;
#X obj 195 50 inlet;
#X obj 180 370 outlet;
#X obj 100 310 fc_process;
#X obj 100 140 list trim;
#X obj 100 80 list append \$1;
#X obj 100 110 list prepend get property;
#X obj 100 340 route ERROR;
#X obj 30 370 print FreeCAD Error;
#X text 100 20 Object;
#X text 194 20 Property;
#X obj 120 200 list length;
#X obj 120 230 == 4;
#X obj 100 280 spigot;
#X obj 100 169 t l l;
#X connect 0 0 5 0;
#X connect 1 0 5 1;
#X connect 3 0 7 0;
#X connect 4 0 14 0;
#X connect 5 0 6 0;
#X connect 6 0 4 0;
#X connect 7 0 8 0;
#X connect 7 1 2 0;
#X connect 11 0 12 0;
#X connect 12 0 13 1;
#X connect 13 0 3 0;
#X connect 14 0 13 0;
#X connect 14 1 11 0;
