#N canvas 580 378 450 300 12;
#X obj 10 40 inlet;
#X obj 91 40 inlet;
#X obj 10 190 outlet;
#X obj 10 160 fc_process;
#X obj 10 130 list trim;
#X text 10 10 Sketch;
#X text 90 10 Constraint;
#X obj 10 70 list append \$1;
#X obj 10 100 list prepend get constraint;
#X connect 0 0 7 0;
#X connect 1 0 7 1;
#X connect 3 0 2 0;
#X connect 4 0 3 0;
#X connect 7 0 8 0;
#X connect 8 0 4 0;
