#N canvas 224 444 450 300 12;
#X obj 100 50 inlet;
#X obj 195 50 inlet;
#X obj 180 230 outlet;
#X obj 100 170 fc_process;
#X obj 100 140 list trim;
#X obj 100 80 list append \$1;
#X obj 100 110 list prepend get property;
#X obj 100 200 route ERROR;
#X obj 30 230 print FreeCAD Error;
#X text 100 20 Object;
#X text 194 20 Property;
#X connect 0 0 5 0;
#X connect 1 0 5 1;
#X connect 3 0 7 0;
#X connect 4 0 3 0;
#X connect 5 0 6 0;
#X connect 6 0 4 0;
#X connect 7 0 8 0;
#X connect 7 1 2 0;
