#N canvas 1911 264 450 325 12;
#X obj 10 10 inlet;
#X obj 10 110 outlet;
#X obj 10 40 route Rot Yaw-Pitch-Roll;
#X msg 10 70 bang;
#X msg 90 70 bang;
#X obj 90 110 outlet;
#X connect 0 0 2 0;
#X connect 2 0 3 0;
#X connect 2 1 3 0;
#X connect 2 2 4 0;
#X connect 3 0 1 0;
#X connect 4 0 5 0;
