#N canvas 1633 170 570 570 12;
#X obj 50 10 inlet;
#X msg 210 280 0;
#X obj 100 180 list split 1;
#X obj 100 210 list trim;
#X obj 100 80 route list;
#X obj 210 180 list length;
#X obj 100 110 t l l;
#X obj 100 280 ==;
#X obj 210 210 - 1;
#X obj 50 40 t b a;
#X obj 30 400 spigot;
#X obj 30 430 outlet;
#X obj 148 364 == 0;
#X obj 100 400 spigot;
#X obj 104 316 t f f;
#X obj 100 430 outlet;
#X obj 100 240 route float;
#X connect 0 0 9 0;
#X connect 1 0 14 0;
#X connect 2 0 3 0;
#X connect 2 2 1 0;
#X connect 3 0 16 0;
#X connect 4 0 6 0;
#X connect 4 1 1 0;
#X connect 5 0 8 0;
#X connect 6 0 2 0;
#X connect 6 1 5 0;
#X connect 7 0 14 0;
#X connect 8 0 7 1;
#X connect 9 0 10 0;
#X connect 9 0 13 0;
#X connect 9 1 4 0;
#X connect 10 0 11 0;
#X connect 12 0 13 1;
#X connect 13 0 15 0;
#X connect 14 0 10 1;
#X connect 14 1 12 0;
#X connect 16 0 7 0;
#X connect 16 1 1 0;
