#N canvas 167 388 450 300 12;
#X obj 113 74 inlet;
#X obj 113 206 outlet;
#X msg 194 162 0;
#X msg 113 162 1;
#X obj 113 118 route Vector Pos;
#X connect 0 0 4 0;
#X connect 2 0 1 0;
#X connect 3 0 1 0;
#X connect 4 0 3 0;
#X connect 4 1 3 0;
#X connect 4 2 2 0;
