#N canvas 474 420 517 460 12;
#X obj 100 180 fc_process;
#X msg 290 110 remobserver;
#X obj 100 210 outlet;
#X obj 270 20 closebang;
#X obj 200 20 inlet;
#X obj 80 20 loadbang;
#X obj 200 70 t a b;
#X obj 100 150 list trim;
#X obj 80 50 list prepend \$1;
#X obj 100 110 list prepend objobserver;
#X connect 0 0 2 0;
#X connect 1 0 0 0;
#X connect 3 0 1 0;
#X connect 4 0 6 0;
#X connect 5 0 8 0;
#X connect 6 0 9 0;
#X connect 6 1 1 0;
#X connect 7 0 0 0;
#X connect 8 0 9 0;
#X connect 9 0 7 0;
