#N canvas 1080 387 445 239 12;
#X obj 0 -60 cnv 15 445 31 empty empty fc_PartLoft 20 12 0 14 #e0e0e0
#404040 0;
#X obj 120 150 helplink FCPD;
#X text 10 150 library info :;
#X obj 360 -50 fc_PartLoft;
#X text 10 -20 Create a Part:Loft;
#X text 10 20 no argument;
#X text 10 60 1st inlet : list of section;
#X text 10 100 outlet : the FreeCAD object;
