#N canvas 327 115 1024 886 12;
#X obj 20 170 list prepend raw \$1;
#X obj 20 230 route ERROR;
#X obj 170 260 outlet;
#X obj 20 260 print FreeCAD_Error;
#X obj 10 10 inlet;
#N canvas 384 132 1179 862 inlet-creator 1;
#X obj 300 130 until;
#X obj 300 160 f;
#X obj 330 160 + 1;
#X msg 350 370 10;
#X obj 280 30 \$2;
#X obj 300 270 * 100;
#X obj 380 300 +;
#X text 490 140 last obj index;
#X obj 280 0 initbang;
#X obj 300 100 - 1;
#X obj 220 620 sendcanvas 1;
#X obj 300 370 + 250;
#X obj 380 370 + 0;
#X obj 410 370 + 1;
#X obj 440 370 - 1;
#X msg 90 580 connect \$1 0 \$2 0;
#X obj 90 480 pack f f;
#X text 150 430 list prepend index;
#X obj 90 420 f;
#X obj 300 520 spigot;
#X obj 340 490 == 0;
#X obj 300 190 t f b f f f f;
#X text 510 320 1st inlet index;
#X obj 380 330 t f f f;
#X msg 580 580 obj \$1 10 inlet \, obj \$1 40 list append \, connect
\$3 0 \$4 1;
#X obj 300 420 pack f f f f f f;
#X msg 300 580 connect \$6 0 \$4 0;
#X text 100 560 last;
#X text 310 560 first;
#X msg 480 160 7;
#X obj 380 270 * 2;
#X obj 90 450 + 1;
#X obj 90 370 t b b;
#X obj 440 520 spigot;
#X obj 300 450 t a a a;
#X obj 480 490 != 0;
#X text 450 560 not first;
#X msg 440 580 connect \$5 0 \$4 0;
#X obj 730 190 spigot;
#X text 730 100 only one inlet;
#X obj 730 249 sendcanvas 1;
#X obj 730 130 t b f;
#X obj 280 60 t f f b f;
#X obj 90 340 spigot;
#X obj 90 280 t b f;
#X obj 120 310 > 1;
#X obj 760 160 > 1;
#X msg 500 340 4;
#X msg 140 450 0, f 2;
#X msg 730 220 disconnect 4 0 0 0;
#X connect 0 0 1 0;
#X connect 1 0 2 0;
#X connect 1 0 21 0;
#X connect 2 0 1 1;
#X connect 3 0 25 1;
#X connect 4 0 42 0;
#X connect 5 0 11 0;
#X connect 6 0 18 1;
#X connect 6 0 23 0;
#X connect 8 0 4 0;
#X connect 9 0 0 0;
#X connect 11 0 25 0;
#X connect 12 0 25 2;
#X connect 13 0 25 3;
#X connect 14 0 25 4;
#X connect 15 0 10 0;
#X connect 16 0 15 0;
#X connect 18 0 31 0;
#X connect 19 0 26 0;
#X connect 20 0 19 1;
#X connect 21 0 5 0;
#X connect 21 1 3 0;
#X connect 21 2 30 0;
#X connect 21 3 47 0;
#X connect 21 4 20 0;
#X connect 21 5 35 0;
#X connect 23 0 12 0;
#X connect 23 1 13 0;
#X connect 23 2 14 0;
#X connect 24 0 10 0;
#X connect 25 0 34 0;
#X connect 26 0 10 0;
#X connect 29 0 6 1;
#X connect 30 0 6 0;
#X connect 31 0 16 0;
#X connect 32 0 18 0;
#X connect 32 1 48 0;
#X connect 33 0 37 0;
#X connect 34 0 19 0;
#X connect 34 1 33 0;
#X connect 34 2 24 0;
#X connect 35 0 33 1;
#X connect 37 0 10 0;
#X connect 38 0 49 0;
#X connect 41 0 38 0;
#X connect 41 1 46 0;
#X connect 42 0 44 0;
#X connect 42 1 9 0;
#X connect 42 2 29 0;
#X connect 42 3 41 0;
#X connect 43 0 32 0;
#X connect 44 0 43 0;
#X connect 44 1 45 0;
#X connect 45 0 43 1;
#X connect 46 0 38 1;
#X connect 47 0 25 5;
#X connect 48 0 16 1;
#X connect 49 0 40 0;
#X restore 20 300 pd inlet-creator;
#X obj 20 200 fc_process;
#X connect 0 0 6 0;
#X connect 1 0 3 0;
#X connect 1 1 2 0;
#X connect 4 0 0 0;
#X connect 6 0 1 0;
