#N canvas 573 232 604 613 12;
#X obj 90 10 inlet;
#X obj 270 10 inlet;
#X obj 90 170 list prepend Placement;
#X obj 90 340 list append;
#X obj 90 200 t a b;
#X obj 130 310 any;
#X obj 410 70 fc_rotation 0 0 0;
#X obj 410 40 loadbang;
#X obj 120 70 fc_isVector;
#X obj 90 40 t a a;
#X obj 90 130 spigot;
#X obj 300 70 fc_isRotation;
#X obj 270 40 t a a;
#X obj 270 130 spigot;
#X obj 90 369 outlet;
#X msg 120 100 1;
#X msg 300 100 1;
#X connect 0 0 9 0;
#X connect 1 0 12 0;
#X connect 2 0 4 0;
#X connect 3 0 14 0;
#X connect 4 0 3 0;
#X connect 4 1 5 0;
#X connect 5 0 3 1;
#X connect 6 0 5 1;
#X connect 7 0 6 0;
#X connect 8 0 15 0;
#X connect 9 0 10 0;
#X connect 9 1 8 0;
#X connect 10 0 2 0;
#X connect 11 0 16 0;
#X connect 12 0 13 0;
#X connect 12 1 11 0;
#X connect 13 0 5 1;
#X connect 15 0 10 1;
#X connect 16 0 13 1;
