#N canvas 408 373 450 300 12;
#X obj 20 50 inlet;
#X obj 230 50 inlet;
#X text 230 20 Placement;
#X obj 230 120 fc_PlacementPosRot;
#X obj 230 210 fc_vector;
#X obj 230 90 t a a;
#X obj 230 270 outlet;
#X obj 210 180 +;
#X obj 250 180 +;
#X obj 290 180 +;
#X obj 230 240 fc_setPlacementRot;
#X obj 230 150 fc_rotationYawPitchRoll;
#X obj 20 80 fc_rotationYawPitchRoll;
#X text 20 20 Rotation;
#X connect 0 0 12 0;
#X connect 1 0 5 0;
#X connect 3 1 11 0;
#X connect 4 0 10 0;
#X connect 5 0 3 0;
#X connect 5 1 10 1;
#X connect 7 0 4 0;
#X connect 8 0 4 1;
#X connect 9 0 4 2;
#X connect 10 0 6 0;
#X connect 11 0 7 1;
#X connect 11 1 8 1;
#X connect 11 2 9 1;
#X connect 12 0 7 0;
#X connect 12 1 8 0;
#X connect 12 2 9 0;
