#N canvas 734 466 450 350 12;
#X obj 80 10 inlet;
#X obj 138 10 inlet;
#X obj 197 11 inlet;
#X obj 80 100 outlet;
#X msg 80 70 Yaw-Pitch-Roll \$1 \$2 \$3;
#X obj 80 40 pack \$1 \$2 \$3;
#X obj 10 10 loadbang;
#X connect 0 0 5 0;
#X connect 1 0 5 1;
#X connect 2 0 5 2;
#X connect 4 0 3 0;
#X connect 5 0 4 0;
#X connect 6 0 5 0;
#X coords 0 0 1 1 85 60 0;
