#N canvas 911 548 450 300 12;
#X msg 180 90 selobserver;
#X obj 100 130 fc_process;
#X obj 100 20 inlet;
#X obj 100 50 route 0;
#X msg 80 90 remobserver;
#X obj 100 161 outlet;
#X obj 20 50 closebang;
#X connect 0 0 1 0;
#X connect 1 0 5 0;
#X connect 2 0 3 0;
#X connect 3 0 4 0;
#X connect 3 1 0 0;
#X connect 4 0 1 0;
#X connect 6 0 4 0;
