#N canvas 916 549 450 300 12;
#X msg 100 80 selobserver;
#X obj 100 120 fc_process;
#X msg 200 80 remobserver;
#X obj 100 161 outlet;
#X obj 200 50 closebang;
#X obj 100 50 loadbang;
#X connect 0 0 1 0;
#X connect 1 0 3 0;
#X connect 2 0 1 0;
#X connect 4 0 2 0;
#X connect 5 0 0 0;
