#N canvas 311 502 450 300 12;
#X obj 100 40 inlet;
#X obj 190 40 inlet;
#X obj 20 190 fc_process;
#X obj 20 160 list trim;
#X obj 100 70 list append \$1;
#X obj 100 100 list prepend set property;
#X obj 20 130 list prepend;
#X obj 20 40 inlet;
#X text 20 10 Value;
#X text 100 10 Object;
#X text 190 10 Property;
#X obj 170 250 outlet;
#X obj 20 220 route ERROR;
#X obj 20 250 print FreeCAD Error;
#X connect 0 0 4 0;
#X connect 1 0 4 1;
#X connect 2 0 12 0;
#X connect 3 0 2 0;
#X connect 4 0 5 0;
#X connect 5 0 6 1;
#X connect 6 0 3 0;
#X connect 7 0 6 0;
#X connect 12 0 13 0;
#X connect 12 1 11 0;
