#N canvas 580 378 450 300 12;
#X obj 10 100 fc_process;
#X obj 10 71 list prepend str;
#X obj 10 10 inlet;
#X obj 10 40 fc_unList;
#X obj 10 129 outlet;
#X connect 0 0 4 0;
#X connect 1 0 0 0;
#X connect 2 0 3 0;
#X connect 3 0 1 0;
