#N canvas 395 202 783 570 12;
#X obj 180 250 fc_translatePlacement;
#X obj 340 420 fc_rotatePlacement;
#X obj 130 80 fc_getObjectProperty Placement;
#X obj 480 470 fc_setObjectProperty Placement;
#X text 40 220 translation vector;
#X text 220 390 rotation vector;
#X obj 180 190 f;
#X obj 230 190 f;
#X obj 280 190 f;
#X obj 130 110 t b b b a;
#X obj 340 360 f;
#X obj 180 220 fc_vector;
#X obj 340 390 fc_rotation;
#X obj 200 20 inlet;
#X obj 250 20 inlet;
#X obj 300 20 inlet;
#X obj 130 20 inlet;
#X obj 350 20 inlet;
#X obj 390 360 f;
#X obj 400 20 inlet;
#X obj 440 360 f;
#X obj 450 20 inlet;
#X obj 180 280 t b b b a;
#X obj 130 50 t a a;
#X text 70 20 Object;
#X obj 480 500 outlet;
#X connect 0 0 22 0;
#X connect 1 0 3 0;
#X connect 2 0 9 0;
#X connect 3 0 25 0;
#X connect 6 0 11 0;
#X connect 7 0 11 1;
#X connect 8 0 11 2;
#X connect 9 0 6 0;
#X connect 9 1 7 0;
#X connect 9 2 8 0;
#X connect 9 3 0 1;
#X connect 10 0 12 0;
#X connect 11 0 0 0;
#X connect 12 0 1 0;
#X connect 13 0 6 1;
#X connect 14 0 7 1;
#X connect 15 0 8 1;
#X connect 16 0 23 0;
#X connect 17 0 10 1;
#X connect 18 0 12 1;
#X connect 19 0 18 1;
#X connect 20 0 12 2;
#X connect 21 0 20 1;
#X connect 22 0 10 0;
#X connect 22 1 18 0;
#X connect 22 2 20 0;
#X connect 22 3 1 1;
#X connect 23 0 2 0;
#X connect 23 1 3 1;
