#N canvas 367 214 482 325 12;
#X obj 80 100 inlet;
#X obj 280 100 inlet;
#X text 279 69 Placement;
#X obj 280 130 list split 5;
#X obj 80 130 list split 1;
#X obj 130 230 list trim;
#X obj 130 260 outlet;
#X obj 130 200 list append;
#X text 80 70 new Pos;
#X obj 80 160 list prepend Placement Pos;
#X connect 0 0 4 0;
#X connect 1 0 3 0;
#X connect 3 1 7 1;
#X connect 4 1 9 0;
#X connect 5 0 6 0;
#X connect 7 0 5 0;
#X connect 9 0 7 0;
