#N canvas 854 545 450 300 12;
#X obj 100 50 inlet;
#X obj 181 50 inlet;
#X obj 20 230 outlet;
#X obj 20 200 fc_process;
#X obj 20 170 list trim;
#X obj 20 140 list prepend;
#X obj 20 50 inlet;
#X text 20 20 Value;
#X text 100 20 Sketch;
#X text 180 20 Constraint;
#X obj 100 110 list prepend set constraint;
#X obj 100 80 list append \$1;
#X connect 0 0 11 0;
#X connect 1 0 11 1;
#X connect 3 0 2 0;
#X connect 4 0 3 0;
#X connect 5 0 4 0;
#X connect 6 0 5 0;
#X connect 10 0 5 1;
#X connect 11 0 10 0;
