#N canvas 101 175 862 591 12;
#X obj 140 50 inlet;
#X obj 160 140 list append Placement;
#X obj 160 200 fc_translatePlacement;
#X obj 700 50 inlet;
#X text 140 20 vector \, placement or object;
#X obj 40 230 fc_vector;
#X obj 20 200 +;
#X obj 60 200 +;
#X obj 100 200 +;
#X obj 20 140 unpack f f f;
#X obj 700 110 fc_vectorXYZ;
#X obj 700 160 fc_vector;
#X obj 150 300 outlet;
#X obj 140 79 route Vector Pos Placement;
#X text 700 20 vector;
#X obj 330 140 fc_getObjectProperty Placement;
#X obj 330 200 fc_translatePlacement;
#X obj 330 270 fc_setObjectProperty Placement;
#X obj 330 110 t a a;
#X obj 330 230 t a a;
#X obj 330 300 fc_recompute;
#X connect 0 0 13 0;
#X connect 1 0 2 0;
#X connect 2 0 12 0;
#X connect 3 0 10 0;
#X connect 5 0 12 0;
#X connect 6 0 5 0;
#X connect 7 0 5 1;
#X connect 8 0 5 2;
#X connect 9 0 6 0;
#X connect 9 1 7 0;
#X connect 9 2 8 0;
#X connect 10 0 11 0;
#X connect 10 0 6 1;
#X connect 10 1 11 1;
#X connect 10 1 7 1;
#X connect 10 2 11 2;
#X connect 10 2 8 1;
#X connect 11 0 2 1;
#X connect 11 0 16 1;
#X connect 13 0 9 0;
#X connect 13 1 9 0;
#X connect 13 2 1 0;
#X connect 13 3 18 0;
#X connect 15 0 16 0;
#X connect 16 0 19 0;
#X connect 17 0 20 0;
#X connect 18 0 15 0;
#X connect 18 1 17 1;
#X connect 19 0 12 0;
#X connect 19 1 17 0;
