#N struct draw-image-struct float x float y float w float h;
#N canvas 733 222 862 641 12;
#X obj 140 50 inlet;
#X obj 160 140 list append Placement;
#X obj 700 50 inlet;
#X text 140 20 vector \, placement or object;
#X obj 20 200 +;
#X obj 60 200 +;
#X obj 100 200 +;
#X obj 20 140 unpack f f f;
#X obj 150 300 outlet;
#X obj 140 79 route Vector Pos Placement;
#X text 700 20 vector;
#X obj 330 140 fc_getObjectProperty Placement;
#X obj 330 270 fc_setObjectProperty Placement;
#X obj 330 110 t a a;
#X obj 330 230 t a a;
#X obj 330 300 fc_recompute;
#X obj 40 170 vectorXYZ;
#X obj 40 230 XYZvector;
#X obj 160 200 translatePlacement;
#X obj 330 200 translatePlacement;
#X connect 0 0 9 0;
#X connect 1 0 18 0;
#X connect 2 0 16 0;
#X connect 2 0 18 1;
#X connect 2 0 19 1;
#X connect 4 0 17 0;
#X connect 5 0 17 1;
#X connect 6 0 17 2;
#X connect 7 0 4 0;
#X connect 7 1 5 0;
#X connect 7 2 6 0;
#X connect 9 0 7 0;
#X connect 9 1 7 0;
#X connect 9 2 1 0;
#X connect 9 3 13 0;
#X connect 11 0 19 0;
#X connect 12 0 15 0;
#X connect 13 0 11 0;
#X connect 13 1 12 1;
#X connect 14 0 8 0;
#X connect 14 1 12 0;
#X connect 16 0 4 1;
#X connect 16 1 5 1;
#X connect 16 2 6 1;
#X connect 17 0 8 0;
#X connect 18 0 8 0;
#X connect 19 0 14 0;
