#N canvas 324 451 450 373 12;
#X obj 300 50 inlet;
#X obj 130 50 inlet;
#X text 300 20 Vector;
#X text 130 20 Placement;
#X obj 130 120 fc_PlacementPosRot;
#X obj 130 250 fc_setPlacementPos;
#X obj 130 150 fc_vectorXYZ;
#X obj 130 220 fc_vector;
#X obj 130 80 t a a;
#X obj 130 280 outlet;
#X obj 300 80 fc_vectorXYZ;
#X obj 130 180 +;
#X obj 170 180 +;
#X obj 210 180 +;
#X connect 0 0 10 0;
#X connect 1 0 8 0;
#X connect 4 0 6 0;
#X connect 5 0 9 0;
#X connect 6 0 11 0;
#X connect 6 1 12 0;
#X connect 6 2 13 0;
#X connect 7 0 5 0;
#X connect 8 0 4 0;
#X connect 8 1 5 1;
#X connect 10 0 11 1;
#X connect 10 1 12 1;
#X connect 10 2 13 1;
#X connect 11 0 7 0;
#X connect 12 0 7 1;
#X connect 13 0 7 2;
