#N canvas 403 378 450 325 12;
#X obj 105 43 inlet;
#X obj 105 129 unpack f f f;
#X obj 105 172 outlet;
#X obj 156 172 outlet;
#X obj 207 172 outlet;
#X obj 105 86 route Vector Pos;
#X connect 0 0 5 0;
#X connect 1 0 2 0;
#X connect 1 1 3 0;
#X connect 1 2 4 0;
#X connect 5 0 1 0;
#X connect 5 1 1 0;
