#N canvas 560 324 450 325 12;
#X obj 110 30 inlet;
#X obj 110 60 fc_vectorXYZ;
#X obj 10 30 inlet;
#X obj 110 110 *;
#X obj 140 110 *;
#X obj 170 110 *;
#X obj 110 150 fc_vector;
#X obj 110 180 outlet;
#X text 110 10 vector;
#X text 10 10 scalar;
#X obj 10 60 t f f f;
#X connect 0 0 1 0;
#X connect 1 0 3 1;
#X connect 1 1 4 1;
#X connect 1 2 5 1;
#X connect 2 0 10 0;
#X connect 3 0 6 0;
#X connect 4 0 6 1;
#X connect 5 0 6 2;
#X connect 6 0 7 0;
#X connect 10 0 3 0;
#X connect 10 1 4 0;
#X connect 10 2 5 0;
