#N canvas 580 378 450 300 12;
#X obj 40 70 list length;
#X obj 10 10 inlet;
#X obj 10 39 t a a;
#X obj 10 100 list prepend;
#X obj 10 130 list prepend list;
#X obj 10 160 outlet;
#X connect 0 0 3 1;
#X connect 1 0 2 0;
#X connect 2 0 3 0;
#X connect 2 1 0 0;
#X connect 3 0 4 0;
#X connect 4 0 5 0;
