#N canvas 1695 264 450 325 12;
#X obj 20 10 inlet;
#X obj 20 130 outlet;
#X obj 20 50 route Vector Pos;
#X obj 110 130 outlet;
#X msg 20 90 bang;
#X msg 110 90 bang;
#X connect 0 0 2 0;
#X connect 2 0 4 0;
#X connect 2 1 4 0;
#X connect 2 2 5 0;
#X connect 4 0 1 0;
#X connect 5 0 3 0;
