#N canvas 583 234 604 638 12;
#X obj 90 10 inlet;
#X obj 270 10 inlet;
#X obj 90 170 list prepend Placement;
#X obj 90 40 t a a;
#X obj 90 130 spigot;
#X obj 270 40 t a a;
#X obj 270 130 spigot;
#X obj 90 229 outlet;
#X msg 120 100 1;
#X msg 300 100 1;
#X obj 120 70 isVector;
#X obj 300 70 isRotation;
#X obj 90 200 list append Rot 0 0 0;
#X connect 0 0 3 0;
#X connect 1 0 5 0;
#X connect 2 0 12 0;
#X connect 3 0 4 0;
#X connect 3 1 10 0;
#X connect 4 0 2 0;
#X connect 5 0 6 0;
#X connect 5 1 11 0;
#X connect 6 0 12 1;
#X connect 8 0 4 1;
#X connect 9 0 6 1;
#X connect 10 0 8 0;
#X connect 11 0 9 0;
#X connect 12 0 7 0;
