#N canvas 648 431 450 350 12;
#X obj 80 10 inlet;
#X obj 140 10 inlet;
#X obj 200 10 inlet;
#X obj 90 230 outlet;
#X msg 90 200 Yaw-Pitch-Roll \$1 \$2 \$3;
#X obj 90 170 pack \$1 \$2 \$3;
#X obj 90 130 f;
#X obj 130 130 f;
#X obj 170 130 f;
#X obj 80 40 t f b b;
#X obj 140 40 t b f b;
#X obj 200 40 t b b f;
#X connect 0 0 9 0;
#X connect 1 0 10 0;
#X connect 2 0 11 0;
#X connect 4 0 3 0;
#X connect 5 0 4 0;
#X connect 6 0 5 0;
#X connect 7 0 5 1;
#X connect 8 0 5 2;
#X connect 9 0 6 0;
#X connect 9 1 7 0;
#X connect 9 2 8 0;
#X connect 10 0 6 0;
#X connect 10 1 7 0;
#X connect 10 2 8 0;
#X connect 11 0 6 0;
#X connect 11 1 7 0;
#X connect 11 2 8 0;
#X coords 0 0 1 1 85 60 0;
