#N canvas 792 381 482 325 12;
#X obj 80 100 inlet;
#X obj 211 101 inlet;
#X text 210 70 Placement;
#X obj 211 131 list split 5;
#X obj 80 130 list split 1;
#X obj 130 230 list trim;
#X obj 130 260 outlet;
#X text 80 70 new Rot;
#X obj 130 200 list prepend;
#X obj 80 160 list prepend Rot;
#X connect 0 0 4 0;
#X connect 1 0 3 0;
#X connect 3 0 8 1;
#X connect 4 1 9 0;
#X connect 5 0 6 0;
#X connect 8 0 5 0;
#X connect 9 0 8 0;
