#N canvas 334 453 450 373 12;
#X obj 300 50 inlet;
#X obj 130 50 inlet;
#X text 300 20 Vector;
#X text 130 20 Placement;
#X obj 130 80 t a a;
#X obj 130 280 outlet;
#X obj 130 180 +;
#X obj 170 180 +;
#X obj 210 180 +;
#X obj 130 120 placementPosRot;
#X obj 300 80 vectorXYZ;
#X obj 130 150 vectorXYZ;
#X obj 130 250 setPlacementPos;
#X obj 130 220 XYZvector;
#X connect 0 0 10 0;
#X connect 1 0 4 0;
#X connect 4 0 9 0;
#X connect 4 1 12 1;
#X connect 6 0 13 0;
#X connect 7 0 13 1;
#X connect 8 0 13 2;
#X connect 9 0 11 0;
#X connect 10 0 6 1;
#X connect 10 1 7 1;
#X connect 10 2 8 1;
#X connect 11 0 6 0;
#X connect 11 1 7 0;
#X connect 11 2 8 0;
#X connect 12 0 5 0;
#X connect 13 0 12 0;
