#N canvas 565 325 450 325 12;
#X obj 110 30 inlet;
#X obj 10 30 inlet;
#X obj 110 110 *;
#X obj 140 110 *;
#X obj 170 110 *;
#X obj 110 180 outlet;
#X text 110 10 vector;
#X text 10 10 scalar;
#X obj 10 60 t f f f;
#X obj 110 60 vectorXYZ;
#X obj 110 150 XYZvector;
#X connect 0 0 9 0;
#X connect 1 0 8 0;
#X connect 2 0 10 0;
#X connect 3 0 10 1;
#X connect 4 0 10 2;
#X connect 8 0 2 0;
#X connect 8 1 3 0;
#X connect 8 2 4 0;
#X connect 9 0 2 1;
#X connect 9 1 3 1;
#X connect 9 2 4 1;
#X connect 10 0 5 0;
