#N canvas 436 36 550 620 10;
#X obj 0 0 cnv 15 550 40 empty empty draft/getObjectsOfType 3 12 0 18 #c4dcdc #000000 0;
#X obj 400 10 draft/getObjectsOfType;
#X text 10 50 Return only the objects that match the type in the list of objects.;
#X obj 0 92 cnv 3 550 3 empty empty inlets 8 12 0 13 #dcdcdc #000000 0;
#X obj 78 122 cnv 17 3 17 empty \$0-pddp.cnv.let.1 0 5 9 0 16 #dcdcdc #9c9c9c 0;
#X text 100 122 objects;
#X obj 78 152 cnv 17 3 17 empty \$0-pddp.cnv.let.1 1 5 9 0 16 #dcdcdc #9c9c9c 0;
#X text 100 152 typ;
#X obj 0 212 cnv 3 550 3 empty empty outlets 8 12 0 13 #dcdcdc #000000 0;
#X obj 78 242 cnv 17 3 17 empty empty 0 5 9 0 16 #dcdcdc #9c9c9c 0;
#X text 100 242 Name of the created FreeCAD object;
#X obj 0 272 cnv 3 550 3 empty empty arguments 8 12 0 13 #dcdcdc #000000 0;
#X obj 0 302 cnv 3 550 3 empty empty more_info 8 12 0 13 #dcdcdc #000000 0;
#X text 10 332 This object is in the ;
#X obj 140 332  helplink draft;
#X text 175 332  part of the ;
#X obj 245 332  helplink FCPD;
#X text 275 332  library.;
#X obj 0 600 cnv 15 550 15 empty empty empty 20 12 0 14 #dcdcdc #404040 0;
