#N canvas 436 36 550 620 10;
#X obj 0 0 cnv 15 550 40 empty empty draft/make_copy 3 12 0 18 #c4dcdc #000000 0;
#X obj 400 10 draft/make_copy;
#X text 10 50 makeCopy(object \,  [force] \,  [reparent]);
#X obj 0 80 cnv 3 550 3 empty empty inlets 8 12 0 13 #dcdcdc #000000 0;
#X obj 78 110 cnv 17 3 17 empty \$0-pddp.cnv.let.1 0 5 9 0 16 #dcdcdc #9c9c9c 0;
#X text 100 110 obj;
#X obj 78 140 cnv 17 3 17 empty \$0-pddp.cnv.let.1 1 5 9 0 16 #dcdcdc #9c9c9c 0;
#X text 100 140 force;
#X obj 78 170 cnv 17 3 17 empty \$0-pddp.cnv.let.1 2 5 9 0 16 #dcdcdc #9c9c9c 0;
#X text 100 170 reparent;
#X obj 78 200 cnv 17 3 17 empty \$0-pddp.cnv.let.1 3 5 9 0 16 #dcdcdc #9c9c9c 0;
#X text 100 200 simple_copy;
#X obj 0 260 cnv 3 550 3 empty empty outlets 8 12 0 13 #dcdcdc #000000 0;
#X obj 78 290 cnv 17 3 17 empty empty 0 5 9 0 16 #dcdcdc #9c9c9c 0;
#X text 100 290 Name of the created FreeCAD object;
#X obj 0 320 cnv 3 550 3 empty empty arguments 8 12 0 13 #dcdcdc #000000 0;
#X obj 0 350 cnv 3 550 3 empty empty more_info 8 12 0 13 #dcdcdc #000000 0;
#X text 10 380 This object is in the ;
#X obj 140 380  helplink draft;
#X text 175 380  part of the ;
#X obj 245 380  helplink FCPD;
#X text 275 380  library.;
#X obj 0 600 cnv 15 550 15 empty empty empty 20 12 0 14 #dcdcdc #404040 0;
