#N canvas 179 203 550 386 10;
#X obj 0 0 cnv 15 550 70 empty empty fc_clicknselect 3 12 0 18 #c4dcdc
#000000 0;
#X obj 0 120 cnv 3 550 3 empty empty inlets 8 12 0 13 #dcdcdc #000000
0;
#X obj 78 150 cnv 17 3 17 empty \$0-pddp.cnv.let.1 0 5 9 0 16 #dcdcdc
#9c9c9c 0;
#X obj 0 190 cnv 3 550 3 empty empty outlets 8 12 0 13 #dcdcdc #000000
0;
#X obj 78 220 cnv 17 3 17 empty empty 0 5 9 0 16 #dcdcdc #9c9c9c 0
;
#X obj 0 260 cnv 3 550 3 empty empty arguments 8 12 0 13 #dcdcdc #000000
0;
#X obj 0 290 cnv 3 550 3 empty empty more_info 8 12 0 13 #dcdcdc #000000
0;
#X text 98 320 part of the;
#X obj 168 320 helplink FCPD;
#X text 198 320 library.;
#X obj 0 370 cnv 15 550 15 empty empty empty 20 12 0 14 #dcdcdc #404040
0;
#X obj 410 10 fc_clicknselect;
#X text 10 40 A box to select a FreeCAD object;
#X text 10 80 Click the checkbox and go to FC to select an object;
#X text 100 150 bang;
#X text 10 320 This object is;
#X text 100 220 symbol;
#X text 150 220 - when selection occurs or a message incomes
clicknselect outputs the name of the selected FreeCAD object;
#X text 150 150 - send it a bang to retrieve the stored object;
