#N struct draw-image-struct float x float y float w float h;
#N canvas 719 155 552 769 10;
#X obj 0 695 cnv 15 552 21 empty \$0-pddp.cnv.footer empty 20 12 0
14 #dcdcdc #404040 0;
#X obj 0 0 cnv 15 552 40 empty \$0-pddp.cnv.header fc_object 3 12 0
18 #c4dcdc #000000 0;
#X obj 0 193 cnv 3 550 3 empty \$0-pddp.cnv.inlets inlets 8 12 0 13
#dcdcdc #000000 0;
#N canvas 583 353 494 470 META 0;
#X text 12 25 KEYWORDS fcpd freecad object property;
#X text 12 45 LICENSE LGPL;
#X text 12 65 DESCRIPTION get/set FreeCAD object property;
#X text 12 85 INLET_0 bang any;
#X text 12 105 INLET_1 symbol;
#X text 12 125 INLET_2 symbol;
#X text 12 145 OUTLET_0 any;
#X text 12 165 LIBRARY FCPD;
#X text 12 225 RELEASE_DATE 2021;
#X text 12 245 HELP_PATCH_AUTHORS Flachy Joe;
#X text 12 185 AUTHOR Flachy Joe;
#X text 12 205 WEBSITE https://github.com/FlachyJoe/FCPDWorkbench;
#X restore 500 697 pd META;
#X obj 0 459 cnv 3 550 3 empty \$0-pddp.cnv.outlets outlets 8 12 0
13 #dcdcdc #000000 0;
#X obj 0 588 cnv 3 550 3 empty \$0-pddp.cnv.argument arguments 8 12
0 13 #dcdcdc #000000 0;
#X obj 0 660 cnv 3 550 3 empty \$0-pddp.cnv.more_info more_info 8 12
0 13 #dcdcdc #000000 0;
#N canvas 227 375 428 300 Related_objects 0;
#X obj 1 1 cnv 15 425 20 empty \$0-pddp.cnv.subheading empty 3 12 0
14 #c4dcdc #000000 0;
#X obj 20 80 fc_setObjectProperty;
#X text 8 2 [fc_object] Related Objects;
#X obj 20 40 fc_addObject;
#X obj 160 80 fc_setObjectProperties;
#X obj 20 120 fc_delete;
#X restore 102 697 pd Related_objects;
#X obj 80 201 cnv 17 3 45 empty \$0-pddp.cnv.let.0 0 5 9 0 16 #dcdcdc
#9c9c9c 0;
#X obj 78 470 cnv 17 3 40 empty \$0-pddp.cnv.let.n 0 5 9 0 16 #dcdcdc
#9c9c9c 0;
#X obj 80 261 cnv 17 3 45 empty \$0-pddp.cnv.let.1 1 5 9 0 16 #dcdcdc
#9c9c9c 0;
#X text 100 200 bang;
#X obj 80 321 cnv 17 3 45 empty \$0-pddp.cnv.let.1 2 5 9 0 16 #dcdcdc
#9c9c9c 0;
#X text 80 606 0) symbol;
#X obj 100 670 helplink FCPD;
#X obj 460 10 fc_object;
#X obj 20 50 bng 15 250 50 0 empty empty create 17 7 0 10 #fcfcfc #000000
#000000;
#X obj 20 70 t b b;
#X obj 20 160 bng 15 250 50 0 empty empty Done 17 7 0 10 #fcfcfc #000000
#000000;
#X obj 190 50 bng 15 250 50 0 empty empty delete 17 7 0 10 #fcfcfc
#000000 #000000;
#X text 11 23 create/modify and delete a FC object;
#X msg 40 100 Label anObject;
#X obj 100 50 bng 15 250 50 0 empty empty change 17 7 0 10 #fcfcfc
#000000 #000000;
#X obj 100 70 t b b;
#X obj 140 160 print ref;
#X text 172 320 - the third inlet delete the object;
#X text 100 320 bang;
#X text 169 260 - the second inlet set the object's properties;
#X text 80 630 1) symbol;
#X text 168 606 - the 1st argument set the object Module;
#X text 168 630 - the 2nd argument set the object Type;
#X obj 20 130 fc_object Part Sphere;
#X msg 150 100 Label sameObject Radius 10;
#X text 170 200 - bang the first inlet after you set the 2d inlet;
#X text 170 280 list as Property Value [Property Value] etc;
#X text 100 260 list;
#X obj 78 520 cnv 17 3 40 empty \$0-pddp.cnv.let.n 1 5 9 0 16 #dcdcdc
#9c9c9c 0;
#X text 170 520 - the object is sent when create or change;
#X text 98 469 bang;
#X text 168 469 - this outlet bang when FC finish to process;
#X obj 80 381 cnv 17 3 45 empty \$0-pddp.cnv.let.1 3 5 9 0 16 #dcdcdc
#9c9c9c 0;
#X text 100 380 object;
#X text 98 519 object;
#X text 172 380 - change the internal reference to act on another object
;
#X text 170 400 only the same object type and document is allowed else
the change silently fails;
#X text 170 430 NB : outlets are not triggered;
#X connect 16 0 17 0;
#X connect 17 0 31 0;
#X connect 17 1 21 0;
#X connect 19 0 31 2;
#X connect 21 0 31 1;
#X connect 22 0 23 0;
#X connect 23 0 31 0;
#X connect 23 1 32 0;
#X connect 31 0 18 0;
#X connect 31 1 24 0;
#X connect 32 0 31 1;
