#N canvas 436 36 600 620 10;
#X obj 0 0 cnv 15 600 40 empty empty part_index 3 12 0 18 #c4dcdc #000000 0;
#X obj 10 50 part/cast_to_shape;
#X text 200 50 Cast to the actual shape type;
#X obj 10 80 part/clearShapeCache;
#X text 200 80 Clears internal shape cache;
#X obj 10 110 part/export;
#X text 200 110 Export a list of objects into a single file.;
#X obj 10 140 part/exportUnits;
#X text 200 140 Set units for exporting STEP/IGES files and returns the units.;
#X obj 10 170 part/getFacets;
#X text 200 170 tFacets(shape): simplified mesh generation;
#X obj 10 200 part/getShape;
#X text 200 200 tShape(obj \, subname=None \, mat=None \, needSubElement=False \, transform=True \, retType=0): ;
#X obj 10 230 part/getSortedClusters;
#X text 200 230 Helper method to sort and cluster a variety of edges;
#X obj 10 260 part/insert;
#X text 200 260 Insert the file into the given document.;
#X obj 10 290 part/joinSubname;
#X text 200 290 inSubname(sub \, mapped \, subElement) -> subname ;
#X obj 10 320 part/makeBox;
#X text 200 320 Make a box located ;
#X obj 10 350 part/makeCircle;
#X text 200 350 Make a circle with a given radius ;
#X obj 10 380 part/makeCompound;
#X text 200 380 Create a compound out of a list of shapes.;
#X obj 10 410 part/makeCone;
#X text 200 410 Make a cone with given radii and height ;
#X obj 10 440 part/makeCylinder;
#X text 200 440 Make a cylinder with a given radius and height ;
#X obj 10 470 part/makeFace;
#X text 200 470 Create a face (faces) using facemaker class. ;
#X obj 10 500 part/makeFilledFace;
#X text 200 500 Create a face out of a list of edges.;
#X obj 10 530 part/makeHelix;
#X text 200 530 Make a helix with a given pitch \,  height and radius ;
#X obj 10 560 part/makeLine;
#X text 200 560 Make a line between two points ;
#X obj 10 590 part/makeLoft;
#X text 200 590 Create a loft shape.;
#X obj 10 620 part/makeLongHelix;
#X text 200 620 Make a (multi-edge) helix with a given pitch \,  height and radius ;
#X obj 10 650 part/makePlane;
#X text 200 650 Make a plane ;
#X obj 10 680 part/makePolygon;
#X text 200 680 Make a polygon from a list of points ;
#X obj 10 710 part/makeRevolution;
#X text 200 710 Make a revolved shape ;
#X obj 10 740 part/makeRuledSurface;
#X text 200 740 Make a ruled surface ;
#X obj 10 770 part/makeShell;
#X text 200 770 Create a shell out of a list of faces.;
#X obj 10 800 part/makeSolid;
#X text 200 800 keSolid(shape): Create a solid out of shells of shape. If shape is a compsolid \,  the overall volume solid is created.;
#X obj 10 830 part/makeSphere;
#X text 200 830 Make a sphere with a given radius ;
#X obj 10 860 part/makeSplitShape;
#X text 200 860 keSplitShape(shape \,  list of shape pairs \, [check Interior=True]) -> two lists of shapes. ;
#X obj 10 890 part/makeSweepSurface;
#X text 200 890 Create a profile along a path.;
#X obj 10 920 part/makeThread;
#X text 200 920 Make a thread with a given pitch \,  depth \,  height and radius;
#X obj 10 950 part/makeTorus;
#X text 200 950 Make a torus with a given radii and angles ;
#X obj 10 980 part/makeTube;
#X text 200 980 Create a tube. ;
#X obj 10 1010 part/makeWedge;
#X text 200 1010 Make a wedge located in pnt ;
#X obj 10 1040 part/makeWireString;
#X text 200 1040 Make list of wires in the form of a string's characters.;
#X obj 10 1070 part/open;
#X text 200 1070 Create a new document and load the file into the document.;
#X obj 10 1100 part/read;
#X text 200 1100 Load the file and return the shape.;
#X obj 10 1130 part/setStaticValue;
#X text 200 1130 Set a name to a value The value can be a string \,  int or float.;
#X obj 10 1160 part/show;
#X text 200 1160 Add the shape to the active document or create one if no document exists.;
#X obj 10 1190 part/sortEdges;
#X text 200 1190 list of lists of edges ;
#X obj 10 1220 part/splitSubname;
#X text 200 1220 litSubname(subname) -> list(sub \, mapped \, subElement) ;
