#N canvas 436 36 550 620 10;
#X obj 0 0 cnv 15 550 15 empty empty ikpy/chain/chain/forward_kinematics 8 12 0 13 #c4dcdc #000000 0;
#X obj 400 10 ikpy/chain/chain/forward_kinematics;
#X text 10 50 Returns the transformation matrix of the forward kinematics-------- \;         joints: list \;             The list of the positions of each joint. Note : Inactive joints must be in the list. \;         full_kinematics: bool \;             Return the transformation matrices of each joint \;  \;         Returns \;         ------- \;         frame_matrix: \;             The transformation matrix \;         ;
#X obj 0 270 cnv 3 550 3 empty empty inlets 8 12 0 13 #dcdcdc #000000 0;
#X obj 78 290 cnv 17 3 17 empty empty 0 8 12 0 13 #dcdcdc #9c9c9c 0;
#X text 100 290 self;
#X obj 78 320 cnv 17 3 17 empty empty 1 8 12 0 13 #dcdcdc #9c9c9c 0;
#X text 100 320 joints;
#X obj 78 350 cnv 17 3 17 empty empty 2 8 12 0 13 #dcdcdc #9c9c9c 0;
#X text 100 350 full_kinematics;
#X obj 0 380 cnv 3 550 3 empty empty outlets 8 12 0 13 #dcdcdc #000000 0;
#X obj 78 410 cnv 17 3 17 empty empty 0 8 12 0 13 #dcdcdc #9c9c9c 0;
#X text 100 410 Result of the operation;
#X obj 0 470 cnv 3 550 3 empty empty arguments 8 12 0 13 #dcdcdc #000000 0;
#X obj 0 530 cnv 3 550 3 empty empty more_info 8 12 0 13 #dcdcdc #000000 0;
#X text 10 550 This object and its help was autogenerated by FCPD_Workbench;
#X obj 0 590 cnv 15 550 15 empty empty  8 12 0 13 #dcdcdc #404040 0;
