#N canvas 436 36 550 620 10;
#X obj 0 0 cnv 15 550 15 empty empty ikpy/chain/chain/inverse_kinematics 8 12 0 13 #c4dcdc #000000 0;
#X obj 400 10 ikpy/chain/chain/inverse_kinematics;
#X text 10 50 -------- \;         target_position: np.ndarray \;             Vector of shape (3 \, ): the target point \;         target_orientation: np.ndarray \;             Vector of shape (3 \, ): the target orientation \;         orientation_mode: str \;             Orientation to target. Choices: \;             * None: No orientation \;             * "X": Target the X axis \;             * "Y": Target the Y axis \;             * "Z": Target the Z axis \;             * "all": Target the entire frame (e.g. the three axes) (not currently supported) \;         kwargs: See ikpy.inverse_kinematics.inverse_kinematic_optimization \;  \;         Returns \;         ------- \;         list: \;             The list of the positions of each joint according to the target. Note : Inactive joints are in the list. \;         ;
#X obj 0 430 cnv 3 550 3 empty empty inlets 8 12 0 13 #dcdcdc #000000 0;
#X obj 78 450 cnv 17 3 17 empty empty 0 8 12 0 13 #dcdcdc #9c9c9c 0;
#X text 100 450 self;
#X obj 78 480 cnv 17 3 17 empty empty 1 8 12 0 13 #dcdcdc #9c9c9c 0;
#X text 100 480 target_position;
#X obj 78 510 cnv 17 3 17 empty empty 2 8 12 0 13 #dcdcdc #9c9c9c 0;
#X text 100 510 target_orientation;
#X obj 78 540 cnv 17 3 17 empty empty 3 8 12 0 13 #dcdcdc #9c9c9c 0;
#X text 100 540 orientation_mode;
#X obj 78 570 cnv 17 3 17 empty empty 4 8 12 0 13 #dcdcdc #9c9c9c 0;
#X text 100 570 kwargs;
#X obj 0 600 cnv 3 550 3 empty empty outlets 8 12 0 13 #dcdcdc #000000 0;
#X obj 78 630 cnv 17 3 17 empty empty 0 8 12 0 13 #dcdcdc #9c9c9c 0;
#X text 100 630 Result of the operation;
#X obj 0 690 cnv 3 550 3 empty empty arguments 8 12 0 13 #dcdcdc #000000 0;
#X obj 0 750 cnv 3 550 3 empty empty more_info 8 12 0 13 #dcdcdc #000000 0;
#X text 10 770 This object and its help was autogenerated by FCPD_Workbench;
#X obj 0 810 cnv 15 550 15 empty empty  8 12 0 13 #dcdcdc #404040 0;
