#N canvas 436 36 550 620 10;
#X obj 0 0 cnv 15 550 40 empty empty draft/angular_dimension 3 12 0 18 #c4dcdc #000000 0;
#X obj 400 10 draft/angular_dimension;
#X text 10 50 Create an angular dimension from the given center and angles.;
#X obj 0 92 cnv 3 550 3 empty empty inlets 8 12 0 13 #dcdcdc #000000 0;
#X obj 78 122 cnv 17 3 17 empty \$0-pddp.cnv.let.1 0 5 9 0 16 #dcdcdc #9c9c9c 0;
#X text 100 122 center;
#X obj 78 152 cnv 17 3 17 empty \$0-pddp.cnv.let.1 1 5 9 0 16 #dcdcdc #9c9c9c 0;
#X text 100 152 angles;
#X obj 78 182 cnv 17 3 17 empty \$0-pddp.cnv.let.1 2 5 9 0 16 #dcdcdc #9c9c9c 0;
#X text 100 182 dim_line;
#X obj 78 212 cnv 17 3 17 empty \$0-pddp.cnv.let.1 3 5 9 0 16 #dcdcdc #9c9c9c 0;
#X text 100 212 normal;
#X obj 0 272 cnv 3 550 3 empty empty outlets 8 12 0 13 #dcdcdc #000000 0;
#X obj 78 302 cnv 17 3 17 empty empty 0 5 9 0 16 #dcdcdc #9c9c9c 0;
#X text 100 302 Name of the created FreeCAD object;
#X obj 0 332 cnv 3 550 3 empty empty arguments 8 12 0 13 #dcdcdc #000000 0;
#X obj 0 362 cnv 3 550 3 empty empty more_info 8 12 0 13 #dcdcdc #000000 0;
#X text 10 392 This object is part of the ;
#X obj 170 392  helplink FCPD;
#X text 200 392  library.;
#X obj 0 600 cnv 15 550 15 empty empty empty 20 12 0 14 #dcdcdc #404040 0;
