#N canvas 436 36 550 620 10;
#X obj 0 0 cnv 15 550 40 empty empty draft/dim_symbol 3 12 0 18 #c4dcdc #000000 0;
#X obj 400 10 draft/dim_symbol;
#X text 10 50 Return the specified dimension symbol.;
#X obj 0 80 cnv 3 550 3 empty empty inlets 8 12 0 13 #dcdcdc #000000 0;
#X obj 78 110 cnv 17 3 17 empty \$0-pddp.cnv.let.1 0 5 9 0 16 #dcdcdc #9c9c9c 0;
#X text 100 110 symbol;
#X obj 78 140 cnv 17 3 17 empty \$0-pddp.cnv.let.1 1 5 9 0 16 #dcdcdc #9c9c9c 0;
#X text 100 140 invert;
#X obj 0 200 cnv 3 550 3 empty empty outlets 8 12 0 13 #dcdcdc #000000 0;
#X obj 78 230 cnv 17 3 17 empty empty 0 5 9 0 16 #dcdcdc #9c9c9c 0;
#X text 100 230 Name of the created FreeCAD object;
#X obj 0 260 cnv 3 550 3 empty empty arguments 8 12 0 13 #dcdcdc #000000 0;
#X obj 0 290 cnv 3 550 3 empty empty more_info 8 12 0 13 #dcdcdc #000000 0;
#X text 10 320 This object is in the ;
#X obj 140 320  helplink draft;
#X text 175 320  part of the ;
#X obj 245 320  helplink FCPD;
#X text 275 320  library.;
#X obj 0 600 cnv 15 550 15 empty empty empty 20 12 0 14 #dcdcdc #404040 0;
