#N canvas 436 36 550 620 10;
#X obj 0 0 cnv 15 550 40 empty empty draft/get_svg 3 12 0 18 #c4dcdc #000000 0;
#X obj 400 10 draft/get_svg;
#X text 10 50 Return a string containing an SVG representation of the object.;
#X obj 0 92 cnv 3 550 3 empty empty inlets 8 12 0 13 #dcdcdc #000000 0;
#X obj 78 122 cnv 17 3 17 empty \$0-pddp.cnv.let.1 0 5 9 0 16 #dcdcdc #9c9c9c 0;
#X text 100 122 obj;
#X obj 78 152 cnv 17 3 17 empty \$0-pddp.cnv.let.1 1 5 9 0 16 #dcdcdc #9c9c9c 0;
#X text 100 152 scale;
#X obj 78 182 cnv 17 3 17 empty \$0-pddp.cnv.let.1 2 5 9 0 16 #dcdcdc #9c9c9c 0;
#X text 100 182 linewidth;
#X obj 78 212 cnv 17 3 17 empty \$0-pddp.cnv.let.1 3 5 9 0 16 #dcdcdc #9c9c9c 0;
#X text 100 212 fontsize;
#X obj 78 242 cnv 17 3 17 empty \$0-pddp.cnv.let.1 4 5 9 0 16 #dcdcdc #9c9c9c 0;
#X text 100 242 fillstyle;
#X obj 78 272 cnv 17 3 17 empty \$0-pddp.cnv.let.1 5 5 9 0 16 #dcdcdc #9c9c9c 0;
#X text 100 272 direction;
#X obj 78 302 cnv 17 3 17 empty \$0-pddp.cnv.let.1 6 5 9 0 16 #dcdcdc #9c9c9c 0;
#X text 100 302 linestyle;
#X obj 78 332 cnv 17 3 17 empty \$0-pddp.cnv.let.1 7 5 9 0 16 #dcdcdc #9c9c9c 0;
#X text 100 332 color;
#X obj 78 362 cnv 17 3 17 empty \$0-pddp.cnv.let.1 8 5 9 0 16 #dcdcdc #9c9c9c 0;
#X text 100 362 linespacing;
#X obj 78 392 cnv 17 3 17 empty \$0-pddp.cnv.let.1 9 5 9 0 16 #dcdcdc #9c9c9c 0;
#X text 100 392 techdraw;
#X obj 78 422 cnv 17 3 17 empty \$0-pddp.cnv.let.1 10 5 9 0 16 #dcdcdc #9c9c9c 0;
#X text 100 422 rotation;
#X obj 78 452 cnv 17 3 17 empty \$0-pddp.cnv.let.1 11 5 9 0 16 #dcdcdc #9c9c9c 0;
#X text 100 452 fillspaces;
#X obj 78 482 cnv 17 3 17 empty \$0-pddp.cnv.let.1 12 5 9 0 16 #dcdcdc #9c9c9c 0;
#X text 100 482 override;
#X obj 0 542 cnv 3 550 3 empty empty outlets 8 12 0 13 #dcdcdc #000000 0;
#X obj 78 572 cnv 17 3 17 empty empty 0 5 9 0 16 #dcdcdc #9c9c9c 0;
#X text 100 572 Name of the created FreeCAD object;
#X obj 0 602 cnv 3 550 3 empty empty arguments 8 12 0 13 #dcdcdc #000000 0;
#X obj 0 632 cnv 3 550 3 empty empty more_info 8 12 0 13 #dcdcdc #000000 0;
#X text 10 662 This object is in the ;
#X obj 140 662  helplink draft;
#X text 175 662  part of the ;
#X obj 245 662  helplink FCPD;
#X text 275 662  library.;
#X obj 0 692 cnv 15 550 15 empty empty empty 20 12 0 14 #dcdcdc #404040 0;
