#N canvas 436 36 550 620 10;
#X obj 0 0 cnv 15 550 40 empty empty draft/make_label 3 12 0 18 #c4dcdc #000000 0;
#X obj 400 10 draft/make_label;
#X text 10 50 Create a Label object containing different types of information.;
#X obj 0 92 cnv 3 550 3 empty empty inlets 8 12 0 13 #dcdcdc #000000 0;
#X obj 78 122 cnv 17 3 17 empty \$0-pddp.cnv.let.1 0 5 9 0 16 #dcdcdc #9c9c9c 0;
#X text 100 122 target_point;
#X obj 78 152 cnv 17 3 17 empty \$0-pddp.cnv.let.1 1 5 9 0 16 #dcdcdc #9c9c9c 0;
#X text 100 152 placement;
#X obj 78 182 cnv 17 3 17 empty \$0-pddp.cnv.let.1 2 5 9 0 16 #dcdcdc #9c9c9c 0;
#X text 100 182 target_object;
#X obj 78 212 cnv 17 3 17 empty \$0-pddp.cnv.let.1 3 5 9 0 16 #dcdcdc #9c9c9c 0;
#X text 100 212 subelements;
#X obj 78 242 cnv 17 3 17 empty \$0-pddp.cnv.let.1 4 5 9 0 16 #dcdcdc #9c9c9c 0;
#X text 100 242 label_type;
#X obj 78 272 cnv 17 3 17 empty \$0-pddp.cnv.let.1 5 5 9 0 16 #dcdcdc #9c9c9c 0;
#X text 100 272 custom_text;
#X obj 78 302 cnv 17 3 17 empty \$0-pddp.cnv.let.1 6 5 9 0 16 #dcdcdc #9c9c9c 0;
#X text 100 302 direction;
#X obj 78 332 cnv 17 3 17 empty \$0-pddp.cnv.let.1 7 5 9 0 16 #dcdcdc #9c9c9c 0;
#X text 100 332 distance;
#X obj 78 362 cnv 17 3 17 empty \$0-pddp.cnv.let.1 8 5 9 0 16 #dcdcdc #9c9c9c 0;
#X text 100 362 points;
#X obj 0 422 cnv 3 550 3 empty empty outlets 8 12 0 13 #dcdcdc #000000 0;
#X obj 78 452 cnv 17 3 17 empty empty 0 5 9 0 16 #dcdcdc #9c9c9c 0;
#X text 100 452 Name of the created FreeCAD object;
#X obj 0 482 cnv 3 550 3 empty empty arguments 8 12 0 13 #dcdcdc #000000 0;
#X obj 0 512 cnv 3 550 3 empty empty more_info 8 12 0 13 #dcdcdc #000000 0;
#X text 10 542 This object is in the ;
#X obj 140 542  helplink draft;
#X text 175 542  part of the ;
#X obj 245 542  helplink FCPD;
#X text 275 542  library.;
#X obj 0 600 cnv 15 550 15 empty empty empty 20 12 0 14 #dcdcdc #404040 0;
