#N canvas 436 36 550 620 10;
#X obj 0 0 cnv 15 550 40 empty empty draft/path_array 3 12 0 18 #c4dcdc #000000 0;
#X obj 400 10 draft/path_array;
#X text 10 50 Make a Draft PathArray object.;
#X obj 0 80 cnv 3 550 3 empty empty inlets 8 12 0 13 #dcdcdc #000000 0;
#X obj 78 110 cnv 17 3 17 empty \$0-pddp.cnv.let.1 0 5 9 0 16 #dcdcdc #9c9c9c 0;
#X text 100 110 base_object;
#X obj 78 140 cnv 17 3 17 empty \$0-pddp.cnv.let.1 1 5 9 0 16 #dcdcdc #9c9c9c 0;
#X text 100 140 path_object;
#X obj 78 170 cnv 17 3 17 empty \$0-pddp.cnv.let.1 2 5 9 0 16 #dcdcdc #9c9c9c 0;
#X text 100 170 count;
#X obj 78 200 cnv 17 3 17 empty \$0-pddp.cnv.let.1 3 5 9 0 16 #dcdcdc #9c9c9c 0;
#X text 100 200 extra;
#X obj 78 230 cnv 17 3 17 empty \$0-pddp.cnv.let.1 4 5 9 0 16 #dcdcdc #9c9c9c 0;
#X text 100 230 subelements;
#X obj 78 260 cnv 17 3 17 empty \$0-pddp.cnv.let.1 5 5 9 0 16 #dcdcdc #9c9c9c 0;
#X text 100 260 align;
#X obj 78 290 cnv 17 3 17 empty \$0-pddp.cnv.let.1 6 5 9 0 16 #dcdcdc #9c9c9c 0;
#X text 100 290 align_mode;
#X obj 78 320 cnv 17 3 17 empty \$0-pddp.cnv.let.1 7 5 9 0 16 #dcdcdc #9c9c9c 0;
#X text 100 320 tan_vector;
#X obj 78 350 cnv 17 3 17 empty \$0-pddp.cnv.let.1 8 5 9 0 16 #dcdcdc #9c9c9c 0;
#X text 100 350 force_vertical;
#X obj 78 380 cnv 17 3 17 empty \$0-pddp.cnv.let.1 9 5 9 0 16 #dcdcdc #9c9c9c 0;
#X text 100 380 vertical_vector;
#X obj 78 410 cnv 17 3 17 empty \$0-pddp.cnv.let.1 10 5 9 0 16 #dcdcdc #9c9c9c 0;
#X text 100 410 use_link;
#X obj 0 470 cnv 3 550 3 empty empty outlets 8 12 0 13 #dcdcdc #000000 0;
#X obj 78 500 cnv 17 3 17 empty empty 0 5 9 0 16 #dcdcdc #9c9c9c 0;
#X text 100 500 Name of the created FreeCAD object;
#X obj 0 530 cnv 3 550 3 empty empty arguments 8 12 0 13 #dcdcdc #000000 0;
#X obj 0 560 cnv 3 550 3 empty empty more_info 8 12 0 13 #dcdcdc #000000 0;
#X text 10 590 This object is in the ;
#X obj 140 590  helplink draft;
#X text 175 590  part of the ;
#X obj 245 590  helplink FCPD;
#X text 275 590  library.;
#X obj 0 620 cnv 15 550 15 empty empty empty 20 12 0 14 #dcdcdc #404040 0;
