#N canvas 436 36 550 620 10;
#X obj 0 0 cnv 15 550 40 empty empty draft/point 3 12 0 18 #c4dcdc #000000 0;
#X obj 400 10 draft/point;
#X text 10 50  makePoint(x \, y \, z  \, [color(r \, g \, b) \, point_size]) or;
#X obj 0 92 cnv 3 550 3 empty empty inlets 8 12 0 13 #dcdcdc #000000 0;
#X obj 78 122 cnv 17 3 17 empty \$0-pddp.cnv.let.1 0 5 9 0 16 #dcdcdc #9c9c9c 0;
#X text 100 122 X;
#X obj 78 152 cnv 17 3 17 empty \$0-pddp.cnv.let.1 1 5 9 0 16 #dcdcdc #9c9c9c 0;
#X text 100 152 Y;
#X obj 78 182 cnv 17 3 17 empty \$0-pddp.cnv.let.1 2 5 9 0 16 #dcdcdc #9c9c9c 0;
#X text 100 182 Z;
#X obj 78 212 cnv 17 3 17 empty \$0-pddp.cnv.let.1 3 5 9 0 16 #dcdcdc #9c9c9c 0;
#X text 100 212 color;
#X obj 78 242 cnv 17 3 17 empty \$0-pddp.cnv.let.1 4 5 9 0 16 #dcdcdc #9c9c9c 0;
#X text 100 242 name;
#X obj 78 272 cnv 17 3 17 empty \$0-pddp.cnv.let.1 5 5 9 0 16 #dcdcdc #9c9c9c 0;
#X text 100 272 point_size;
#X obj 0 332 cnv 3 550 3 empty empty outlets 8 12 0 13 #dcdcdc #000000 0;
#X obj 78 362 cnv 17 3 17 empty empty 0 5 9 0 16 #dcdcdc #9c9c9c 0;
#X text 100 362 Name of the created FreeCAD object;
#X obj 0 392 cnv 3 550 3 empty empty arguments 8 12 0 13 #dcdcdc #000000 0;
#X obj 0 422 cnv 3 550 3 empty empty more_info 8 12 0 13 #dcdcdc #000000 0;
#X text 10 452 This object is in the ;
#X obj 140 452  helplink draft;
#X text 175 452  part of the ;
#X obj 245 452  helplink FCPD;
#X text 275 452  library.;
#X obj 0 600 cnv 15 550 15 empty empty empty 20 12 0 14 #dcdcdc #404040 0;
