#N canvas 436 36 550 620 10;
#X obj 0 0 cnv 15 550 40 empty empty draft/rect_array 3 12 0 18 #c4dcdc #000000 0;
#X obj 400 10 draft/rect_array;
#X text 10 50 Create a rectangular array from the given object.;
#X obj 0 80 cnv 3 550 3 empty empty inlets 8 12 0 13 #dcdcdc #000000 0;
#X obj 78 110 cnv 17 3 17 empty \$0-pddp.cnv.let.1 0 5 9 0 16 #dcdcdc #9c9c9c 0;
#X text 100 110 base_object;
#X obj 78 140 cnv 17 3 17 empty \$0-pddp.cnv.let.1 1 5 9 0 16 #dcdcdc #9c9c9c 0;
#X text 100 140 d_x;
#X obj 78 170 cnv 17 3 17 empty \$0-pddp.cnv.let.1 2 5 9 0 16 #dcdcdc #9c9c9c 0;
#X text 100 170 d_y;
#X obj 78 200 cnv 17 3 17 empty \$0-pddp.cnv.let.1 3 5 9 0 16 #dcdcdc #9c9c9c 0;
#X text 100 200 d_z;
#X obj 78 230 cnv 17 3 17 empty \$0-pddp.cnv.let.1 4 5 9 0 16 #dcdcdc #9c9c9c 0;
#X text 100 230 n_x;
#X obj 78 260 cnv 17 3 17 empty \$0-pddp.cnv.let.1 5 5 9 0 16 #dcdcdc #9c9c9c 0;
#X text 100 260 n_y;
#X obj 78 290 cnv 17 3 17 empty \$0-pddp.cnv.let.1 6 5 9 0 16 #dcdcdc #9c9c9c 0;
#X text 100 290 n_z;
#X obj 78 320 cnv 17 3 17 empty \$0-pddp.cnv.let.1 7 5 9 0 16 #dcdcdc #9c9c9c 0;
#X text 100 320 use_link;
#X obj 0 380 cnv 3 550 3 empty empty outlets 8 12 0 13 #dcdcdc #000000 0;
#X obj 78 410 cnv 17 3 17 empty empty 0 5 9 0 16 #dcdcdc #9c9c9c 0;
#X text 100 410 Name of the created FreeCAD object;
#X obj 0 440 cnv 3 550 3 empty empty arguments 8 12 0 13 #dcdcdc #000000 0;
#X obj 0 470 cnv 3 550 3 empty empty more_info 8 12 0 13 #dcdcdc #000000 0;
#X text 10 500 This object is part of the ;
#X obj 170 500  helplink FCPD;
#X text 200 500  library.;
#X obj 0 600 cnv 15 550 15 empty empty empty 20 12 0 14 #dcdcdc #404040 0;
