#N canvas 1882 165 631 565 12;
#X text 10 10 links;
#X obj 10 30 inlet;
#X obj 10 330 list prepend raw ikpy.chain.Chain;
#X obj 10 360 fc_process 0;
#X obj 10 390 route ERROR;
#X obj 10 420 print FreeCAD Error;
#X obj 160 420 outlet;
#X obj 10 130 _originJoint;
#X obj 10 60 fc_unList;
#X obj 10 300 fc_list;
#X obj 80 200 any;
#X obj 10 90 t b a;
#X obj 10 159 t a b;
#X obj 10 270 list append;
#X connect 1 0 8 0;
#X connect 2 0 3 0;
#X connect 3 0 4 0;
#X connect 4 0 5 0;
#X connect 4 1 6 0;
#X connect 7 0 12 0;
#X connect 8 0 11 0;
#X connect 9 0 2 0;
#X connect 10 0 13 1;
#X connect 11 0 7 0;
#X connect 11 1 10 1;
#X connect 12 0 13 0;
#X connect 12 1 10 0;
#X connect 13 0 9 0;
