#N canvas 548 182 631 615 12;
#X text 130 10 links;
#X obj 130 30 inlet;
#X obj 20 240 list prepend raw ikpy.chain.Chain;
#X obj 20 270 fc_process 0;
#X obj 20 300 route ERROR;
#X obj 20 330 print FreeCAD Error;
#X obj 220 360 outlet;
#X obj 210 120 _originJoint;
#X obj 130 60 unList;
#X obj 20 210 fcList;
#X obj 20 30 inlet;
#X obj 170 330 t b a;
#X obj 170 360 outlet;
#X text 20 10 go;
#X text 170 380 done;
#X obj 20 60 b;
#X obj 210 150 list append;
#X obj 210 90 t b a;
#X obj 20 180 list append None;
#X connect 1 0 8 0;
#X connect 2 0 3 0;
#X connect 3 0 4 0;
#X connect 4 0 5 0;
#X connect 4 1 11 0;
#X connect 7 1 16 0;
#X connect 8 0 18 1;
#X connect 9 0 2 0;
#X connect 10 0 15 0;
#X connect 11 0 12 0;
#X connect 11 1 6 0;
#X connect 15 0 18 0;
#X connect 17 0 7 0;
#X connect 17 1 16 1;
#X connect 18 0 9 0;
