#N canvas 355 145 815 692 12;
#X obj 120 30 inlet;
#X text 210 10 joints;
#X obj 210 30 inlet;
#X obj 10 180 list prepend raw ikpy.chain.Chain.forward_kinematics
;
#X obj 10 210 fc_process 0;
#X obj 10 240 route ERROR;
#X obj 10 270 print FreeCAD Error;
#X obj 220 300 outlet;
#X text 120 10 chain;
#X obj 10 150 list append True;
#X obj 10 30 inlet;
#X obj 160 270 t b a;
#X obj 160 300 outlet;
#X text 10 10 go;
#X text 160 320 done;
#X obj 10 59 b;
#X obj 10 90 list append None;
#X obj 10 120 list append None;
#X connect 0 0 16 1;
#X connect 2 0 17 1;
#X connect 3 0 4 0;
#X connect 4 0 5 0;
#X connect 5 0 6 0;
#X connect 5 1 11 0;
#X connect 9 0 3 0;
#X connect 10 0 15 0;
#X connect 11 0 12 0;
#X connect 11 1 7 0;
#X connect 15 0 16 0;
#X connect 16 0 17 0;
#X connect 17 0 9 0;
