#N canvas 515 186 815 668 12;
#X obj 10 30 inlet;
#X obj 100 230 any;
#X obj 100 260 list append;
#X obj 200 260 any;
#X obj 200 290 list append;
#X obj 200 350 list prepend raw ikpy.chain.Chain.inverse_kinematics
;
#X obj 200 380 fc_process 0;
#X obj 200 410 route ERROR;
#X obj 200 440 print FreeCAD Error;
#X obj 360 440 outlet;
#X text 10 10 chain;
#X obj 10 60 t a b b;
#X obj 410 30 inlet;
#X text 410 10 target_axis;
#X obj 120 30 inlet;
#X obj 120 70 fc_PlacementPosRot;
#X obj 120 129 fc_castList;
#X obj 220 130 fc_castList;
#X text 120 10 target_placement;
#X obj 200 320 list append None;
#X connect 0 0 11 0;
#X connect 1 0 2 1;
#X connect 2 0 4 0;
#X connect 3 0 4 1;
#X connect 4 0 19 0;
#X connect 5 0 6 0;
#X connect 6 0 7 0;
#X connect 7 0 8 0;
#X connect 7 1 9 0;
#X connect 11 0 2 0;
#X connect 11 1 1 0;
#X connect 11 2 3 0;
#X connect 12 0 19 1;
#X connect 14 0 15 0;
#X connect 15 0 16 0;
#X connect 15 1 17 0;
#X connect 16 0 1 1;
#X connect 17 0 3 1;
#X connect 19 0 5 0;
