#N canvas 535 190 570 557 12;
#X obj 120 30 inlet;
#X obj 10 250 list prepend raw ikpy.chain.Chain.inverse_kinematics
;
#X obj 10 310 route ERROR;
#X obj 10 340 print FreeCAD Error;
#X obj 220 370 outlet;
#X text 120 10 chain;
#X obj 460 30 inlet;
#X text 460 10 target_axis;
#X obj 200 30 inlet;
#X text 200 10 target_placement;
#X obj 10 220 list append None;
#X obj 10 280 fc_process;
#X obj 10 30 inlet;
#X obj 160 340 t b a;
#X obj 160 370 outlet;
#X text 10 10 go;
#X text 160 390 done;
#X obj 200 90 castList;
#X obj 270 90 castList;
#X obj 200 61 placementPosRot;
#X obj 10 60 b;
#X obj 10 130 list append None;
#X obj 10 160 list append list 3 0 0 0;
#X obj 10 190 list append list 3 0 0 0;
#X connect 0 0 21 1;
#X connect 1 0 11 0;
#X connect 2 0 3 0;
#X connect 2 1 13 0;
#X connect 6 0 10 1;
#X connect 8 0 19 0;
#X connect 10 0 1 0;
#X connect 11 0 2 0;
#X connect 12 0 20 0;
#X connect 13 0 14 0;
#X connect 13 1 4 0;
#X connect 17 0 22 1;
#X connect 18 0 23 1;
#X connect 19 0 17 0;
#X connect 19 1 18 0;
#X connect 20 0 21 0;
#X connect 21 0 22 0;
#X connect 22 0 23 0;
#X connect 23 0 10 0;
