#N canvas 498 292 450 309 12;
#X obj 20 250 fc_process;
#X obj 20 10 inlet;
#X obj 20 280 outlet;
#X obj 20 220 list prepend raw App.Placement;
#X obj 20 70 fc_process;
#X obj 20 40 list prepend raw numpy.ndarray.flatten;
#X obj 20 130 fc_process;
#X obj 20 100 list prepend str;
#X obj 20 190 fc_process;
#X obj 20 160 list prepend raw App.Matrix;
#X connect 0 0 2 0;
#X connect 1 0 5 0;
#X connect 3 0 0 0;
#X connect 4 0 7 0;
#X connect 5 0 4 0;
#X connect 6 0 9 0;
#X connect 7 0 6 0;
#X connect 8 0 3 0;
#X connect 9 0 8 0;
