#N canvas 525 278 478 559 12;
#X obj 30 330 fc_process;
#X obj 100 30 inlet;
#X obj 30 300 list prepend raw App.Placement;
#X obj 30 150 fc_process;
#X obj 30 120 list prepend raw numpy.ndarray.flatten;
#X obj 30 210 fc_process;
#X obj 30 180 list prepend str;
#X obj 30 270 fc_process;
#X obj 30 240 list prepend raw App.Matrix;
#X obj 30 360 t b a;
#X obj 30 390 outlet;
#X obj 90 390 outlet;
#X obj 30 30 inlet;
#X obj 30 59 b;
#X obj 30 90 list;
#X text 30 410 done;
#X text 30 10 go;
#X connect 0 0 9 0;
#X connect 1 0 14 1;
#X connect 2 0 0 0;
#X connect 3 0 6 0;
#X connect 4 0 3 0;
#X connect 5 0 8 0;
#X connect 6 0 5 0;
#X connect 7 0 2 0;
#X connect 8 0 7 0;
#X connect 9 0 10 0;
#X connect 9 1 11 0;
#X connect 12 0 13 0;
#X connect 13 0 14 0;
#X connect 14 0 4 0;
