#N canvas 128 112 1060 721 12;
#X text 10 10 name;
#X obj 10 30 inlet;
#X text 200 10 origin_translation;
#X obj 200 30 inlet;
#X obj 200 180 any;
#X obj 200 210 list append;
#X text 340 10 origin_orientation;
#X obj 340 30 inlet;
#X obj 300 210 any;
#X obj 300 240 list append;
#X obj 480 30 inlet;
#X obj 450 270 any;
#X text 610 10 bounds;
#X obj 610 30 inlet;
#X obj 600 300 any;
#X obj 600 330 list append;
#X obj 600 400 list prepend raw ikpy.link.URDFLink;
#X obj 600 430 fc_process 0;
#X obj 600 460 route ERROR;
#X obj 600 490 print FreeCAD Error;
#X obj 750 490 outlet;
#X obj 10 60 t a b b b b;
#X obj 300 270 list append None;
#X obj 450 300 list append;
#X text 480 10 translation axis;
#X obj 600 360 list append rpy True prismatic;
#X connect 1 0 21 0;
#X connect 3 0 4 1;
#X connect 4 0 5 1;
#X connect 5 0 9 0;
#X connect 7 0 8 1;
#X connect 8 0 9 1;
#X connect 9 0 22 0;
#X connect 10 0 11 1;
#X connect 11 0 23 1;
#X connect 13 0 14 1;
#X connect 14 0 15 1;
#X connect 15 0 25 0;
#X connect 16 0 17 0;
#X connect 17 0 18 0;
#X connect 18 0 19 0;
#X connect 18 1 20 0;
#X connect 21 0 5 0;
#X connect 21 1 4 0;
#X connect 21 2 8 0;
#X connect 21 3 11 0;
#X connect 21 4 14 0;
#X connect 22 0 23 0;
#X connect 23 0 15 0;
#X connect 25 0 16 0;
