#N canvas 107 115 1060 746 12;
#X text 10 10 name;
#X obj 10 30 inlet;
#X obj 210 30 inlet;
#X obj 200 180 any;
#X obj 200 210 list append;
#X obj 300 210 any;
#X obj 300 240 list append;
#X obj 410 30 inlet;
#X obj 400 240 any;
#X obj 400 270 list append;
#X text 600 10 bounds;
#X obj 600 30 inlet;
#X obj 600 300 any;
#X obj 600 330 list append;
#X obj 600 400 list prepend raw ikpy.link.URDFLink;
#X obj 600 430 fc_process 0;
#X obj 600 460 route ERROR;
#X obj 600 490 print FreeCAD Error;
#X obj 750 520 outlet;
#X obj 450 300 list append None;
#X obj 10 60 t a b b b b;
#X obj 600 360 list append rpy True revolute;
#X obj 640 230 init list list 2 None None;
#X text 410 10 rotation axis;
#X obj 210 70 fc_PlacementPosRot;
#X text 210 10 origin;
#X obj 210 129 fc_castList;
#X obj 310 130 fc_castList;
#X obj 410 180 fc_castList;
#X obj 600 200 fc_castList;
#X connect 1 0 20 0;
#X connect 2 0 24 0;
#X connect 3 0 4 1;
#X connect 4 0 6 0;
#X connect 5 0 6 1;
#X connect 6 0 9 0;
#X connect 7 0 28 0;
#X connect 8 0 9 1;
#X connect 9 0 19 0;
#X connect 11 0 29 0;
#X connect 12 0 13 1;
#X connect 13 0 21 0;
#X connect 14 0 15 0;
#X connect 15 0 16 0;
#X connect 16 0 17 0;
#X connect 16 1 18 0;
#X connect 19 0 13 0;
#X connect 20 0 4 0;
#X connect 20 1 3 0;
#X connect 20 2 5 0;
#X connect 20 3 8 0;
#X connect 20 4 12 0;
#X connect 21 0 14 0;
#X connect 22 0 12 1;
#X connect 24 0 26 0;
#X connect 24 1 27 0;
#X connect 26 0 3 1;
#X connect 27 0 5 1;
#X connect 28 0 8 1;
#X connect 29 0 12 1;
