#N canvas 436 36 550 620 10;
#X obj 0 0 cnv 15 550 40 empty empty shape/cut 3 12 0 18 #c4dcdc #000000 0;
#X obj 400 10 shape/cut;
#X text 10 50 Difference of this and a given (list of) topo shape \; Supports: \; - Fuzzy Boolean operations (global tolerance for a Boolean operation) \; - Support of multiple arguments for a single Boolean operation \; - Parallelization of Boolean Operations algorithm \;  \; OCC 6.9.0 or later is required.;
#X obj 0 190 cnv 3 550 3 empty empty inlets 8 12 0 13 #dcdcdc #000000 0;
#X obj 78 210 cnv 17 3 17 empty \$0-pddp.cnv.let.0 0 5 9 0 16 #dcdcdc #9c9c9c 0;
#X text 100 210 Shape;
#X obj 78 240 cnv 17 3 17 empty \$0-pddp.cnv.let.1 1 5 9 0 16 #dcdcdc #9c9c9c 0;
#X text 100 240 tool;
#X obj 0 270 cnv 3 550 3 empty empty outlets 8 12 0 13 #dcdcdc #000000 0;
#X obj 78 300 cnv 17 3 17 empty empty 0 5 9 0 16 #dcdcdc #9c9c9c 0;
#X text 100 300 Result of the operation;
#X obj 0 360 cnv 3 550 3 empty empty arguments 8 12 0 13 #dcdcdc #000000 0;
#X obj 0 420 cnv 3 550 3 empty empty more_info 8 12 0 13 #dcdcdc #000000 0;
#X text 10 440 This object is in the ;
#X obj 140 440  helplink shape;
#X text 175 440  part of the ;
#X obj 245 440  helplink FCPD;
#X text 275 440  library.;
#X obj 0 480 cnv 15 550 15 empty empty empty 20 12 0 14 #dcdcdc #404040 0;
