#N canvas 436 36 550 620 10;
#X obj 0 0 cnv 15 550 40 empty empty shape/mirror 3 12 0 18 #c4dcdc #000000 0;
#X obj 400 10 shape/mirror;
#X text 10 50 Mirror this shape on a given plane. \; The plane is given with its base point and its normal direction.;
#X obj 0 90 cnv 3 550 3 empty empty inlets 8 12 0 13 #dcdcdc #000000 0;
#X obj 78 110 cnv 17 3 17 empty \$0-pddp.cnv.let.0 0 5 9 0 16 #dcdcdc #9c9c9c 0;
#X text 100 110 Shape;
#X obj 78 140 cnv 17 3 17 empty \$0-pddp.cnv.let.1 1 5 9 0 16 #dcdcdc #9c9c9c 0;
#X text 100 140 base;
#X obj 78 170 cnv 17 3 17 empty \$0-pddp.cnv.let.2 2 5 9 0 16 #dcdcdc #9c9c9c 0;
#X text 100 170 norm;
#X obj 0 200 cnv 3 550 3 empty empty outlets 8 12 0 13 #dcdcdc #000000 0;
#X obj 78 230 cnv 17 3 17 empty empty 0 5 9 0 16 #dcdcdc #9c9c9c 0;
#X text 100 230 Result of the operation;
#X obj 0 290 cnv 3 550 3 empty empty arguments 8 12 0 13 #dcdcdc #000000 0;
#X obj 0 350 cnv 3 550 3 empty empty more_info 8 12 0 13 #dcdcdc #000000 0;
#X text 10 370 This object is in the ;
#X obj 140 370  helplink shape;
#X text 175 370  part of the ;
#X obj 245 370  helplink FCPD;
#X text 275 370  library.;
#X obj 0 410 cnv 15 550 15 empty empty empty 20 12 0 14 #dcdcdc #404040 0;
