#N canvas 436 36 550 620 10;
#X obj 0 0 cnv 15 550 40 empty empty shape/revolve 3 12 0 18 #c4dcdc #000000 0;
#X obj 400 10 shape/revolve;
#X text 10 50 Revolve the shape around an Axis to a given degree. \; Part.revolve(Vector(0 \, 0 \, 0) \, Vector(0 \, 0 \, 1) \, 360) - revolves the shape around the Z Axis 360 degree. \;  \; Hints: Sometimes you want to create a rotation body out of a closed edge or wire. \; Example: \; from FreeCAD import Base \; import Part \; V=Base.Vector \;  \; e=Part.Ellipse() \; s=e.toShape() \; r=s.revolve(V(0 \, 0 \, 0) \, V(0 \, 1 \, 0) \,  360) \; Part.show(r) \;  \; However \,  you may possibly realize some rendering artifacts or that the mesh \; creation seems to hang. This is because this way the surface is created twice. \; Since the curve is a full ellipse it is sufficient to do a rotation of 180 degree \; only \,  i.e. r=s.revolve(V(0 \, 0 \, 0) \, V(0 \, 1 \, 0) \,  180) \;  \; Now when rendering this object you may still see some artifacts at the poles. Now the \; problem seems to be that the meshing algorithm doesn't like to rotate around a point \; where there is no vertex. \;  \; The idea to fix this issue is that you create only half of the ellipse so that its shape \; representation has vertexes at its start and end point. \;  \; from FreeCAD import Base \; import Part \; V=Base.Vector \;  \; e=Part.Ellipse() \; s=e.toShape(e.LastParameter/4 \, 3*e.LastParameter/4) \; r=s.revolve(V(0 \, 0 \, 0) \, V(0 \, 1 \, 0) \,  360) \; Part.show(r) \;         ;
#X obj 0 750 cnv 3 550 3 empty empty inlets 8 12 0 13 #dcdcdc #000000 0;
#X obj 78 770 cnv 17 3 17 empty \$0-pddp.cnv.let.0 0 5 9 0 16 #dcdcdc #9c9c9c 0;
#X text 100 770 Shape;
#X obj 78 800 cnv 17 3 17 empty \$0-pddp.cnv.let.1 1 5 9 0 16 #dcdcdc #9c9c9c 0;
#X text 100 800 base;
#X obj 78 830 cnv 17 3 17 empty \$0-pddp.cnv.let.2 2 5 9 0 16 #dcdcdc #9c9c9c 0;
#X text 100 830 direction;
#X obj 78 860 cnv 17 3 17 empty \$0-pddp.cnv.let.3 3 5 9 0 16 #dcdcdc #9c9c9c 0;
#X text 100 860 angle;
#X obj 0 890 cnv 3 550 3 empty empty outlets 8 12 0 13 #dcdcdc #000000 0;
#X obj 78 920 cnv 17 3 17 empty empty 0 5 9 0 16 #dcdcdc #9c9c9c 0;
#X text 100 920 Result of the operation;
#X obj 0 980 cnv 3 550 3 empty empty arguments 8 12 0 13 #dcdcdc #000000 0;
#X obj 0 1040 cnv 3 550 3 empty empty more_info 8 12 0 13 #dcdcdc #000000 0;
#X text 10 1060 This object is in the ;
#X obj 140 1060  helplink shape;
#X text 175 1060  part of the ;
#X obj 245 1060  helplink FCPD;
#X text 275 1060  library.;
#X obj 0 1100 cnv 15 550 15 empty empty empty 20 12 0 14 #dcdcdc #404040 0;
