#N canvas 436 36 550 620 10;
#X obj 0 0 cnv 15 550 40 empty empty shape/scaled 3 12 0 18 #c4dcdc #000000 0;
#X obj 400 10 shape/scaled;
#X text 10 50 Create a new shape with scale.;
#X obj 0 70 cnv 3 550 3 empty empty inlets 8 12 0 13 #dcdcdc #000000 0;
#X obj 78 90 cnv 17 3 17 empty \$0-pddp.cnv.let.0 0 5 9 0 16 #dcdcdc #9c9c9c 0;
#X text 100 90 Shape;
#X obj 78 120 cnv 17 3 17 empty \$0-pddp.cnv.let.1 1 5 9 0 16 #dcdcdc #9c9c9c 0;
#X text 100 120 factor;
#X obj 78 150 cnv 17 3 17 empty \$0-pddp.cnv.let.2 2 5 9 0 16 #dcdcdc #9c9c9c 0;
#X text 100 150 base;
#X obj 78 180 cnv 17 3 17 empty \$0-pddp.cnv.let.3 3 5 9 0 16 #dcdcdc #9c9c9c 0;
#X text 100 180 0;
#X obj 78 210 cnv 17 3 17 empty \$0-pddp.cnv.let.4 4 5 9 0 16 #dcdcdc #9c9c9c 0;
#X text 100 210 0;
#X obj 0 240 cnv 3 550 3 empty empty outlets 8 12 0 13 #dcdcdc #000000 0;
#X obj 78 270 cnv 17 3 17 empty empty 0 5 9 0 16 #dcdcdc #9c9c9c 0;
#X text 100 270 Result of the operation;
#X obj 0 330 cnv 3 550 3 empty empty arguments 8 12 0 13 #dcdcdc #000000 0;
#X obj 0 390 cnv 3 550 3 empty empty more_info 8 12 0 13 #dcdcdc #000000 0;
#X text 10 410 This object is in the ;
#X obj 140 410  helplink shape;
#X text 175 410  part of the ;
#X obj 245 410  helplink FCPD;
#X text 275 410  library.;
#X obj 0 450 cnv 15 550 15 empty empty empty 20 12 0 14 #dcdcdc #404040 0;
