#N canvas 436 36 550 620 10;
#X obj 0 0 cnv 15 550 15 empty empty ikpy/link/URDFLink 8 12 0 13 #c4dcdc #000000 0;
#X obj 400 10 ikpy/link/URDFLink;
#X text 10 50 Link in URDF representation.-------- \;     name: str \;         The name of the link \;     bounds: tuple \;         Optional : The bounds of the link. Defaults to None \;     origin_translation: numpy.array \;         The translation vector. (In URDF \,  attribute "xyz" of the "origin" element) \;     origin_orientation: numpy.array \;         The orientation of the link. (In URDF \,  attribute "rpy" of the "origin" element) \;     rotation: numpy.array \;         The rotation axis of the link. (In URDF \,  attribute "xyz" of the "axis" element) \;     angle_representation: str \;         Optional : The representation used by the angle. Currently supported representations : rpy. Defaults to rpy \,  the URDF standard. \;     use_symbolic_matrix: bool \;         whether the transformation matrix is stored as a Numpy array or as a Sympy symbolic matrix. \;     joint_type: str \;         The URDF "type" attribute of the joint. Only support for revolute and prismatic joint for the moment \;  \;     Returns \;     ------- \;     URDFLink \;         The link object \;  \;     Example \;     ------- \;  \;     URDFlink() \;     ;
#X obj 0 610 cnv 3 550 3 empty empty inlets 8 12 0 13 #dcdcdc #000000 0;
#X obj 78 630 cnv 17 3 17 empty empty 0 8 12 0 13 #dcdcdc #9c9c9c 0;
#X text 100 630 name;
#X obj 78 660 cnv 17 3 17 empty empty 1 8 12 0 13 #dcdcdc #9c9c9c 0;
#X text 100 660 origin_translation;
#X obj 78 690 cnv 17 3 17 empty empty 2 8 12 0 13 #dcdcdc #9c9c9c 0;
#X text 100 690 origin_orientation;
#X obj 78 720 cnv 17 3 17 empty empty 3 8 12 0 13 #dcdcdc #9c9c9c 0;
#X text 100 720 rotation;
#X obj 78 750 cnv 17 3 17 empty empty 4 8 12 0 13 #dcdcdc #9c9c9c 0;
#X text 100 750 translation;
#X obj 78 780 cnv 17 3 17 empty empty 5 8 12 0 13 #dcdcdc #9c9c9c 0;
#X text 100 780 bounds;
#X obj 78 810 cnv 17 3 17 empty empty 6 8 12 0 13 #dcdcdc #9c9c9c 0;
#X text 100 810 angle_representation;
#X obj 78 840 cnv 17 3 17 empty empty 7 8 12 0 13 #dcdcdc #9c9c9c 0;
#X text 100 840 use_symbolic_matrix;
#X obj 78 870 cnv 17 3 17 empty empty 8 8 12 0 13 #dcdcdc #9c9c9c 0;
#X text 100 870 joint_type;
#X obj 0 900 cnv 3 550 3 empty empty outlets 8 12 0 13 #dcdcdc #000000 0;
#X obj 78 930 cnv 17 3 17 empty empty 0 8 12 0 13 #dcdcdc #9c9c9c 0;
#X text 100 930 Result of the operation;
#X obj 0 990 cnv 3 550 3 empty empty arguments 8 12 0 13 #dcdcdc #000000 0;
#X obj 0 1050 cnv 3 550 3 empty empty more_info 8 12 0 13 #dcdcdc #000000 0;
#X text 10 1070 This object and its help was autogenerated by FCPD_Workbench;
#X obj 0 1110 cnv 15 550 15 empty empty  8 12 0 13 #dcdcdc #404040 0;
