#N canvas 645 133 555 607 10;
#X obj 0 585 cnv 15 552 21 empty \$0-pddp.cnv.footer empty 20 12 0
14 #dcdcdc #404040 0;
#X obj 0 0 cnv 15 552 40 empty \$0-pddp.cnv.header fc_property 3 12
0 18 #c4dcdc #000000 0;
#X obj 0 193 cnv 3 550 3 empty \$0-pddp.cnv.inlets inlets 8 12 0 13
#dcdcdc #000000 0;
#N canvas 573 351 494 420 META 0;
#X text 12 25 KEYWORDS fcpd freecad object property;
#X text 12 45 LICENSE LGPL;
#X text 12 65 DESCRIPTION get/set FreeCAD object property;
#X text 12 85 INLET_0 bang any;
#X text 12 105 INLET_1 symbol;
#X text 12 125 INLET_2 symbol;
#X text 12 145 OUTLET_0 any;
#X text 12 165 LIBRARY FCPD;
#X text 12 225 RELEASE_DATE 2021;
#X text 12 245 HELP_PATCH_AUTHORS Flachy Joe;
#X text 12 185 AUTHOR Flachy Joe;
#X text 12 205 WEBSITE https://github.com/FlachyJoe/FCPDWorkbench;
#X restore 500 587 pd META;
#X obj 0 419 cnv 3 550 3 empty \$0-pddp.cnv.outlets outlets 8 12 0
13 #dcdcdc #000000 0;
#X obj 0 478 cnv 3 550 3 empty \$0-pddp.cnv.argument arguments 8 12
0 13 #dcdcdc #000000 0;
#X obj 0 530 cnv 3 550 3 empty \$0-pddp.cnv.more_info more_info 8 12
0 13 #dcdcdc #000000 0;
#N canvas 222 374 428 275 Related_objects 0;
#X obj 1 1 cnv 15 425 20 empty \$0-pddp.cnv.subheading empty 3 12 0
14 #c4dcdc #000000 0;
#X text 8 2 [fc_property] Related Objects;
#X obj 20 40 fc_getObjectProperty;
#X obj 160 40 fc_setObjectProperty;
#X restore 102 587 pd Related_objects;
#X obj 80 201 cnv 17 3 90 empty \$0-pddp.cnv.let.0 0 5 9 0 16 #dcdcdc
#9c9c9c 0;
#X obj 78 428 cnv 17 3 40 empty \$0-pddp.cnv.let.n 0 5 9 0 16 #dcdcdc
#9c9c9c 0;
#X obj 80 301 cnv 17 3 45 empty \$0-pddp.cnv.let.1 1 5 9 0 16 #dcdcdc
#9c9c9c 0;
#X text 11 23 access object property;
#X obj 460 10 fc_property;
#X text 100 200 bang;
#X text 100 239 any;
#X text 170 200 - when a bang incomes \, the current property value
is sent to the outlet.;
#X text 170 239 - set the property with the incoming value;
#X text 100 300 object;
#X obj 80 361 cnv 17 3 45 empty \$0-pddp.cnv.let.1 2 5 9 0 16 #dcdcdc
#9c9c9c 0;
#X text 100 360 symbol;
#X text 98 427 any;
#X text 168 427 - the property current value is sent only when a bang
comes in the first inlet;
#X text 80 496 0) symbol;
#X obj 30 50 bng 15 250 50 0 empty empty empty 17 7 0 10 #fcfcfc #000000
#000000;
#X obj 30 160 print;
#X msg 60 100 Box;
#X obj 30 130 fc_property Length;
#X obj 30 70 t b b;
#X text 168 496 - the optional argument set the property name;
#X obj 100 540 helplink FCPD;
#X text 169 300 - the second inlet set the object to access;
#X text 172 360 - the third inlet set the property name to access;
#X connect 23 0 27 0;
#X connect 25 0 26 1;
#X connect 26 0 24 0;
#X connect 27 0 26 0;
#X connect 27 1 25 0;
