#N canvas 436 36 600 620 10;
#X obj 0 0 cnv 15 600 40 empty empty part_index 3 12 0 18 #c4dcdc #000000 0;
#X obj 10 50 shape/ancestorsOfType;
#X text 200 50 ancestorsOfType(shape \,  shape type) -> list ;
#X obj 10 80 shape/check;
#X text 200 80 Checks the shape and report errors in the shape structure. ;
#X obj 10 110 shape/childShapes;
#X text 200 110  ;
#X obj 10 140 shape/cleaned;
#X text 200 140 This creates a cleaned copy of the shape with the triangulation removed. ;
#X obj 10 170 shape/common;
#X text 200 170 Intersection of this and a given (list of) topo shape. ;
#X obj 10 200 shape/complement;
#X text 200 200 Computes the complement of the orientation of this shape \,  ;
#X obj 10 230 shape/copy;
#X text 200 230 Create a copy of this shape ;
#X obj 10 260 shape/countElement;
#X text 200 260 Returns the count of a type of element;
#X obj 10 290 shape/cut;
#X text 200 290 Difference of this and a given (list of) topo shape ;
#X obj 10 320 shape/defeaturing;
#X text 200 320 Remove a feature defined by supplied faces and return a new shape. ;
#X obj 10 350 shape/distToShape;
#X text 200 350 Find the minimum distance to another shape. ;
#X obj 10 380 shape/dumpContent;
#X text 200 380 - returns a byte array with full content ;
#X obj 10 410 shape/dumpToString;
#X text 200 410 Dump information about the shape to a string.;
#X obj 10 440 shape/exportBinary;
#X text 200 440 Export the content of this shape in binary format to a file.;
#X obj 10 470 shape/exportBrep;
#X text 200 470 Export the content of this shape to an BREP file. BREP is a CasCade native format.;
#X obj 10 500 shape/exportBrepToString;
#X text 200 500 Export the content of this shape to a string in BREP format. BREP is a CasCade native format.;
#X obj 10 530 shape/exportIges;
#X text 200 530 Export the content of this shape to an IGES file.;
#X obj 10 560 shape/exportStep;
#X text 200 560 Export the content of this shape to an STEP file.;
#X obj 10 590 shape/exportStl;
#X text 200 590 Export the content of this shape to an STL mesh file.;
#X obj 10 620 shape/extrude;
#X text 200 620 Extrude the shape along a direction.;
#X obj 10 650 shape/findPlane;
#X text 200 650 - return a plane if the shape is planar;
#X obj 10 680 shape/fix;
#X text 200 680 Tries to fix a broken shape. True is returned if the operation succeeded \,  False otherwise. ;
#X obj 10 710 shape/fixTolerance;
#X text 200 710  ;
#X obj 10 740 shape/fuse;
#X text 200 740 Union of this and a given (list of) topo shape. ;
#X obj 10 770 shape/generalFuse;
#X text 200 770 generalFuse(list_of_other_shapes \,  fuzzy_value = 0.0): Run general fuse algorithm (GFA) between this and given shapes. ;
#X obj 10 800 shape/getAllDerivedFrom;
#X text 200 800 Returns all descendants;
#X obj 10 830 shape/getElement;
#X text 200 830 Returns a SubElement;
#X obj 10 860 shape/getFacesFromSubelement;
#X text 200 860 Return vertexes and faces from a sub-element;
#X obj 10 890 shape/getTolerance;
#X text 200 890  ;
#X obj 10 920 shape/globalTolerance;
#X text 200 920  ;
#X obj 10 950 shape/hashCode;
#X text 200 950 This value is computed from the value of the underlying shape reference and the location. ;
#X obj 10 980 shape/importBinary;
#X text 200 980 Import the content to this shape of a string in BREP format.;
#X obj 10 1010 shape/importBrep;
#X text 200 1010 Load the shape from a file in BREP format.;
#X obj 10 1040 shape/importBrepFromString;
#X text 200 1040 Load the shape from a string that keeps the content in BREP format. ;
#X obj 10 1070 shape/inTolerance;
#X text 200 1070  ;
#X obj 10 1100 shape/isClosed;
#X text 200 1100 Checks if the shape is closed ;
#X obj 10 1130 shape/isCoplanar;
#X text 200 1130 - Checks if this shape is coplanar with the given shape.;
#X obj 10 1160 shape/isDerivedFrom;
#X text 200 1160 Returns true if given type is a father;
#X obj 10 1190 shape/isEqual;
#X text 200 1190 Checks if both shapes are equal. ;
#X obj 10 1220 shape/isInfinite;
#X text 200 1220 - Checks if this shape has an infinite expansion.;
#X obj 10 1250 shape/isInside;
#X text 200 1250 Checks whether a point is inside or outside the shape. ;
#X obj 10 1280 shape/isNull;
#X text 200 1280 Checks if the shape is null.;
#X obj 10 1310 shape/isPartner;
#X text 200 1310 Checks if both shapes share the same geometry. ;
#X obj 10 1340 shape/isSame;
#X text 200 1340 Checks if both shapes share the same geometry ;
#X obj 10 1370 shape/isValid;
#X text 200 1370 Checks if the shape is valid \,  i.e. neither null \,  nor empty nor corrupted.;
#X obj 10 1400 shape/limitTolerance;
#X text 200 1400  ;
#X obj 10 1430 shape/makeChamfer;
#X text 200 1430 Make chamfer.;
#X obj 10 1460 shape/makeFillet;
#X text 200 1460 Make fillet.;
#X obj 10 1490 shape/makeOffset2D;
#X text 200 1490 makeOffset2D(offset \,  join = 0 \,  fill = False \,  openResult = false \,  intersection = ;
#X obj 10 1520 shape/makeOffsetShape;
#X text 200 1520 makeOffsetShape(offset \,  tolerance \,  inter = False \,  self_inter = False \,  ;
#X obj 10 1550 shape/makeParallelProjection;
#X text 200 1550 Parallel projection of an edge or wire on this shape ;
#X obj 10 1580 shape/makePerspectiveProjection;
#X text 200 1580 Perspective projection of an edge or wire on this shape ;
#X obj 10 1610 shape/makeShapeFromMesh;
#X text 200 1610 Make a compound shape out of mesh data. ;
#X obj 10 1640 shape/makeThickness;
#X text 200 1640 makeThickness(List of shapes \,  Offset (Float) \,  Tolerance (Float)) -> Shape ;
#X obj 10 1670 shape/makeWires;
#X text 200 1670  ;
#X obj 10 1700 shape/mirror;
#X text 200 1700 Mirror this shape on a given plane. ;
#X obj 10 1730 shape/multiFuse;
#X text 200 1730 multiFuse((tool1 \, tool2 \, ...) \, [tolerance=0.0]) -> Shape ;
#X obj 10 1760 shape/nullify;
#X text 200 1760 Destroys the reference to the underlying shape stored in this shape. ;
#X obj 10 1790 shape/oldFuse;
#X text 200 1790 Union of this and a given topo shape (old algorithm).;
#X obj 10 1820 shape/optimalBoundingBox;
#X text 200 1820  ;
#X obj 10 1850 shape/overTolerance;
#X text 200 1850  ;
#X obj 10 1880 shape/project;
#X text 200 1880 Project a list of shapes on this shape;
#X obj 10 1910 shape/proximity;
#X text 200 1910 proximity(Shape s): Returns two lists of Face indexes for the Faces involved in the intersection.;
#X obj 10 1940 shape/read;
#X text 200 1940 Read in an IGES \,  STEP or BREP file.;
#X obj 10 1970 shape/reflectLines;
#X text 200 1970 Build reflect lines on a shape according to the axes of view. ;
#X obj 10 2000 shape/removeInternalWires;
#X text 200 2000 Removes internal wires (also holes) from the shape.;
#X obj 10 2030 shape/removeShape;
#X text 200 2030 Remove a sub-shape and return a new shape. ;
#X obj 10 2060 shape/removeSplitter;
#X text 200 2060 Removes redundant edges from the B-REP model;
#X obj 10 2090 shape/replaceShape;
#X text 200 2090 Replace a sub-shape with a new shape and return a new shape. ;
#X obj 10 2120 shape/restoreContent;
#X text 200 2120 - restores from the given byte array ;
#X obj 10 2150 shape/reverse;
#X text 200 2150 Reverses the orientation of this shape.;
#X obj 10 2180 shape/reversed;
#X text 200 2180 Reverses the orientation of a copy of this shape.;
#X obj 10 2210 shape/revolve;
#X text 200 2210 Revolve the shape around an Axis to a given degree. ;
#X obj 10 2240 shape/rotate;
#X text 200 2240  ;
#X obj 10 2270 shape/rotated;
#X text 200 2270  ;
#X obj 10 2300 shape/scale;
#X text 200 2300 Apply scaling with point and factor to this shape.;
#X obj 10 2330 shape/scaled;
#X text 200 2330  ;
#X obj 10 2360 shape/section;
#X text 200 2360 Section of this with a given (list of) topo shape. ;
#X obj 10 2390 shape/sewShape;
#X text 200 2390 Sew the shape if there is a gap.;
#X obj 10 2420 shape/slice;
#X text 200 2420 Make single slice of this shape.;
#X obj 10 2450 shape/slices;
#X text 200 2450 Make slices of this shape.;
#X obj 10 2480 shape/tessellate;
#X text 200 2480 Tessellate the shape and return a list of vertices and face indices;
#X obj 10 2510 shape/toNurbs;
#X text 200 2510 Conversion of the complete geometry of a shape into NURBS geometry. ;
#X obj 10 2540 shape/transformGeometry;
#X text 200 2540 Apply geometric transformation on this or a copy the shape. ;
#X obj 10 2570 shape/transformShape;
#X text 200 2570 Apply transformation on a shape without changing ;
#X obj 10 2600 shape/transformed;
#X text 200 2600  ;
#X obj 10 2630 shape/translate;
#X text 200 2630 Apply the translation to the current location of this shape.;
#X obj 10 2660 shape/translated;
#X text 200 2660  ;
#X obj 10 2690 shape/writeInventor;
#X text 200 2690 Write the mesh in OpenInventor format to a string.;
