#N canvas 436 36 550 620 10;
#X obj 0 0 cnv 15 550 40 empty empty part/makeSplitShape 3 12 0 18 #c4dcdc #000000 0;
#X obj 400 10 part/makeSplitShape;
#X text 10 50 keSplitShape(shape \,  list of shape pairs \, [check Interior=True]) -> two lists of shapes.
The following shape pairs are supported:
* Wire \,  Face
* Edge \,  Face
* Compound \,  Face
* Edge \,  Edge
* The face must be part of the specified shape and the edge \,  wire or compound must
lie on the face.
Output:
The first list contains the faces that are the left of the projected wires.
The second list contains the left part on the shape.

Example:
face = ...
edges = ...
split = [(edges[0] \, face) \, (edges[1] \, face)]
r = Part.makeSplitShape(face \,  split)
Part.show(r[0][0])
Part.show(r[1][0])
;
#X obj 0 180 cnv 3 550 3 empty empty inlets 8 12 0 13 #dcdcdc #000000 0;
#X obj 78 200 cnv 17 3 17 empty \$0-pddp.cnv.let.1 0 5 9 0 16 #dcdcdc #9c9c9c 0;
#X text 100 200 shape;
#X obj 78 230 cnv 17 3 17 empty \$0-pddp.cnv.let.1 1 5 9 0 16 #dcdcdc #9c9c9c 0;
#X text 100 230  list of shape pairs;
#X obj 78 260 cnv 17 3 17 empty \$0-pddp.cnv.let.1 2 5 9 0 16 #dcdcdc #9c9c9c 0;
#X text 100 260 check Interior;
#X obj 0 290 cnv 3 550 3 empty empty outlets 8 12 0 13 #dcdcdc #000000 0;
#X obj 78 320 cnv 17 3 17 empty empty 0 5 9 0 16 #dcdcdc #9c9c9c 0;
#X text 100 320 Name of the created FreeCAD object;
#X obj 0 380 cnv 3 550 3 empty empty arguments 8 12 0 13 #dcdcdc #000000 0;
#X obj 0 440 cnv 3 550 3 empty empty more_info 8 12 0 13 #dcdcdc #000000 0;
#X text 10 470 This object is part of the ;
#X obj 170 470  helplink FCPD;
#X text 200 470  library.;
#X obj 0 600 cnv 15 550 15 empty empty empty 20 12 0 14 #dcdcdc #404040 0;
