#N canvas 436 36 550 620 10;
#X obj 0 0 cnv 15 550 40 empty empty part/makeWedge 3 12 0 18 #c4dcdc #000000 0;
#X obj 400 10 part/makeWedge;
#X text 10 50 Make a wedge located in pnt \; By default pnt=Vector(0 \, 0 \, 0) and dir=Vector(0 \, 0 \, 1);
#X obj 0 180 cnv 3 550 3 empty empty inlets 8 12 0 13 #dcdcdc #000000 0;
#X obj 78 200 cnv 17 3 17 empty \$0-pddp.cnv.let.1 0 5 9 0 16 #dcdcdc #9c9c9c 0;
#X text 100 200 xmin;
#X obj 78 230 cnv 17 3 17 empty \$0-pddp.cnv.let.1 1 5 9 0 16 #dcdcdc #9c9c9c 0;
#X text 100 230  ymin;
#X obj 78 260 cnv 17 3 17 empty \$0-pddp.cnv.let.1 2 5 9 0 16 #dcdcdc #9c9c9c 0;
#X text 100 260  zmin;
#X obj 78 290 cnv 17 3 17 empty \$0-pddp.cnv.let.1 3 5 9 0 16 #dcdcdc #9c9c9c 0;
#X text 100 290  z2min;
#X obj 78 320 cnv 17 3 17 empty \$0-pddp.cnv.let.1 4 5 9 0 16 #dcdcdc #9c9c9c 0;
#X text 100 320  x2min;
#X obj 78 350 cnv 17 3 17 empty \$0-pddp.cnv.let.1 5 5 9 0 16 #dcdcdc #9c9c9c 0;
#X text 100 350 xmax;
#X obj 78 380 cnv 17 3 17 empty \$0-pddp.cnv.let.1 6 5 9 0 16 #dcdcdc #9c9c9c 0;
#X text 100 380  ymax;
#X obj 78 410 cnv 17 3 17 empty \$0-pddp.cnv.let.1 7 5 9 0 16 #dcdcdc #9c9c9c 0;
#X text 100 410  zmax;
#X obj 78 440 cnv 17 3 17 empty \$0-pddp.cnv.let.1 8 5 9 0 16 #dcdcdc #9c9c9c 0;
#X text 100 440  z2max;
#X obj 78 470 cnv 17 3 17 empty \$0-pddp.cnv.let.1 9 5 9 0 16 #dcdcdc #9c9c9c 0;
#X text 100 470  x2max;
#X obj 78 500 cnv 17 3 17 empty \$0-pddp.cnv.let.1 10 5 9 0 16 #dcdcdc #9c9c9c 0;
#X text 100 500 pnt;
#X obj 78 530 cnv 17 3 17 empty \$0-pddp.cnv.let.1 11 5 9 0 16 #dcdcdc #9c9c9c 0;
#X text 100 530 dir;
#X obj 0 560 cnv 3 550 3 empty empty outlets 8 12 0 13 #dcdcdc #000000 0;
#X obj 78 590 cnv 17 3 17 empty empty 0 5 9 0 16 #dcdcdc #9c9c9c 0;
#X text 100 590 Name of the created FreeCAD object;
#X obj 0 650 cnv 3 550 3 empty empty arguments 8 12 0 13 #dcdcdc #000000 0;
#X obj 0 710 cnv 3 550 3 empty empty more_info 8 12 0 13 #dcdcdc #000000 0;
#X text 10 740 This object is in the ;
#X obj 140 740  helplink part;
#X text 175 740  part of the ;
#X obj 245 740  helplink FCPD;
#X text 275 740  library.;
#X obj 0 770 cnv 15 550 15 empty empty empty 20 12 0 14 #dcdcdc #404040 0;
