#N canvas 436 36 550 620 10;
#X obj 0 0 cnv 15 550 40 empty empty part/makeLine 3 12 0 18 #c4dcdc #000000 0;
#X obj 400 10 part/makeLine;
#X text 10 50 Make a line between two points

Args:
    startpnt (Vector or tuple): Vector or 3 element tuple 
        containing the x \, y and z coordinates of the start point \, 
        i.e. (x1 \, y1 \, z1).
    endpnt (Vector or tuple): Vector or 3 element tuple 
        containing the x \, y and z coordinates of the start point \, 
        i.e. (x1 \, y1 \, z1).

Returns:
    Edge: Part.Edge object
;
#X obj 0 180 cnv 3 550 3 empty empty inlets 8 12 0 13 #dcdcdc #000000 0;
#X obj 78 200 cnv 17 3 17 empty \$0-pddp.cnv.let.1 0 5 9 0 16 #dcdcdc #9c9c9c 0;
#X text 100 200 startpnt;
#X obj 78 230 cnv 17 3 17 empty \$0-pddp.cnv.let.1 1 5 9 0 16 #dcdcdc #9c9c9c 0;
#X text 100 230 endpnt;
#X obj 0 260 cnv 3 550 3 empty empty outlets 8 12 0 13 #dcdcdc #000000 0;
#X obj 78 290 cnv 17 3 17 empty empty 0 5 9 0 16 #dcdcdc #9c9c9c 0;
#X text 100 290 Name of the created FreeCAD object;
#X obj 0 350 cnv 3 550 3 empty empty arguments 8 12 0 13 #dcdcdc #000000 0;
#X obj 0 410 cnv 3 550 3 empty empty more_info 8 12 0 13 #dcdcdc #000000 0;
#X text 10 440 This object is part of the ;
#X obj 170 440  helplink FCPD;
#X text 200 440  library.;
#X obj 0 600 cnv 15 550 15 empty empty empty 20 12 0 14 #dcdcdc #404040 0;
