#N canvas 436 36 550 620 10;
#X obj 0 0 cnv 15 550 40 empty empty part/makeWireString 3 12 0 18 #c4dcdc #000000 0;
#X obj 400 10 part/makeWireString;
#X text 10 50 Make list of wires in the form of a string's characters.;
#X obj 0 180 cnv 3 550 3 empty empty inlets 8 12 0 13 #dcdcdc #000000 0;
#X obj 78 200 cnv 17 3 17 empty \$0-pddp.cnv.let.1 0 5 9 0 16 #dcdcdc #9c9c9c 0;
#X text 100 200 string;
#X obj 78 230 cnv 17 3 17 empty \$0-pddp.cnv.let.1 1 5 9 0 16 #dcdcdc #9c9c9c 0;
#X text 100 230 fontdir;
#X obj 78 260 cnv 17 3 17 empty \$0-pddp.cnv.let.1 2 5 9 0 16 #dcdcdc #9c9c9c 0;
#X text 100 260 fontfile;
#X obj 78 290 cnv 17 3 17 empty \$0-pddp.cnv.let.1 3 5 9 0 16 #dcdcdc #9c9c9c 0;
#X text 100 290 height;
#X obj 78 320 cnv 17 3 17 empty \$0-pddp.cnv.let.1 4 5 9 0 16 #dcdcdc #9c9c9c 0;
#X text 100 320 track;
#X obj 0 350 cnv 3 550 3 empty empty outlets 8 12 0 13 #dcdcdc #000000 0;
#X obj 78 380 cnv 17 3 17 empty empty 0 5 9 0 16 #dcdcdc #9c9c9c 0;
#X text 100 380 Name of the created FreeCAD object;
#X obj 0 440 cnv 3 550 3 empty empty arguments 8 12 0 13 #dcdcdc #000000 0;
#X obj 0 500 cnv 3 550 3 empty empty more_info 8 12 0 13 #dcdcdc #000000 0;
#X text 10 530 This object is part of the ;
#X obj 170 530  helplink FCPD;
#X text 200 530  library.;
#X obj 0 600 cnv 15 550 15 empty empty empty 20 12 0 14 #dcdcdc #404040 0;
