#N canvas 436 36 550 620 10;
#X obj 0 0 cnv 15 550 40 empty empty part/makeRevolution 3 12 0 18 #c4dcdc #000000 0;
#X obj 400 10 part/makeRevolution;
#X text 10 50 Make a revolved shape \; by rotating the curve or a portion of it around an axis given by (pnt \, dir). \; By default vmin/vmax=bounds of the curve \,  angle=360 \,  pnt=Vector(0 \, 0 \, 0) \,  \; dir=Vector(0 \, 0 \, 1) and shapetype=Part.Solid;
#X obj 0 180 cnv 3 550 3 empty empty inlets 8 12 0 13 #dcdcdc #000000 0;
#X obj 78 200 cnv 17 3 17 empty \$0-pddp.cnv.let.1 0 5 9 0 16 #dcdcdc #9c9c9c 0;
#X text 100 200 Curve or Edge;
#X obj 78 230 cnv 17 3 17 empty \$0-pddp.cnv.let.1 1 5 9 0 16 #dcdcdc #9c9c9c 0;
#X text 100 230 vmin;
#X obj 78 260 cnv 17 3 17 empty \$0-pddp.cnv.let.1 2 5 9 0 16 #dcdcdc #9c9c9c 0;
#X text 100 260 vmax;
#X obj 78 290 cnv 17 3 17 empty \$0-pddp.cnv.let.1 3 5 9 0 16 #dcdcdc #9c9c9c 0;
#X text 100 290 angle;
#X obj 78 320 cnv 17 3 17 empty \$0-pddp.cnv.let.1 4 5 9 0 16 #dcdcdc #9c9c9c 0;
#X text 100 320 pnt;
#X obj 78 350 cnv 17 3 17 empty \$0-pddp.cnv.let.1 5 5 9 0 16 #dcdcdc #9c9c9c 0;
#X text 100 350 dir;
#X obj 78 380 cnv 17 3 17 empty \$0-pddp.cnv.let.1 6 5 9 0 16 #dcdcdc #9c9c9c 0;
#X text 100 380 shapetype;
#X obj 0 410 cnv 3 550 3 empty empty outlets 8 12 0 13 #dcdcdc #000000 0;
#X obj 78 440 cnv 17 3 17 empty empty 0 5 9 0 16 #dcdcdc #9c9c9c 0;
#X text 100 440 Name of the created FreeCAD object;
#X obj 0 500 cnv 3 550 3 empty empty arguments 8 12 0 13 #dcdcdc #000000 0;
#X obj 0 560 cnv 3 550 3 empty empty more_info 8 12 0 13 #dcdcdc #000000 0;
#X text 10 590 This object is in the ;
#X obj 140 590  helplink part;
#X text 175 590  part of the ;
#X obj 245 590  helplink FCPD;
#X text 275 590  library.;
#X obj 0 620 cnv 15 550 15 empty empty empty 20 12 0 14 #dcdcdc #404040 0;
