#N canvas 436 36 550 620 10;
#X obj 0 0 cnv 15 550 40 empty empty part/makeHelix 3 12 0 18 #c4dcdc #000000 0;
#X obj 400 10 part/makeHelix;
#X text 10 50 Make a helix with a given pitch \,  height and radius \; By default a cylindrical surface is used to create the helix. If the fourth parameter is set \; (the apex given in degree) a conical surface is used instead;
#X obj 0 180 cnv 3 550 3 empty empty inlets 8 12 0 13 #dcdcdc #000000 0;
#X obj 78 200 cnv 17 3 17 empty \$0-pddp.cnv.let.1 0 5 9 0 16 #dcdcdc #9c9c9c 0;
#X text 100 200 pitch;
#X obj 78 230 cnv 17 3 17 empty \$0-pddp.cnv.let.1 1 5 9 0 16 #dcdcdc #9c9c9c 0;
#X text 100 230 height;
#X obj 78 260 cnv 17 3 17 empty \$0-pddp.cnv.let.1 2 5 9 0 16 #dcdcdc #9c9c9c 0;
#X text 100 260 radius;
#X obj 78 290 cnv 17 3 17 empty \$0-pddp.cnv.let.1 3 5 9 0 16 #dcdcdc #9c9c9c 0;
#X text 100 290 angle;
#X obj 0 320 cnv 3 550 3 empty empty outlets 8 12 0 13 #dcdcdc #000000 0;
#X obj 78 350 cnv 17 3 17 empty empty 0 5 9 0 16 #dcdcdc #9c9c9c 0;
#X text 100 350 Name of the created FreeCAD object;
#X obj 0 410 cnv 3 550 3 empty empty arguments 8 12 0 13 #dcdcdc #000000 0;
#X obj 0 470 cnv 3 550 3 empty empty more_info 8 12 0 13 #dcdcdc #000000 0;
#X text 10 500 This object is in the ;
#X obj 140 500  helplink part;
#X text 175 500  part of the ;
#X obj 245 500  helplink FCPD;
#X text 275 500  library.;
#X obj 0 600 cnv 15 550 15 empty empty empty 20 12 0 14 #dcdcdc #404040 0;
