#N canvas 436 36 550 620 10;
#X obj 0 0 cnv 15 550 15 empty empty ikpy/chain/Chain 8 12 0 13 #c4dcdc #000000 0;
#X obj 400 10 ikpy/chain/Chain;
#X text 10 50 The base Chain class-------- \;     links: list[ikpy.link.Link] \;         List of the links of the chain \;     active_links_mask: list \;         A list of boolean indicating that whether or not the corresponding link is active \;     name: str \;         The name of the Chain \;     urdf_metadata \;         Technical attribute \;     ;
#X obj 0 250 cnv 3 550 3 empty empty inlets 8 12 0 13 #dcdcdc #000000 0;
#X obj 78 270 cnv 17 3 17 empty empty 0 8 12 0 13 #dcdcdc #9c9c9c 0;
#X text 100 270 links;
#X obj 78 300 cnv 17 3 17 empty empty 1 8 12 0 13 #dcdcdc #9c9c9c 0;
#X text 100 300 active_links_mask;
#X obj 78 330 cnv 17 3 17 empty empty 2 8 12 0 13 #dcdcdc #9c9c9c 0;
#X text 100 330 name;
#X obj 78 360 cnv 17 3 17 empty empty 3 8 12 0 13 #dcdcdc #9c9c9c 0;
#X text 100 360 urdf_metadata;
#X obj 78 390 cnv 17 3 17 empty empty 4 8 12 0 13 #dcdcdc #9c9c9c 0;
#X text 100 390 kwargs;
#X obj 0 420 cnv 3 550 3 empty empty outlets 8 12 0 13 #dcdcdc #000000 0;
#X obj 78 450 cnv 17 3 17 empty empty 0 8 12 0 13 #dcdcdc #9c9c9c 0;
#X text 100 450 Result of the operation;
#X obj 0 510 cnv 3 550 3 empty empty arguments 8 12 0 13 #dcdcdc #000000 0;
#X obj 0 570 cnv 3 550 3 empty empty more_info 8 12 0 13 #dcdcdc #000000 0;
#X text 10 590 This object and its help was autogenerated by FCPD_Workbench;
#X obj 0 630 cnv 15 550 15 empty empty  8 12 0 13 #dcdcdc #404040 0;
