#N canvas 436 36 550 620 10;
#X obj 0 0 cnv 15 550 15 empty empty app/Placement 8 12 0 13 #c4dcdc #000000 0;
#X obj 400 10 app/Placement;
#X text 10 50 Placement empty constructor \; Placement(Placement) -- copy constructor \; Placement(Matrix) -- 4D matrix consisting of rotation and translation \; Placement(Base \,  Rotation) -- define position and rotation \; Placement(Base \,  Rotation \, Center) -- define position and rotation with center \; Placement(Base \,  Axis \,  Angle) -- define position and rotation \; 		;
#X obj 0 190 cnv 3 550 3 empty empty inlets 8 12 0 13 #dcdcdc #000000 0;
#X obj 78 210 cnv 17 3 17 empty empty 0 8 12 0 13 #dcdcdc #9c9c9c 0;
#X text 100 210 rotation;
#X obj 0 240 cnv 3 550 3 empty empty outlets 8 12 0 13 #dcdcdc #000000 0;
#X obj 78 270 cnv 17 3 17 empty empty 0 8 12 0 13 #dcdcdc #9c9c9c 0;
#X text 100 270 Result of the operation;
#X obj 0 330 cnv 3 550 3 empty empty arguments 8 12 0 13 #dcdcdc #000000 0;
#X obj 0 390 cnv 3 550 3 empty empty more_info 8 12 0 13 #dcdcdc #000000 0;
#X text 10 410 This object and its help was autogenerated by FCPD_Workbench;
#X obj 0 450 cnv 15 550 15 empty empty  8 12 0 13 #dcdcdc #404040 0;
