#N canvas 750 350 500 500 12;#X text 10 10 Shape;
#X obj 10 30 inlet;
#X obj 10 60 t a b b ;
#X text 100 10 value;
#X obj 100 30 inlet;
#X obj 100 90 any;
#X obj 100 120 list append;
#X text 200 10  ShapeType;
#X obj 200 30 inlet;
#X obj 200 120 any;
#X obj 200 150 list append;
#X obj 10 300 list prepend Shape overTolerance;
#X obj 10 330 fc_process 1;
#X obj 10 360 route ERROR;
#X obj 10 390 print FreeCAD Error;
#X obj 120 390 outlet;
#X connect 1 0 2 0;
#X connect 2 1 5 0;
#X connect 4 0 5 1;
#X connect 5 0 6 1;
#X connect 2 0 6 0;
#X connect 2 2 9 0;
#X connect 8 0 9 1;
#X connect 9 0 10 1;
#X connect 6 0 10 0;
#X connect 10 0 11 0;
#X connect 11 0 12 0;
#X connect 12 0 13 0;
#X connect 13 0 14 0;
#X connect 13 1 15 0;
