#N canvas 765 353 500 500 12;
#X obj 10 30 inlet;
#X obj 10 60 bang;
#X obj 10 120 fc_process 0;
#X obj 10 150 route ERROR;
#X obj 10 180 print FreeCAD Error;
#X obj 210 210 outlet;
#X obj 10 90 list append raw ikpy.link.OriginLink;
#X obj 160 180 t b a;
#X obj 160 210 outlet;
#X text 160 230 done;
#X text 10 10 go;
#X connect 0 0 1 0;
#X connect 1 0 6 0;
#X connect 2 0 3 0;
#X connect 3 0 4 0;
#X connect 3 1 7 0;
#X connect 6 0 2 0;
#X connect 7 0 8 0;
#X connect 7 1 5 0;
