#N struct draw-image-struct float x float y float w float h;
#N canvas 65 172 690 731 12;
#X obj 10 30 inlet;
#X text 10 10 go;
#X obj 10 590 outlet;
#X text 10 610 done;
#X obj 70 590 outlet;
#X obj 130 590 outlet;
#X text 130 610 objects;
#X obj 260 590 outlet;
#X text 260 610 lastPlacement;
#X obj 60 30 inlet;
#X text 60 10 joints;
#X text 70 610 joints;
#X obj 160 30 inlet;
#X text 160 10 objects;
#X obj 270 30 inlet;
#X text 270 10 lastPlacement;
#X obj 460 30 inlet;
#X text 460 10 newObject;
#X obj 540 30 inlet;
#X text 540 10 newAxis;
#X obj 610 30 inlet;
#X text 610 10 newBounds;
#X obj 10 480 ik/revoluteJoint;
#X obj 10 140 fc_byLabel;
#X obj 120 520 list append;
#X obj 60 60 s \$0-joints;
#X obj 190 480 r \$0-joints;
#X obj 460 60 t a a;
#X obj 10 330 placementPosRot;
#X obj 130 330 placementPosRot;
#X obj 10 380 vectorMinus;
#X obj 100 380 rotationMinus;
#X obj 10 410 placement;
#X obj 10 280 fc_getObjectProperty Placement;
#X obj 80 170 t a a;
#X obj 120 200 list append;
#X obj 120 230 s \$0-newObjects;
#X obj 130 560 r \$0-newObjects;
#X obj 10 440 t b a;
#X obj 390 590 outlet;
#X text 390 610 init;
#X obj 10 60 t b b;
#X connect 0 0 41 0;
#X connect 9 0 25 0;
#X connect 12 0 35 1;
#X connect 14 0 29 0;
#X connect 16 0 27 0;
#X connect 18 0 22 3;
#X connect 20 0 22 4;
#X connect 22 0 2 0;
#X connect 22 1 24 0;
#X connect 23 0 33 0;
#X connect 23 1 34 0;
#X connect 24 0 4 0;
#X connect 26 0 24 1;
#X connect 27 0 23 1;
#X connect 27 1 22 1;
#X connect 28 0 30 0;
#X connect 28 1 31 0;
#X connect 29 0 30 1;
#X connect 29 1 31 1;
#X connect 30 0 32 0;
#X connect 31 0 32 1;
#X connect 32 0 38 0;
#X connect 33 1 28 0;
#X connect 33 1 7 0;
#X connect 34 0 33 1;
#X connect 34 1 35 0;
#X connect 35 0 36 0;
#X connect 37 0 5 0;
#X connect 38 0 22 0;
#X connect 38 1 22 2;
#X connect 41 0 23 0;
#X connect 41 1 39 0;
