#N canvas 725 288 590 217 12;
#X obj 10 30 inlet;
#X text 10 10 go;
#X obj 10 160 outlet;
#X text 10 180 done;
#X obj 70 160 outlet;
#X obj 130 160 outlet;
#X text 130 180 objects;
#X obj 190 160 outlet;
#X text 190 180 lastPlacement;
#X msg 190 130 Placement Pos 0 0 0 Rot 0 0 0;
#X text 70 180 joints;
#X obj 420 160 outlet;
#X text 420 180 init;
#X obj 10 60 t b b b b b;
#X connect 0 0 13 0;
#X connect 9 0 7 0;
#X connect 13 0 2 0;
#X connect 13 1 4 0;
#X connect 13 2 5 0;
#X connect 13 3 9 0;
#X connect 13 4 11 0;
