#N canvas 633 282 478 559 12;
#X obj 30 150 fc_process;
#X obj 100 30 inlet;
#X obj 30 180 t b a;
#X obj 30 210 outlet;
#X obj 90 210 outlet;
#X obj 30 30 inlet;
#X obj 30 59 b;
#X obj 30 90 list;
#X text 30 230 done;
#X text 30 10 go;
#X obj 30 120 list prepend matrixPlacement;
#X connect 0 0 2 0;
#X connect 1 0 7 1;
#X connect 2 0 3 0;
#X connect 2 1 4 0;
#X connect 5 0 6 0;
#X connect 6 0 7 0;
#X connect 7 0 10 0;
#X connect 10 0 0 0;
