#N canvas 1407 296 450 300 12;
#X obj 20 90 ik/inverse_kinematics;
#X obj 20 120 ik/forward_kinematics;
#X obj 20 20 inlet;
#X obj 90 20 inlet;
#X obj 160 20 inlet;
#X obj 90 50 t a a;
#X text 20 0 go;
#X text 160 0 target;
#X text 20 170 done;
#X obj 20 150 outlet;
#X text 160 170 matrix;
#X obj 160 150 outlet;
#X text 90 0 chain;
#X connect 0 0 1 0;
#X connect 0 1 1 2;
#X connect 1 0 9 0;
#X connect 1 1 11 0;
#X connect 2 0 0 0;
#X connect 3 0 5 0;
#X connect 4 0 0 2;
#X connect 5 0 0 1;
#X connect 5 1 1 1;
