#N canvas 169 257 323 620 12;
#X obj 10 420 fc_setObjectProperty Placement;
#X obj 20 450 s \$0_next;
#X obj 10 380 ik/matrixToPlacement;
#X obj 10 190 list append;
#X obj 10 220 list split 1;
#X obj 170 190 list append;
#X obj 170 220 list split 1;
#X obj 20 120 r \$0_next;
#X obj 10 320 spigot;
#X msg 50 290 1;
#X msg 110 290 0;
#X obj 50 260 r \$0_start;
#X obj 10 350 t b a;
#X obj 10 150 t b b;
#X obj 250 260 s \$0_end;
#X obj 50 480 r \$0_start;
#X msg 50 510 0;
#X msg 130 510 1;
#X obj 130 480 r \$0_end;
#X obj 10 540 spigot;
#X obj 10 570 outlet;
#X text 10 590 done;
#X obj 10 30 inlet;
#X text 10 10 go;
#X obj 250 30 inlet;
#X text 250 10 objects;
#X obj 170 30 inlet;
#X text 170 10 matrix;
#X obj 250 150 list;
#X obj 10 60 t b b b;
#X obj 50 90 s \$0_start;
#X connect 0 0 1 0;
#X connect 0 0 19 0;
#X connect 2 0 0 0;
#X connect 2 1 0 1;
#X connect 3 0 4 0;
#X connect 4 0 8 0;
#X connect 4 1 3 1;
#X connect 4 2 14 0;
#X connect 5 0 6 0;
#X connect 6 0 0 2;
#X connect 6 1 5 1;
#X connect 6 2 10 0;
#X connect 6 2 14 0;
#X connect 7 0 13 0;
#X connect 8 0 12 0;
#X connect 9 0 8 1;
#X connect 10 0 8 1;
#X connect 11 0 9 0;
#X connect 12 0 2 0;
#X connect 12 1 2 1;
#X connect 13 0 3 0;
#X connect 13 1 5 0;
#X connect 15 0 16 0;
#X connect 16 0 19 1;
#X connect 17 0 19 1;
#X connect 18 0 17 0;
#X connect 19 0 20 0;
#X connect 22 0 29 0;
#X connect 24 0 28 1;
#X connect 26 0 3 1;
#X connect 28 0 5 1;
#X connect 29 0 13 0;
#X connect 29 1 30 0;
#X connect 29 2 28 0;
