#N canvas 794 271 651 598 12;
#X obj 10 30 inlet;
#X obj 10 250 outlet;
#X obj 10 130 list prepend ypr2rpy;
#X obj 10 160 fc_process;
#X obj 10 220 t b a;
#X obj 70 30 inlet;
#X text 10 10 go;
#X text 70 10 rotation;
#X obj 10 100 list;
#X obj 10 70 b;
#X text 10 270 done;
#X obj 70 250 outlet;
#X text 70 270 list;
#X obj 10 190 list prepend list;
#X connect 0 0 9 0;
#X connect 2 0 3 0;
#X connect 3 0 13 0;
#X connect 4 0 1 0;
#X connect 4 1 11 0;
#X connect 5 0 8 1;
#X connect 8 0 2 0;
#X connect 9 0 8 0;
#X connect 13 0 4 0;
