#N canvas 436 36 550 620 10;
#X obj 0 0 cnv 15 550 40 empty empty part/getFacets 3 12 0 18 #c4dcdc #000000 0;
#X obj 400 10 part/getFacets;
#X text 10 50 tFacets(shape): simplified mesh generation;
#X obj 0 180 cnv 3 550 3 empty empty inlets 8 12 0 13 #dcdcdc #000000 0;
#X obj 78 200 cnv 17 3 17 empty \$0-pddp.cnv.let.1 0 5 9 0 16 #dcdcdc #9c9c9c 0;
#X text 100 200 shape;
#X obj 0 230 cnv 3 550 3 empty empty outlets 8 12 0 13 #dcdcdc #000000 0;
#X obj 78 260 cnv 17 3 17 empty empty 0 5 9 0 16 #dcdcdc #9c9c9c 0;
#X text 100 260 Name of the created FreeCAD object;
#X obj 0 320 cnv 3 550 3 empty empty arguments 8 12 0 13 #dcdcdc #000000 0;
#X obj 0 380 cnv 3 550 3 empty empty more_info 8 12 0 13 #dcdcdc #000000 0;
#X text 10 410 This object is in the ;
#X obj 140 410  helplink part;
#X text 175 410  part of the ;
#X obj 245 410  helplink FCPD;
#X text 275 410  library.;
#X obj 0 600 cnv 15 550 15 empty empty empty 20 12 0 14 #dcdcdc #404040 0;
