#N canvas 436 36 550 620 10;
#X obj 0 0 cnv 15 550 40 empty empty part/makeRuledSurface 3 12 0 18 #c4dcdc #000000 0;
#X obj 400 10 part/makeRuledSurface;
#X text 10 50 Make a ruled surface \; Create a ruled surface out of two edges or wires. If wires are used thenthese must have the same number of edges.;
#X obj 0 180 cnv 3 550 3 empty empty inlets 8 12 0 13 #dcdcdc #000000 0;
#X obj 78 200 cnv 17 3 17 empty \$0-pddp.cnv.let.1 0 5 9 0 16 #dcdcdc #9c9c9c 0;
#X text 100 200 Edge|Wire;
#X obj 78 230 cnv 17 3 17 empty \$0-pddp.cnv.let.1 1 5 9 0 16 #dcdcdc #9c9c9c 0;
#X text 100 230 Edge|Wire;
#X obj 0 260 cnv 3 550 3 empty empty outlets 8 12 0 13 #dcdcdc #000000 0;
#X obj 78 290 cnv 17 3 17 empty empty 0 5 9 0 16 #dcdcdc #9c9c9c 0;
#X text 100 290 Name of the created FreeCAD object;
#X obj 0 350 cnv 3 550 3 empty empty arguments 8 12 0 13 #dcdcdc #000000 0;
#X obj 0 410 cnv 3 550 3 empty empty more_info 8 12 0 13 #dcdcdc #000000 0;
#X text 10 440 This object is in the ;
#X obj 140 440  helplink part;
#X text 175 440  part of the ;
#X obj 245 440  helplink FCPD;
#X text 275 440  library.;
#X obj 0 600 cnv 15 550 15 empty empty empty 20 12 0 14 #dcdcdc #404040 0;
